<!-- Generator: Adobe Illustrator 18.0.0, SVG Export Plug-In  -->
<svg version="1.1"
	 xmlns="http://www.w3.org/2000/svg" xmlns:xlink="http://www.w3.org/1999/xlink" xmlns:a="http://ns.adobe.com/AdobeSVGViewerExtensions/3.0/"
	 x="0px" y="0px" width="807.4px" height="176.1px" viewBox="0 0 807.4 176.1" enable-background="new 0 0 807.4 176.1"
	 xml:space="preserve">
<defs>
</defs>
<g>
	<polygon fill="#F3D0B4" points="568.7,4.9 570.1,0.9 572.9,4.1 575.7,7.4 571.5,8.2 567.3,9 	"/>
	<path fill="#50565F" d="M502.9,129.9c0,4.3-3.5,7.8-7.8,7.8H308.2c-4.3,0-7.8-3.5-7.8-7.8V15.2c0-4.3,3.5-7.8,7.8-7.8H495
		c4.3,0,7.8,3.5,7.8,7.8V129.9z"/>
	<rect x="311.6" y="19.8" fill="#FFFFFF" width="180.1" height="98.3"/>
	<circle fill="#FFFFFF" cx="401.6" cy="128.1" r="4.7"/>
	<rect x="375.2" y="141.2" fill="#50565F" width="52.9" height="23.8"/>
	<rect x="357.6" y="168.2" fill="#50565F" width="88" height="5.9"/>
	<path fill="#231F20" d="M583.1,82.8c0-0.1,0.1-0.3,0.1-0.4C583.2,82.5,583.2,82.7,583.1,82.8z"/>
	<path fill="#231F20" d="M583.5,81c0,0.1,0,0.2-0.1,0.3C583.5,81.2,583.5,81.1,583.5,81z"/>
	<path fill="#231F20" d="M584,79.1C584,79.1,584,79.1,584,79.1C584,79.1,584,79.1,584,79.1z"/>
	<path fill="#231F20" d="M583.6,80.6c0,0.1,0,0.1,0,0.2C583.6,80.7,583.6,80.7,583.6,80.6z"/>
	<path fill="#231F20" d="M583.2,82.3c0-0.1,0-0.2,0.1-0.3C583.3,82,583.3,82.1,583.2,82.3z"/>
	<path fill="#231F20" d="M583.9,79.5C583.9,79.5,583.9,79.5,583.9,79.5C583.9,79.5,583.9,79.5,583.9,79.5z"/>
	<polygon fill="#EE97C0" points="577,107.6 577,111.3 577,111.3 	"/>
	<g>
		<path fill="#54C4CD" d="M221.8,19.7l-6.4,1.5c0,0-7.3,1.2-5.9,7.2c1.4,6,6.5,28,6.5,28s0.4,4.4,5.9,3.1
			c5.5-1.3,52.5-12.3,52.5-12.3s4.6-0.4,3.4-5.4c-1.2-5-6.4-27.5-6.4-27.5s-0.9-5.2-8.6-3.4c-7.7,1.8-33.6,7-33.6,7s0.1,0.6-1.3,1
			c-1.5,0.3-4.6,1-4.6,1S222.4,20.2,221.8,19.7z"/>

			<path fill="#E2E2E1" stroke="#E2E2E1" stroke-width="0.5572" stroke-linecap="round" stroke-linejoin="round" stroke-miterlimit="10" d="
			M268.1,19.8c0.2,1.6-0.8,3.2-2.4,3.6L232,31.2c-1.6,0.4-3.3-0.6-3.8-2.1l-17.6,4.1l5.5,23.4l61.8-14.4l-5.5-23.4L268.1,19.8z"/>
		<path fill="#FFFFFF" d="M228.2,49.4c-0.4-1.6-2-2.7-3.7-2.3c-1.7,0.4-2.7,2-2.3,3.7c0.4,1.6,2,2.7,3.7,2.3
			C227.6,52.7,228.6,51,228.2,49.4z"/>
		<path fill="#50565F" d="M227.7,49.5c-0.3-1.4-1.7-2.2-3-1.9c-1.4,0.3-2.2,1.7-1.9,3c0.3,1.4,1.7,2.2,3,1.9
			C227.1,52.2,228,50.9,227.7,49.5z"/>
		<path fill="#323032" d="M246.9,54.7c-8.7,2-17.5-3.4-19.5-12.1c-2-8.7,3.4-17.5,12.1-19.5c8.7-2,17.5,3.4,19.5,12.1
			C261.1,43.9,255.6,52.7,246.9,54.7z"/>
		<circle fill="#FFFFFF" cx="243.2" cy="38.9" r="8.8"/>
		<path fill="#FFFFFF" d="M227.4,26.4c0.1,0.3-0.1,0.7-0.4,0.8l-13.1,3.1c-0.3,0.1-0.7-0.1-0.7-0.5l-0.6-2.6
			c-0.1-0.3,0.1-0.7,0.4-0.8l13.1-3.1c0.3-0.1,0.7,0.1,0.7,0.5L227.4,26.4z"/>
		<path fill="#50565F" d="M229.6,17.5c-0.1-0.4-0.4-1-1.2-1c-0.1,0-0.2,0-0.4,0l-0.1,0l-0.2-0.8c-0.1-0.4-0.4-1.1-1-1.1
			c-0.1,0-0.1,0-0.2,0c-0.6,0.1-1.7,0.4-1.7,0.4s-1.1,0.3-1.7,0.4c-0.2,0.1-0.4,0.2-0.6,0.4c-0.3,0.4-0.1,1-0.1,1.1l0.2,0.8
			c0,0,0,0-0.1,0c-0.5,0.1-0.7,0.4-0.9,0.6c-0.3,0.4-0.1,0.9-0.1,1l0.3,1.2l0.3,0c0.3,0,0.5-0.1,0.5-0.1c0,0,4.1-0.9,5.9-1.3
			c0.4-0.1,0.8-0.2,1-0.4l0.3-0.1L229.6,17.5z"/>
		<path fill="#FFFFFF" d="M262.5,12.3l-4.8,1.1l-0.7,0.2l-4.8,1.1c-1.4,0.3-2.2,1.7-1.9,3.1l1.1,4.8c0.3,1.4,1.7,2.2,3.1,1.9
			l4.8-1.1l0.7-0.2l4.8-1.1c1.4-0.3,2.2-1.7,1.9-3.1l-1.1-4.8C265.2,12.8,263.9,12,262.5,12.3z"/>
		<path fill="#E4EBEB" d="M262.7,13.1l-4.8,1.1l-0.7,0.2l-4.8,1.1c-0.9,0.2-1.5,1.1-1.3,2.1l1.1,4.8c0.2,0.9,1.1,1.5,2,1.3l4.8-1.1
			l0.7-0.2l4.8-1.1c0.9-0.2,1.5-1.1,1.3-2.1l-1.1-4.8C264.5,13.5,263.6,12.9,262.7,13.1z"/>
		<path fill="#54C4CD" d="M262.8,13.7l-4.8,1.1l-0.7,0.2l-4.8,1.1c-0.6,0.1-0.9,0.7-0.8,1.3l1.1,4.8c0.1,0.6,0.7,0.9,1.3,0.8
			l4.8-1.1l0.7-0.2l4.8-1.1c0.6-0.1,0.9-0.7,0.8-1.3l-1.1-4.8C264,14,263.4,13.6,262.8,13.7z"/>
	</g>
	<g>

			<rect x="479.9" y="135.4" transform="matrix(0.6933 0.7206 -0.7206 0.6933 251.5163 -304.9028)" fill="#FFFFFF" width="8.3" height="15.3"/>
		<g>
			<path fill="#80CDC8" d="M463.8,153.5l8.4,9l26.4-22.9l1.1-0.9l-10.1-10.9L463.8,153.5z M485.6,137.6c0.5-0.5,1.4-0.5,1.9,0.1
				l2.3,2.4c0.5,0.5,0.5,1.4-0.1,1.9l-7,6.5c-0.5,0.5-1.4,0.5-1.9-0.1l-2.3-2.4c-0.5-0.5-0.5-1.4,0.1-1.9L485.6,137.6z"/>

				<rect x="482" y="138.2" transform="matrix(0.6807 0.7325 -0.7325 0.6807 259.4108 -308.8381)" fill="#50565F" width="4.1" height="10"/>
			<g>
				<path fill="#323032" d="M508.4,135.1l-0.3-0.3v0l0,0l-2.3-2.4v0h0l0,0l-2.3-2.4l0,0l0,0l-0.3-0.3l0,0l-2-2.1l0,0l0,0l-0.3-0.3
					l0,0l-2-2.1v0l0,0l-0.3-0.3l0,0l-1.7-1.8h0l-0.3-0.3l0,0l0,0l-2-2.1l0,0l-0.3-0.3v0h0l-1.7-1.9l-0.3,0.4
					c-0.1,0.1-0.2,0.3-0.3,0.4l0-0.2l-0.8,1.4c-0.4,0.6-0.7,1.3-0.9,2l-0.1,0.2h0l0,0.1l-0.1,0.3h0c-0.2,0.6-0.4,1.3-0.5,1.9l0,0.1
					h0l0,0.1l0,0.2h0l0,0c-0.1,0.7-0.1,1.3-0.1,2l0,0h0l0,0.2l0,0.1h0l0,0.2c0,0.2,0.1,0.4,0.2,0.5l1.5,1.6l0,0.1l0.1,0l0.2,0.2l0,0
					l2,2.1l0,0.1l0.1,0l0.2,0.2v0l2,2.1l0,0.1l0.1,0l0.2,0.2l0,0l1.8,1.9l0,0l0.2,0.2l0,0.1l0.1,0l1.5,1.6c0.1,0.2,0.3,0.3,0.5,0.3
					l0.2,0v0l0.1,0l0.2,0v0l0,0c0.3,0,0.7,0.1,1,0.1l0,0c0.3,0,0.7,0,1,0l0,0v0l0.2,0l0.2,0v0l0.1,0c0.7-0.1,1.3-0.2,2-0.3v0
					l0.3-0.1l0.1,0v0l0.2-0.1c0.7-0.2,1.4-0.5,2-0.8l0.2-0.1l0-0.3l0.5,0l0.1-0.1c0.3-0.2,0.6-0.3,0.8-0.5l0.4-0.3L508.4,135.1
					L508.4,135.1z"/>
				<path fill="#323032" d="M515,127.8L515,127.8c0.1-0.7,0.1-1.4,0.1-2v0h0l0-0.2l0-0.1h0l0-0.1c-0.1-0.7-0.2-1.3-0.3-2h0l-0.1-0.3
					l0,0h0l-0.1-0.2c-0.2-0.6-0.4-1.3-0.7-1.9l-0.7-1.5l0,0.2c-0.2-0.4-0.5-0.8-0.8-1.2l0,0l-0.7-0.7c0,0-0.1-0.1-0.1-0.1
					c0,0-0.1-0.1-0.1-0.1l-0.3-0.3v0l-0.1-0.1l-0.2-0.2v0c-0.4-0.3-0.7-0.6-1.1-0.9l0.2,0l-1.4-0.8c-0.6-0.3-1.2-0.6-1.8-0.9
					l-0.2-0.1l0,0l0,0l-0.3-0.1v0c-0.6-0.2-1.3-0.4-1.9-0.5l-0.1,0v0l-0.1,0l-0.2,0v0l0,0c-0.3,0-0.7-0.1-1-0.1l-0.1,0
					c-0.3,0-0.6,0-0.9,0l0,0v0l-0.2,0l-0.1,0v0l-0.1,0c-0.7,0-1.3,0.2-2,0.3v0l-0.3,0.1l-0.1,0v0l-0.2,0.1c-0.7,0.2-1.3,0.4-2,0.7
					l-1.5,0.7l0.2,0c-0.1,0-0.2,0.1-0.2,0.1l-0.4,0.3l1.6,1.7l0,0l0.2,0.2l0.1,0.1l0,0l2,2.1l0,0l0,0l0.3,0.3l0,0l2,2.1l0,0l0,0
					l0.3,0.3l0,0l2,2.1l0,0l0.1,0.1l0.3,0.3l0,0l2,2.2l0,0l0,0l0.3,0.3h0l2.3,2.5l0,0l0,0l0,0l2.3,2.5v0l0,0l1.6,1.7l0.3-0.4
					c0.1-0.1,0.1-0.2,0.2-0.2l0,0.2l0.8-1.4c0.3-0.6,0.6-1.2,0.9-1.9l0.1-0.2l0,0l0,0l0.1-0.3h0c0.2-0.6,0.3-1.3,0.4-2l0-0.1l0,0
					l0-0.1L515,127.8L515,127.8z"/>
			</g>
			<path fill="#F3D0B4" d="M512,134.2l-17.1-18.4c-0.7-0.8-3.2,1.5-2.5,2.3l17.1,18.4C510.1,137.1,512.6,134.8,512,134.2z"/>

				<rect x="454.1" y="164.2" transform="matrix(-0.6812 -0.7321 0.7321 -0.6812 640.8956 618.9193)" fill="#54C4CD" width="2.1" height="11.4"/>
			<g>
				<polygon fill="#F3D0B4" points="458.1,162.1 463.2,167.6 472.6,162.1 464.3,153.2 				"/>
				<path fill="#F3D0B4" d="M463.1,168.1l-5.5-6l6.7-9.6l8.9,9.6L463.1,168.1z M458.6,162.1l4.7,5.1l8.7-5.1l-7.6-8.2L458.6,162.1z"
					/>
			</g>
			<polygon fill="#54C4CD" points="457.6,164.1 460.1,166.8 461.2,168 462.2,167 458.6,163.2 			"/>
		</g>
	</g>
	<g>
		<path fill="#E2E2E1" d="M532.2,163.5c3.5,7.9,17.2,15.1,39.1,5.5l0,0c0,0,0,0,0,0l0,0l0,0c21.9-9.6,26-24.6,22.5-32.5
			c-3.5-7.9-13.3-15.3-14.4-17.6c-1-2.3,1.1-4.5-1-5.5c-2.1-1-2.4,5.2-7.3,3.2c-4.9-2-9.8-10.3-11.6-14.4c-1.8-4.1-1.7-10,4.1-9.6
			c0,0,2.3-0.1-1.6-3.1c-3.9-3,0.2-6.5-3.7-15.6c-4-9-13.6-16.5-32.4-8.2l0,0l0,0l0,0l0,0C507.1,73.9,506.1,86,510,95
			c4,9,9.3,8.4,8.9,13.3c-0.4,4.9,1.3,3.3,1.3,3.3c3.6-4.5,8.1-0.6,9.9,3.5c1.8,4.1,4.6,13.3,2.8,18.3c-1.8,5-6.6,1-7.3,3.2
			c-0.7,2.2,2.4,2.1,3.4,4.4C530,143.3,528.7,155.6,532.2,163.5z"/>
		<polygon fill="#FFFFFF" points="543.4,125.2 543.8,126 545.5,125.3 552.9,127.1 556.6,120.4 558.3,119.7 557.9,118.8 		"/>
		<g>
			<path fill="#50565F" d="M571.3,122.4c-0.2-0.4-1.4-0.1-1.8-1c-0.4-0.9-0.3-1.5,0.8-2c1.1-0.5,1.9,0.2,2.2,1
				c0.3,0.8,0.9,3.2-1.7,4.3c-3.6,1.6-6.7-2.2-7.6-4.2c0,0-4.5-9.4-5.3-10.3c-0.8-0.9-1.8-2.9-3.6-2.1c-1.8,0.8-0.7,2.1,0.1,2
				c0.4,0,1.1,1.1-0.2,1.7c-1.3,0.6-3.8-2.9-0.3-4.5c3.5-1.6,7.3,5.4,8.6,8.6c1.4,3.1,4,9.7,7.9,8.1
				C572.4,123.4,571.3,122.4,571.3,122.4z"/>
			<path fill="#50565F" d="M537,137.4c-0.2-0.4,0.9-1.1,0.5-2c-0.4-0.9-0.9-1.2-2-0.8c-1.1,0.5-1.1,1.5-0.8,2.3
				c0.3,0.8,1.8,2.8,4.3,1.7c3.6-1.6,3-6.4,2.1-8.5c0,0-3.9-9.7-4-10.9c-0.1-1.2-0.9-3.3,0.9-4c1.8-0.8,2,0.9,1.4,1.4
				c-0.3,0.3,0.1,1.5,1.3,1c1.3-0.6,0.5-4.7-3.1-3.2c-3.6,1.5-0.9,9,0.5,12.2c1.4,3.1,4.4,9.5,0.6,11.4
				C537,138.9,537,137.4,537,137.4z"/>
		</g>
		<polygon fill="#80CDC8" points="500.2,11.9 535.2,102.6 546.9,97.5 504.1,10.2 		"/>
		<g>
			<path fill="#323032" d="M496.5,9.6l0.8-0.3l0.9,2.1L499,11l6.2,16.6l1.4-0.6l-5.2-15.4l0.6-0.3l0.6-0.3l7.8,14.2l1.4-0.6l-8-15.8
				l0.8-0.4l-0.9-2.1l0.8-0.3c0,0,1.4-1.2,0.7-2.8c-0.7-1.5-2.8-0.9-2.8-0.9l-1.2-0.5l-0.9,0.4l-0.7-1.4l-0.6-0.1
				c0,0-0.3-1.2-1.9-0.5c-1.6,0.7-0.9,1.7-0.9,1.7L496,2.4l0.6,1.5l-0.9,0.4l-0.5,1.2c0,0-1.9,1.1-1.2,2.6
				C494.6,9.8,496.5,9.6,496.5,9.6z"/>
			<g>
				<g>
					<g>
						<g>

								<rect x="513.2" y="15.4" transform="matrix(-0.9149 0.4036 -0.4036 -0.9149 991.2688 -174.6111)" fill="#323032" width="1.6" height="3.6"/>
						</g>
						<g>
							<path fill="#323032" d="M514.2,17.1c0.7,1.5,2.4,2.2,3.9,1.5c1.5-0.7,2.2-2.4,1.5-3.9c-0.7-1.5-2.4-2.2-3.9-1.5
								C514.2,13.8,513.5,15.6,514.2,17.1z"/>
						</g>
						<g>

								<rect x="508.6" y="17.6" transform="matrix(-0.9158 0.4017 -0.4017 -0.9158 986.482 -169.9244)" fill="#323032" width="4.9" height="1.7"/>
						</g>
					</g>
					<g>
						<g>

								<rect x="510" y="8" transform="matrix(-0.9164 0.4002 -0.4002 -0.9164 982.8072 -185.7099)" fill="#323032" width="1.6" height="3.6"/>
						</g>
						<g>
							<path fill="#323032" d="M510.9,9.7c0.7,1.5,2.4,2.2,3.9,1.5c1.5-0.7,2.2-2.4,1.5-3.9c-0.7-1.5-2.4-2.2-3.9-1.5
								C511,6.4,510.3,8.2,510.9,9.7z"/>
						</g>
						<g>

								<rect x="505.4" y="10.2" transform="matrix(-0.9158 0.4017 -0.4017 -0.9158 977.2985 -182.7991)" fill="#323032" width="4.9" height="1.7"/>
						</g>
					</g>
					<g>
						<g>

								<rect x="498.8" y="26.1" transform="matrix(0.9161 -0.4011 0.4011 0.9161 30.7597 202.7174)" fill="#323032" width="1.6" height="3.6"/>
						</g>
						<g>
							<path fill="#323032" d="M499.5,27.9c0.7,1.5,0,3.3-1.5,3.9c-1.5,0.7-3.3,0-3.9-1.5c-0.7-1.5,0-3.3,1.5-3.9
								C497.1,25.8,498.8,26.4,499.5,27.9z"/>
						</g>
						<g>

								<rect x="500.2" y="25.7" transform="matrix(0.9159 -0.4013 0.4013 0.9159 31.5852 203.9409)" fill="#323032" width="4.9" height="1.7"/>
						</g>
					</g>
					<g>
						<g>

								<rect x="495.8" y="18.6" transform="matrix(0.9161 -0.4009 0.4009 0.9161 33.4685 200.7825)" fill="#323032" width="1.6" height="3.5"/>
						</g>
						<g>
							<path fill="#323032" d="M496.4,20.5c0.7,1.5,0,3.3-1.5,3.9c-1.5,0.7-3.3,0-3.9-1.5c-0.7-1.5,0-3.3,1.5-3.9
								C494,18.3,495.8,19,496.4,20.5z"/>
						</g>
						<g>

								<rect x="497.1" y="18.3" transform="matrix(0.9158 -0.4017 0.4017 0.9158 34.401 202.2742)" fill="#323032" width="4.9" height="1.7"/>
						</g>
					</g>
				</g>
			</g>
		</g>
		<g>
			<polygon fill="#FFFFFF" points="564,139.5 550.8,111.2 537.7,82.8 524.6,54.3 511.6,25.9 524.8,54.3 537.9,82.7 551,111.1 			"/>
			<polygon fill="#FFFFFF" points="563.8,139.7 550.6,111.3 537.4,82.9 524.4,54.5 511.3,26 511.8,25.8 525,54.2 538.2,82.6
				551.2,111 564.3,139.4 			"/>
		</g>
		<g>
			<polygon fill="#FFFFFF" points="561.1,140.8 548.3,112.3 535.5,83.7 522.8,55.1 510.1,26.5 522.9,55.1 535.7,83.6 548.4,112.2
							"/>
			<polygon fill="#FFFFFF" points="560.8,140.9 560.8,140.9 548,112.4 535.2,83.8 522.5,55.2 509.9,26.6 510.3,26.4 510.3,26.4
				523.2,55 536,83.5 548.7,112.1 561.3,140.7 			"/>
		</g>
		<g>
			<polygon fill="#FFFFFF" points="554.5,143.7 542.5,114.8 530.5,85.9 518.6,57 506.8,28 518.8,56.9 530.8,85.8 542.7,114.7 			"/>
			<polygon fill="#FFFFFF" points="554.8,143.6 554.3,143.8 542.3,114.9 530.3,86 518.4,57.1 506.5,28.1 507,27.9 519,56.8
				531,85.7 542.9,114.6 			"/>
		</g>
		<g>
			<polygon fill="#FFFFFF" points="558.2,142.1 545.6,113.4 533.1,84.8 520.6,56.1 508.2,27.4 520.8,56 533.3,84.7 545.8,113.4
				"/>
			<polygon fill="#FFFFFF" points="558.4,142 558,142.2 545.4,113.6 532.8,84.9 520.4,56.2 508,27.5 508.4,27.3 521,55.9
				533.6,84.6 546,113.3 			"/>
		</g>
		<path fill="#50565F" d="M560,154.4c2.9,4.3,7,15,7.6,15.7c0.5,0.7,0.9,1,4-0.4c3.1-1.4,3.1-1.8,3-2.7c-0.1-0.9-5.2-11.1-6.4-16.2
			c-1.2-5.1-3.3-14.6-3.9-15.3l-6.4,2.8l-6.4,2.8C551.5,142.1,557.1,150.1,560,154.4z"/>
	</g>
	<g>
		<path fill="#54C4CD" d="M742.8,50.7l-2.7,14.3l0.8,0.4l0.6-3.4l1.6,0.9l-1.1,3.2l0.7,0.4l1.1-3.2l1.6,0.9l-1.4,3l0.7,0.4l1.4-3
			l1.5,0.9l-1.8,2.8l0.7,0.4l1.8-2.8l1.5,0.9l-2.2,2.6l0.7,0.4l2.2-2.6l1.3,0.7l-2.6,2.3l0.7,0.4l10.8-9.7L763,61l6.2-5.1l-2.2-0.3
			l0.1-2.2l-6.2,5.1l-0.5,2l-1.4,1.3l-2.4-1.4l1.8-2.2l2.1-0.4l5.4-6l-2.2,0l-0.2-2.2l-5.4,6l-0.2,2.1l-1.9,2.3l-2.5-1.4l1.8-2.8
			l2-0.7l4.5-6.6l-2.2,0.3l-0.5-2.2l-4.5,6.6l0.1,2.1l-1.9,2.9l-2.6-1.5l1.5-3.1l1.8-1l3.4-7.3l-2.1,0.6l-0.9-2.1l-3.4,7.3l0.4,2.1
			l-1.4,3.1l-2.5-1.5l1-2.9l1.7-1.2l2.5-7.6l-2,0.9l-1.1-1.9l-2.5,7.6l0.7,2l-0.9,2.7l-2.7-1.6l0.4-1.9l1.5-1.5l1.3-7.9l-1.9,1.2
			l-1.4-1.7l-1.3,7.9L742.8,50.7z M755.9,61.1l2.3,1.3l-2.2,2l-2-1.1L755.9,61.1z M755.3,65.1l-2.6,2.3l-1.4-0.8l2.2-2.6L755.3,65.1
			z M752.8,59.3l2.4,1.4l-1.9,2.2l-2.1-1.2L752.8,59.3z M750.7,62.5l2,1.1l-2.2,2.6l-1.6-0.9L750.7,62.5z M748.2,64.8l-1.6-0.9
			l1.4-3l2,1.2L748.2,64.8z M752.1,58.9l-1.6,2.4l-2.2-1.2l1.2-2.6L752.1,58.9z M745.9,63.5l-1.7-1l1.1-3.2l2.1,1.2L745.9,63.5z
			 M748.9,57l-1.2,2.6l-2.2-1.2l0.9-2.8L748.9,57z M744.5,58.9l-1.1,3.2l-1.7-1l0.6-3.4L744.5,58.9z M745.7,55.2l-0.9,2.7l-2.3-1.3
			l0.6-3L745.7,55.2z"/>
		<g>
			<path fill="#EBB65C" d="M739.5,76.5l0.8,0.5c2.6,1.5,5.9,0.5,7.5-2.2l1.2-2l-10.2-5.8l-1.2,2C736.1,71.6,736.9,75,739.5,76.5z"/>

				<rect x="738.7" y="67.5" transform="matrix(0.8669 0.4984 -0.4984 0.8669 133.3145 -361.921)" fill="#50565F" width="11.7" height="2.5"/>
		</g>
	</g>
	<path fill-rule="evenodd" clip-rule="evenodd" fill="#54C4CD" d="M578.8,25.6l0.6,2.9l-0.9,0.6C578.3,27.9,578.4,26.7,578.8,25.6"
		/>
	<g>
		<g>
			<path fill="#59524F" d="M558.3,18.9L558.3,18.9C558.3,18.9,558.3,18.9,558.3,18.9C558.3,18.9,558.3,18.9,558.3,18.9z"/>
		</g>
		<g>
			<path fill="#59524F" d="M536.2,8.4C536.1,8.4,536.1,8.4,536.2,8.4C536.1,8.4,536.1,8.4,536.2,8.4L536.2,8.4z"/>
		</g>
		<g>
			<path fill="#50565F" d="M539.1,37.5c1.2-2.5,2.1-5,2.8-7.4l-4.1-1.9c-1.4,2.1-2.8,4.4-3.9,6.8c-1.6,3.4-2.1,7.2-2.8,8.7
				c-0.7,1.6-2.7,2.3-3.2,3.5c-0.8,1.8-0.3,3.9,1.3,4.6c1.6,0.7,3.5-0.1,4.4-1.9c0.5-1.1,0-3.2,0.7-4.7
				C534.9,43.9,537.5,40.9,539.1,37.5z M529.9,50c-0.6-0.3-0.8-1.1-0.5-1.7c0.3-0.7,1.1-1,1.7-0.7c0.6,0.3,0.8,1.1,0.5,1.7
				C531.3,49.9,530.5,50.2,529.9,50z"/>
		</g>
		<g>
			<path fill="#F3D0B4" d="M557.1,10.2l-13.5-6.4c-2.9,0.6-5.5,2.2-7.5,4.5l22.2,10.5C558.9,15.9,558.5,12.8,557.1,10.2z M554,10.4
				c0.4,0.2,0.6,0.7,0.4,1.1c-0.2,0.4-0.7,0.6-1.1,0.4c-0.4-0.2-0.6-0.7-0.4-1.1C553.1,10.4,553.6,10.2,554,10.4z M549.5,8.3
				c0.4,0.2,0.6,0.7,0.4,1.1c-0.2,0.4-0.7,0.6-1.1,0.4c-0.4-0.2-0.6-0.7-0.4-1.1C548.6,8.3,549.1,8.1,549.5,8.3z M545.1,6.2
				c0.4,0.2,0.6,0.7,0.4,1.1c-0.2,0.4-0.7,0.6-1.1,0.4C544,7.5,543.8,7,544,6.6C544.2,6.2,544.7,6,545.1,6.2z M541,9.6l-2.2-1l2-1.4
				l2-1.4l0.2,2.4l0.2,2.4L541,9.6z M545.5,11.7l-2.2-1l2-1.4l2-1.4l0.2,2.4l0.2,2.4L545.5,11.7z M549.9,13.8l-2.2-1l2-1.4l2-1.4
				l0.2,2.4l0.2,2.4L549.9,13.8z M552.1,14.8l2-1.4l2-1.4l0.2,2.4l0.2,2.4l-2.2-1L552.1,14.8z"/>
		</g>
		<g>
			<path fill="#59524F" d="M556.3,23.7c0,0.1-0.1,0.1-0.1,0.2C556.2,23.9,556.2,23.8,556.3,23.7z"/>
		</g>
		<g>
			<path fill="#59524F" d="M533.4,14.4L533.4,14.4C533.4,14.4,533.4,14.4,533.4,14.4C533.4,14.4,533.4,14.4,533.4,14.4z"/>
		</g>
		<g>
			<path fill="#59524F" d="M533.4,14.3c0-0.3,0.1-0.5,0.2-0.8C533.5,13.8,533.5,14.1,533.4,14.3z"/>
		</g>
		<g>
			<path fill="#EBB65C" d="M535.3,23.9L535.3,23.9c0.1,0.1,0.1,0.2,0.2,0.3c0,0,0,0,0,0l5,2.4l1.1,0.5l5,2.4c0,0,0,0,0,0
				c0.2,0,0.4-0.1,0.7-0.1h0c3.1-0.4,6.1-2,8.2-4.5l-22-10.4C532.8,17.8,533.5,21.2,535.3,23.9z M537,23.3c-0.4-0.2-0.6-0.7-0.4-1.1
				c0.2-0.4,0.7-0.6,1.1-0.4c0.4,0.2,0.6,0.7,0.4,1.1C537.9,23.3,537.4,23.5,537,23.3z M541.5,25.4c-0.4-0.2-0.6-0.7-0.4-1.1
				c0.2-0.4,0.7-0.6,1.1-0.4c0.4,0.2,0.6,0.7,0.4,1.1C542.4,25.4,541.9,25.6,541.5,25.4z M545.9,27.5c-0.4-0.2-0.6-0.7-0.4-1.1
				c0.2-0.4,0.7-0.6,1.1-0.4c0.4,0.2,0.6,0.7,0.4,1.1C546.8,27.5,546.3,27.7,545.9,27.5z M550.6,23.8l2.2,1l-2,1.4l-2,1.4l-0.2-2.4
				l-0.2-2.4L550.6,23.8z M546.1,21.7l2.2,1l-2,1.4l-2,1.4l-0.2-2.4l-0.2-2.4L546.1,21.7z M541.7,19.6l2.2,1l-2,1.4l-2,1.4l-0.2-2.4
				l-0.2-2.4L541.7,19.6z M539.5,18.6l-2,1.4l-2,1.4l-0.2-2.4l-0.2-2.4l2.2,1L539.5,18.6z"/>
		</g>
		<g>
			<path fill="#59524F" d="M555.4,24.8C555.5,24.8,555.5,24.8,555.4,24.8C555.5,24.8,555.4,24.8,555.4,24.8L555.4,24.8z"/>
		</g>
		<g>
			<path fill="#54C4CD" d="M551.4,4.8c-2.1-1-4.3-1.5-6.4-1.6l11.7,5.5C555.3,7.1,553.5,5.8,551.4,4.8z"/>
		</g>
		<g>
			<g>
				<polygon fill="#50565F" points="535.9,20.3 538.4,18.6 535.7,17.4 				"/>
			</g>
			<g>
				<polygon fill="#50565F" points="542.8,20.7 540.1,19.5 540.4,22.4 				"/>
			</g>
			<g>
				<polygon fill="#50565F" points="547.2,22.8 544.6,21.6 544.8,24.5 				"/>
			</g>
			<g>
				<polygon fill="#50565F" points="551.7,25 549,23.7 549.2,26.6 				"/>
			</g>
			<g>
				<polygon fill="#50565F" points="539.9,8.4 542.6,9.7 542.3,6.8 				"/>
			</g>
			<g>
				<polygon fill="#50565F" points="544.4,10.5 547,11.8 546.8,8.9 				"/>
			</g>
			<g>
				<polygon fill="#50565F" points="548.8,12.6 551.5,13.9 551.2,11 				"/>
			</g>
			<g>
				<polygon fill="#50565F" points="555.7,13.1 553.2,14.7 555.9,16 				"/>
			</g>
		</g>
		<g>
			<path fill="#54C4CD" d="M541.7,28.5l-2.4-1.2l-3.8-1.8c0,0,0-0.1,0-0.1l0,0c0.1,0.7,0.2,1.4,0.2,2.1c0,0,0,0,0,0l2.4,1.1l3.4,1.6
				l2.3,1.1c0.3-0.2,0.5-0.4,0.8-0.6c0,0,0,0,0,0c0.3-0.2,0.5-0.3,0.8-0.5c0,0,0,0,0,0L541.7,28.5z"/>
		</g>
		<g>
			<path fill="#54C4CD" d="M557.6,21.2c0-0.1,0.1-0.1,0.1-0.2c0.1-0.2,0.1-0.3,0.2-0.5c0-0.1,0-0.1,0.1-0.2c0-0.1,0.1-0.3,0.1-0.4
				L535.5,9.3c-0.1,0.1-0.2,0.2-0.2,0.3c0,0.1-0.1,0.1-0.1,0.2c-0.1,0.2-0.2,0.3-0.3,0.5c0,0.1-0.1,0.1-0.1,0.2
				c-0.1,0.2-0.2,0.4-0.3,0.7c-0.1,0.3-0.2,0.5-0.4,0.8c-0.1,0.2-0.1,0.3-0.2,0.5c0,0.1-0.1,0.2-0.1,0.4c-0.1,0.2-0.1,0.4-0.2,0.7
				c0,0,0,0,0,0.1L556,24.1c-0.2,0.2-0.3,0.5-0.5,0.7c0.2-0.3,0.5-0.6,0.7-0.9c0,0.1-0.1,0.1-0.1,0.2c0.1-0.2,0.2-0.3,0.4-0.5
				c0,0-0.1,0.1-0.1,0.2c0.2-0.3,0.4-0.6,0.6-1c0,0,0,0,0,0c0.1-0.3,0.3-0.5,0.4-0.8C557.4,21.7,557.5,21.5,557.6,21.2z M536.3,13.6
				c-0.7-0.3-1-1.1-0.6-1.8c0.3-0.7,1.1-1,1.8-0.6c0.7,0.3,1,1.1,0.6,1.8C537.8,13.6,537,13.9,536.3,13.6z M540.7,15.7
				c-0.7-0.3-1-1.1-0.6-1.8c0.3-0.7,1.1-1,1.8-0.6c0.7,0.3,1,1.1,0.6,1.8C542.2,15.7,541.4,16,540.7,15.7z M545.1,17.8
				c-0.7-0.3-1-1.1-0.6-1.8c0.3-0.7,1.1-1,1.8-0.6c0.7,0.3,1,1.1,0.6,1.8C546.5,17.8,545.8,18.1,545.1,17.8z M549.5,19.8
				c-0.7-0.3-1-1.1-0.6-1.8c0.3-0.7,1.1-1,1.8-0.6c0.7,0.3,1,1.1,0.6,1.8C550.9,19.9,550.1,20.2,549.5,19.8z M554,21.9
				c-0.7-0.3-1-1.1-0.6-1.8c0.3-0.7,1.1-1,1.8-0.6c0.7,0.3,0.9,1.1,0.6,1.8C555.5,21.9,554.7,22.2,554,21.9z"/>
		</g>
	</g>
	<g>
		<path fill="#50565F" d="M660.7,49.4c0.1-0.3-0.2-0.7-0.6-0.6c-3.2,1.3-5.4-2.5-8.7-1.8c-1.7,0.4-2.5,2.4-2.9,3.9
			c-0.7,2.5-0.9,5.2-1.6,7.7c-0.1,0.2-0.1,0.5-0.2,0.7c0,0,0,0,0,0c0,0,0,0,0-0.1c-0.8-1.2-2.3-2.4-3.9-2c-1.3,0.3-3,1.4-2.6,2.9
			c0.6,2.9,4.6,4,6.4,1.6c1.9-2.5,2-6,2.5-9.1c0,0,0.1,0,0.2,0c1.4-0.3,3,1.2,4.2,1.7c1.3,0.5,2.4,0.6,3.7,0.2
			C659.4,53.9,660.2,51.3,660.7,49.4z"/>
		<path fill="#50565F" d="M641.6,53.6c-0.8-0.5-1.4-1.2-1.8-2c-0.3-0.5-1.1-0.1-0.8,0.5c0.5,0.9,1.3,1.7,2.2,2.4
			C641.6,54.7,642,53.9,641.6,53.6z"/>
		<path fill="#50565F" d="M637.3,56c-0.6-0.3-1.3-0.5-1.9-0.9c-0.5-0.3-1,0.5-0.5,0.8c0.6,0.3,1.3,0.5,1.9,0.8
			C637.4,57,637.8,56.2,637.3,56z"/>
		<path fill="#50565F" d="M635.4,61c-0.5,0.2-1.1,0.3-1.6,0.6c-0.5,0.3-0.1,1.1,0.5,0.8c0.4-0.2,0.9-0.4,1.3-0.5
			C636.2,61.7,635.9,60.8,635.4,61z"/>
		<path fill="#50565F" d="M655.6,62l-2.6-0.7c-0.6-0.2-0.8,0.7-0.3,0.9l2.6,0.7C656,63.1,656.2,62.2,655.6,62z"/>
		<path fill="#50565F" d="M653.5,65.3c-0.5-0.6-1-1.1-1.7-1.5c-0.5-0.3-1,0.5-0.5,0.8c0.6,0.3,1,0.8,1.5,1.3
			C653.2,66.4,653.9,65.7,653.5,65.3z"/>
		<path fill="#50565F" d="M650.4,68.3c-0.4-0.4-0.6-1-0.9-1.4c-0.2-0.2-0.5-0.2-0.7,0c-0.2,0.2-0.2,0.5,0,0.7c0.4,0.4,0.6,1,0.9,1.4
			c0.2,0.2,0.5,0.2,0.7,0C650.6,68.8,650.5,68.5,650.4,68.3z"/>
	</g>
	<g>
		<path fill-rule="evenodd" clip-rule="evenodd" fill="#323032" d="M580,20.4c15.4-8.2,34.5-2.3,42.7,13.1
			c8.2,15.4,2.3,34.5-13.1,42.7c-15.4,8.2-34.5,2.3-42.7-13.1C558.8,47.8,564.6,28.6,580,20.4"/>
		<path fill-rule="evenodd" clip-rule="evenodd" fill="#FFFFFF" d="M589.4,38.1c5.7-3,12.7-0.9,15.7,4.8c3,5.7,0.9,12.7-4.8,15.7
			c-5.7,3-12.7,0.9-15.7-4.8C581.6,48.1,583.7,41.1,589.4,38.1"/>
		<path fill-rule="evenodd" clip-rule="evenodd" fill="#50565F" d="M594.1,46.9c0.8-0.4,1.8-0.1,2.2,0.7c0.4,0.8,0.1,1.8-0.7,2.2
			c-0.8,0.4-1.8,0.1-2.2-0.7C593,48.3,593.3,47.3,594.1,46.9"/>
		<path fill-rule="evenodd" clip-rule="evenodd" fill="#54C4CD" d="M585.9,43.9l0.3,3.8l-1.2,0.7C584.9,46.8,585.2,45.3,585.9,43.9"
			/>
		<path fill-rule="evenodd" clip-rule="evenodd" fill="#54C4CD" d="M588.2,40.7l0.4,5.6l-1.3,0.7l-0.3-5
			C587.4,41.6,587.8,41.1,588.2,40.7"/>
		<path fill-rule="evenodd" clip-rule="evenodd" fill="#54C4CD" d="M590.7,39.1l0.4,5.9l-1.3,0.7l-0.4-5.9c0.2-0.1,0.4-0.3,0.7-0.4
			C590.3,39.3,590.5,39.2,590.7,39.1"/>
		<path fill-rule="evenodd" clip-rule="evenodd" fill="#54C4CD" d="M593.3,38.4l0.4,5.3l-1.3,0.7l-0.4-5.7
			C592.4,38.5,592.9,38.4,593.3,38.4"/>
		<path fill-rule="evenodd" clip-rule="evenodd" fill="#54C4CD" d="M595.9,38.3l0.3,4l-1.3,0.7l-0.3-4.7
			C595,38.3,595.5,38.3,595.9,38.3"/>
		<path fill-rule="evenodd" clip-rule="evenodd" fill="#54C4CD" d="M598.6,39l0.1,2l-1.3,0.7l-0.2-3.1
			C597.7,38.7,598.1,38.9,598.6,39"/>
		<path fill-rule="evenodd" clip-rule="evenodd" fill="#54C4CD" d="M600.5,40.1l-0.5,0.3l0-0.6C600.1,39.8,600.3,40,600.5,40.1"/>
	</g>
	<g>
		<path fill="#50565F" d="M59.3,64.5c0.1-0.3-0.2-0.6-0.5-0.5c-2.8,1.1-4.7-2.2-7.6-1.6c-1.5,0.3-2.1,2.1-2.5,3.4
			c-0.6,2.2-0.8,4.5-1.4,6.8c-0.1,0.2-0.1,0.4-0.2,0.6c0,0,0,0,0,0c0,0,0,0,0,0c-0.7-1-2-2.1-3.4-1.8c-1.1,0.2-2.6,1.2-2.3,2.6
			c0.5,2.5,4,3.5,5.6,1.4c1.6-2.2,1.7-5.3,2.2-8c0,0,0.1,0,0.1,0c1.2-0.3,2.6,1.1,3.7,1.5c1.1,0.5,2.1,0.5,3.3,0.2
			C58.2,68.5,58.9,66.2,59.3,64.5z"/>
		<path fill="#50565F" d="M42.6,68.2c-0.7-0.5-1.2-1.1-1.6-1.8c-0.3-0.5-1-0.1-0.7,0.4c0.5,0.8,1.1,1.5,1.9,2.1
			C42.6,69.2,43,68.5,42.6,68.2z"/>
		<path fill="#50565F" d="M38.9,70.2c-0.5-0.3-1.1-0.5-1.6-0.7c-0.5-0.3-0.9,0.5-0.4,0.7c0.5,0.3,1.1,0.5,1.6,0.7
			C38.9,71.2,39.3,70.5,38.9,70.2z"/>
		<path fill="#50565F" d="M37.2,74.6c-0.5,0.2-0.9,0.3-1.4,0.5c-0.5,0.3-0.1,1,0.4,0.7c0.4-0.2,0.8-0.3,1.2-0.5
			C37.9,75.3,37.7,74.5,37.2,74.6z"/>
		<path fill="#50565F" d="M60.4,74.9l-2.3,0.3c-0.5,0.1-0.4,0.9,0.1,0.8l2.3-0.3C61.1,75.6,61,74.8,60.4,74.9z"/>
		<path fill="#50565F" d="M58.5,80c-0.4-0.5-0.9-1-1.4-1.3c-0.5-0.3-0.9,0.4-0.4,0.7c0.5,0.3,0.9,0.7,1.3,1.2
			C58.2,81,58.8,80.5,58.5,80z"/>
		<path fill="#50565F" d="M54.6,82.5c-0.3-0.4-0.5-0.8-0.8-1.2c-0.1-0.2-0.4-0.2-0.6,0c-0.2,0.2-0.2,0.4,0,0.6
			c0.3,0.4,0.5,0.8,0.8,1.2c0.1,0.2,0.4,0.2,0.6,0C54.7,82.9,54.7,82.6,54.6,82.5z"/>
		<path fill="#50565F" d="M58.4,64.7c1.4-0.6-2.1,2.1-2.5,3.4c-0.7,2.2-0.8,4.5-1.4,6.8c-0.1,0.2-0.1,0.4-0.2,0.6c0,0,0,0,0,0
			c0,0,0,0,0,0c-0.7-1-2-2.1-3.4-1.8c-1.1,0.2-2.6,1.2-2.3,2.6c0.5,2.5,4,3.5,5.6,1.4c1.6-2.2,2.2-6.4,2.7-9
			C56.8,68.6,56.3,65.6,58.4,64.7z"/>
	</g>
	<g>
		<g>
			<path fill="#50565F" d="M79.9,172.7c-16.1,0-29.2-13.1-29.2-29.2c0-16.1,13.1-29.2,29.2-29.2c16.1,0,29.2,13.1,29.2,29.2
				C109.1,159.6,96,172.7,79.9,172.7L79.9,172.7z M79.9,116.7c-14.8,0-26.8,12-26.8,26.8c0,14.8,12,26.8,26.8,26.8
				c14.8,0,26.8-12,26.8-26.8C106.7,128.8,94.7,116.7,79.9,116.7L79.9,116.7z"/>
		</g>
		<g>
			<path fill="#54C4CD" d="M79.9,169.8c-14.5,0-26.2-11.8-26.2-26.2c0-14.5,11.8-26.2,26.2-26.2c14.5,0,26.2,11.8,26.2,26.2
				C106.1,158,94.4,169.8,79.9,169.8L79.9,169.8z M79.9,118.5c-13.8,0-25.1,11.2-25.1,25.1c0,13.8,11.2,25.1,25.1,25.1
				c13.8,0,25.1-11.2,25.1-25.1C105,129.7,93.7,118.5,79.9,118.5L79.9,118.5z"/>
		</g>
		<g>
			<path fill="#50565F" d="M170.1,172.7c-16.1,0-29.2-13.1-29.2-29.2c0-16.1,13.1-29.2,29.2-29.2c16.1,0,29.2,13.1,29.2,29.2
				C199.2,159.6,186.2,172.7,170.1,172.7L170.1,172.7z M170.1,116.7c-14.8,0-26.8,12-26.8,26.8c0,14.8,12,26.8,26.8,26.8
				c14.8,0,26.8-12,26.8-26.8C196.9,128.8,184.9,116.7,170.1,116.7L170.1,116.7z"/>
		</g>
		<g>
			<path fill="#54C4CD" d="M170.1,169.8c-14.5,0-26.2-11.8-26.2-26.2c0-14.5,11.8-26.2,26.2-26.2c14.5,0,26.2,11.8,26.2,26.2
				C196.3,158,184.5,169.8,170.1,169.8L170.1,169.8z M170.1,118.5c-13.8,0-25.1,11.2-25.1,25.1c0,13.8,11.2,25.1,25.1,25.1
				c13.8,0,25.1-11.2,25.1-25.1C195.1,129.7,183.9,118.5,170.1,118.5L170.1,118.5z"/>
		</g>
		<path fill="#FFFFFF" d="M171.2,142.4c-7.3-7.1-10.7-18.8-10.9-19.4l-3.9-15.8c0-0.1,0-0.2-0.1-0.3L151.9,89l5.2-3.7
			c0.3-0.2,3.1-2.3,2.3-4.8c-0.8-2.6-4.8-3.7-13-3.7c-0.9,0-1.6,0.7-1.6,1.6c0,0.9,0.7,1.6,1.6,1.6c8.5,0,9.8,1.3,10,1.5
			c0,0.3-0.6,0.9-1.1,1.3l-6.1,4.3c-0.5,0.4-0.8,1-0.6,1.6l2.4,9.8c-1.3,2.2-15.3,25.2-36.8,26l-8.3-37c-0.2-0.8-1-1.4-1.9-1.2
			c-0.8,0.2-1.4,1-1.2,1.9l3.3,14.8l-27.6,39.7c0,0,0,0.1,0,0.1c0,0-0.1,0.1-0.1,0.1c0,0,0,0.1-0.1,0.1c0,0,0,0.1,0,0.1
			c0,0.1,0,0.1,0,0.2c0,0,0,0.1,0,0.1c0,0,0,0,0,0.1c0,0.1,0,0.1,0,0.2c0,0,0,0.1,0,0.1c0,0,0,0.1,0,0.1c0,0,0,0.1,0,0.1
			c0,0,0,0.1,0.1,0.1c0,0,0,0.1,0.1,0.1c0,0,0.1,0.1,0.1,0.1c0,0,0.1,0.1,0.1,0.1c0,0,0.1,0.1,0.1,0.1c0,0,0.1,0.1,0.1,0.1
			c0,0,0,0,0,0c0,0,0.1,0,0.1,0.1c0,0,0.1,0,0.1,0.1c0.1,0,0.2,0.1,0.2,0.1l0,0c0.1,0,0.2,0,0.3,0.1c0,0,0,0,0,0l37.9,3.7
			c0,0,0.1,0,0.1,0c0,0,0,0,0,0h0l0,0c0.1,0,0.2,0,0.3,0c0,0,0,0,0,0c0,0,0,0,0,0c0,0,0,0,0.1,0c0.1,0,0.1,0,0.2-0.1c0,0,0,0,0,0
			c0,0,0.1,0,0.1,0c0,0,0.1,0,0.1-0.1c0,0,0,0,0,0c0,0,0,0,0.1-0.1c0,0,0.1-0.1,0.1-0.1c0,0,0,0,0,0l0,0l35.1-37.7l3.2,13.2
			c0,0,0,0,0,0c0.1,0.5,3.7,13,11.7,20.8c0.3,0.3,0.7,0.4,1.1,0.4c0.4,0,0.8-0.2,1.1-0.5C171.8,144,171.8,143,171.2,142.4z
			 M115.8,145.5l-33.1-3.2l24.4-35.1L115.8,145.5z M118.6,144l-3.7-16.4c9.7-0.5,19.4-5.3,28.1-13.9c4.2-4.2,7.3-8.3,9-11l1,4.2
			L118.6,144z"/>
		<g>
			<path fill="#F3D0B4" d="M114.6,89.1h-13.1c-5.1,0-8.3-4.6-8.4-4.8c-0.6-0.9-0.4-2.1,0.5-2.7c0.9-0.6,2.1-0.4,2.7,0.5
				c0,0.1,2.2,3.1,5.2,3.1h13.1c1.1,0,2,0.9,2,2C116.6,88.2,115.7,89.1,114.6,89.1L114.6,89.1z"/>
		</g>
		<path fill="#50565F" d="M120.1,143.6l3.1-10.1l-2.2-0.7l-3.1,10.1c0,0-0.1,0-0.1,0c-2.4,0-4.3,1.9-4.3,4.3c0,1.5,0.8,2.8,2,3.6
			l-3.1,10.1l2.2,0.7l3.1-10.1c0,0,0.1,0,0.1,0c2.4,0,4.3-1.9,4.3-4.3C122.1,145.7,121.3,144.4,120.1,143.6z"/>
		<g>
			<path fill="#54C4CD" d="M126,134.6h-7.8c-0.8,0-1.4-0.6-1.4-1.4c0-0.8,0.6-1.4,1.4-1.4h7.8c0.8,0,1.4,0.6,1.4,1.4
				C127.3,134,126.7,134.6,126,134.6L126,134.6z"/>
		</g>
		<g>
			<path fill="#54C4CD" d="M117.3,162.7h-7.8c-0.8,0-1.4-0.6-1.4-1.4c0-0.8,0.6-1.4,1.4-1.4h7.8c0.8,0,1.4,0.6,1.4,1.4
				C118.7,162.1,118.1,162.7,117.3,162.7L117.3,162.7z"/>
		</g>
		<path fill="#EBB65C" d="M111.4,140.3c-1.7-16.2-15.2-28.4-31.5-28.4c-17.5,0-31.7,14.2-31.7,31.7c0,0.4,0.4,0.8,0.8,0.8
			c0.4,0,0.8-0.4,0.8-0.8c0-8.7,3.7-16.5,9.6-22l20.2,21.7c0,0,0,0,0,0c0,0,0.1,0,0.1,0.1c0,0,0,0,0,0c0,0,0.1,0,0.1,0l0,0l0,0l0,0
			c0,0,0,0,0,0c0,0,0,0,0,0c0,0,0.1,0,0.1,0c0,0,0,0,0.1,0c0,0,0,0,0,0c0,0,0,0,0,0c0,0,0,0,0-0.1c0,0,0,0,0-0.1c0,0,0,0,0-0.1
			c0,0,0-0.1,0-0.1c0,0,0,0,0,0l-2.6-29.4c0.7,0,1.4-0.1,2.2-0.1c15.5,0,28.3,11.6,29.9,27c0,0.4,0.4,0.7,0.9,0.7
			C111.1,141.2,111.5,140.8,111.4,140.3z M79.4,141.9L60,121.1c4.6-4.1,10.5-6.8,16.9-7.4L79.4,141.9z"/>
		<g>
			<path fill="#54C4CD" d="M117.8,138.5L117.8,138.5c0,0-37.3,0.2-37.4,0.2c-2.4,0-4.3,1.9-4.3,4.3c0,2,1.4,3.7,3.2,4.2
				c0.1,0,36,8.6,36,8.6c0,0,0,0,0,0c0.8,0.2,1.7,0.4,2.5,0.4c4.8,0,8.8-3.9,8.8-8.8C126.5,142.4,122.6,138.5,117.8,138.5z
				 M117.8,154.9c-4.2,0-7.6-3.4-7.6-7.6c0-4.2,3.4-7.6,7.6-7.6l0,0c4.2,0,7.6,3.4,7.6,7.6C125.4,151.5,122,154.9,117.8,154.9z"/>
		</g>
		<g>
			<path fill="#FFFFFF" d="M83.8,142.8c0,1.8-1.5,3.3-3.3,3.3c-1.8,0-3.3-1.5-3.3-3.3c0-1.8,1.5-3.3,3.3-3.3
				C82.3,139.5,83.8,141,83.8,142.8z"/>
		</g>
		<g>
			<path fill="#F3D0B4" d="M146.8,80.4h-10.6c-1.1,0-2-0.9-2-2c0-1.1,0.9-2,2-2h10.6c1.1,0,2,0.9,2,2
				C148.8,79.5,147.9,80.4,146.8,80.4L146.8,80.4z"/>
		</g>
		<path fill="#EBB65C" d="M170.1,113.5c0.4,0,0.8-0.4,0.8-0.8c0-0.4-0.3-0.8-0.8-0.8c-17.4,0-31.6,14.2-31.6,31.6
			c0,0.4,0.4,0.8,0.8,0.8c0.4,0,0.8-0.3,0.8-0.8c0-0.7,0-1.5,0.1-2.2l29.9,2.6c0,0,0,0,0,0l0,0l0,0l0,0c0.1,0,0.1,0,0.2,0
			c0,0,0,0,0,0c0,0,0.1,0,0.1-0.1c0,0,0,0,0,0c0,0,0,0,0,0c0,0,0-0.1,0-0.1c0,0,0,0,0-0.1c0,0,0,0,0,0c0,0,0,0,0,0c0,0,0-0.1,0-0.1
			c0,0,0,0,0-0.1c0,0,0,0,0-0.1c0,0,0,0-0.1-0.1c0,0,0,0,0,0l-23.9-18.2C151.9,118,160.5,113.5,170.1,113.5z M168.8,143l-28.6-2.5
			c0.5-5.6,2.6-10.7,5.8-14.9L168.8,143z"/>
	</g>
	<g>
		<path fill-rule="evenodd" clip-rule="evenodd" fill="#E2E2E1" d="M706.6,92.9l19.9-2.7h10.2c1.1,0,1.9,0.9,1.9,2.1l-8,71.8
			c0,1.2-0.9,2.1-1.9,2.1h-24.4"/>
		<path fill-rule="evenodd" clip-rule="evenodd" fill="#E2E2E1" d="M706.8,92.9l-19.9-2.7h-10.2c-1.1,0-2,0.9-2,2.1l8,71.8
			c0,1.2,0.9,2.1,2,2.1h24.4"/>
		<circle fill-rule="evenodd" clip-rule="evenodd" fill="#50565F" cx="706.3" cy="166.2" r="8.7"/>

			<circle fill-rule="evenodd" clip-rule="evenodd" fill="#F3D0B4" stroke="#F3D0B4" stroke-width="0.8039" stroke-miterlimit="10" cx="706.3" cy="166.2" r="4.3"/>
		<g>
			<path fill-rule="evenodd" clip-rule="evenodd" fill="#80CDC8" d="M740.2,91.7c0,1.1-0.9,2-2,2h-63.8c-1.1,0-2-0.9-2-2v-2.2
				c0-1.1,0.9-2,2-2h63.8c1.1,0,2,0.9,2,2V91.7z"/>
			<path fill-rule="evenodd" clip-rule="evenodd" fill="#80CDC8" d="M735.4,88.4c0,1-0.8,1.8-1.8,1.8H679c-1,0-1.8-0.8-1.8-1.8v-1.9
				c0-1,0.8-1.8,1.8-1.8h54.6c1,0,1.8,0.8,1.8,1.8V88.4z"/>
			<path fill-rule="evenodd" clip-rule="evenodd" fill="#80CDC8" d="M732.3,88c0,1.4-0.7-2-1.6-2h-48.9c-0.9,0-1.6-1.1-1.6-2.5v-2.7
				c0-1.4,0.7-2.5,1.6-2.5l48.9,4.5c0.9,0,1.6,1.1,1.6,2.5V88z"/>
		</g>
		<g>
			<g>
				<path fill-rule="evenodd" clip-rule="evenodd" fill="#FFFFFF" d="M704.1,112.4c1.9,0,3.9,0,5.9,0c0.7,0,1.1,0.4,1.5,1
					c0.5,0.8,0.9,1.5,1.4,2.4c0.5-0.3,1-0.5,1.5-0.8c0,0,0.1,0.1,0.1,0.1c-0.3,0.5-0.5,0.9-0.8,1.4c-0.5,0.9-1,1.8-1.5,2.6
					c-0.1,0.2-0.4,0.4-0.5,0.4c-1.6,0-3.2,0-4.8-0.1c0.4-0.3,0.9-0.6,1.4-0.9c-0.2-0.4-0.5-0.9-0.7-1.3c-0.6-1-1.2-2.1-1.8-3.1
					C705.1,113.5,704.6,112.9,704.1,112.4z"/>
				<path fill-rule="evenodd" clip-rule="evenodd" fill="#FFFFFF" d="M703.2,121c-1.6-0.9-3.2-1.8-4.8-2.8c0.9-1.6,1.7-3.1,2.7-4.6
					c0.8-1.2,2.6-1.1,3.4,0.1c0.5,0.7,0.8,1.4,1.2,2.1c0.1,0.1,0.1,0.4,0,0.5C705,118,704.1,119.5,703.2,121z"/>
			</g>
			<g>
				<path fill-rule="evenodd" clip-rule="evenodd" fill="#FFFFFF" d="M717.6,127.8c-0.9,1.6-1.9,3.4-2.9,5.2
					c-0.3,0.6-0.9,0.8-1.6,0.8c-0.9,0-1.8,0-2.7,0.1c0,0.6,0,1.1,0,1.7c0,0-0.1,0-0.1,0c-0.3-0.5-0.6-0.9-0.8-1.4
					c-0.5-0.9-1.1-1.7-1.6-2.6c-0.1-0.2-0.2-0.5-0.1-0.7c0.7-1.4,1.5-2.8,2.4-4.2c0,0.5,0.1,1,0.1,1.6c0.5,0,1,0,1.5,0
					c1.2,0,2.4,0,3.6-0.1C716.1,128.2,716.9,127.9,717.6,127.8z"/>
				<path fill-rule="evenodd" clip-rule="evenodd" fill="#FFFFFF" d="M710.4,122.8c1.6-1,3.1-1.9,4.7-2.8c0.9,1.6,1.9,3,2.7,4.6
					c0.6,1.3-0.3,2.8-1.8,2.9c-0.8,0.1-1.6,0.1-2.5,0.1c-0.1,0-0.4-0.1-0.4-0.2C712.2,125.9,711.4,124.4,710.4,122.8z"/>
			</g>
			<g>
				<path fill-rule="evenodd" clip-rule="evenodd" fill="#FFFFFF" d="M717.6,127.8c-0.9,1.6-1.9,3.4-2.9,5.2
					c-0.3,0.6-0.9,0.8-1.6,0.8c-0.9,0-1.8,0-2.7,0.1c0,0.6,0,1.1,0,1.7c0,0-0.1,0-0.1,0c-0.3-0.5-0.6-0.9-0.8-1.4
					c-0.5-0.9-1.1-1.7-1.6-2.6c-0.1-0.2-0.2-0.5-0.1-0.7c0.7-1.4,1.5-2.8,2.4-4.2c0,0.5,0.1,1,0.1,1.6c0.5,0,1,0,1.5,0
					c1.2,0,2.4,0,3.6-0.1C716.1,128.2,716.9,127.9,717.6,127.8z"/>
				<path fill-rule="evenodd" clip-rule="evenodd" fill="#FFFFFF" d="M710.4,122.8c1.6-1,3.1-1.9,4.7-2.8c0.9,1.6,1.9,3,2.7,4.6
					c0.6,1.3-0.3,2.8-1.8,2.9c-0.8,0.1-1.6,0.1-2.5,0.1c-0.1,0-0.4-0.1-0.4-0.2C712.2,125.9,711.4,124.4,710.4,122.8z"/>
			</g>
			<g>
				<path fill-rule="evenodd" clip-rule="evenodd" fill="#FFFFFF" d="M697.6,131.6c-0.9-1.6-1.9-3.4-2.9-5.2
					c-0.3-0.6-0.2-1.2,0.2-1.8c0.5-0.8,0.9-1.5,1.4-2.4c-0.5-0.3-1-0.6-1.4-0.9c0,0,0-0.1,0-0.1c0.5,0,1.1,0,1.6,0c1,0,2,0,3.1,0.1
					c0.2,0,0.5,0.1,0.6,0.3c0.8,1.4,1.6,2.8,2.3,4.3c-0.5-0.3-0.9-0.5-1.4-0.8c-0.3,0.4-0.5,0.8-0.8,1.3c-0.6,1-1.3,2-1.8,3.1
					C698.1,130.2,697.9,130.9,697.6,131.6z"/>
				<path fill-rule="evenodd" clip-rule="evenodd" fill="#FFFFFF" d="M705.6,128.2c0,1.9-0.1,3.6-0.1,5.5c-1.8,0-3.6,0-5.3-0.2
					c-1.4-0.1-2.2-1.7-1.5-3c0.4-0.7,0.8-1.4,1.3-2.1c0.1-0.1,0.3-0.2,0.4-0.2C702.1,128.1,703.8,128.2,705.6,128.2z"/>
			</g>
		</g>
	</g>
	<g>
		<path fill="#54C4CD" d="M22.4,152c-4.5-0.8-9.1-4.5-12.4-7.7c-4.7-4.7-9.3-13.2-9.8-19.9c-1.5-19.2,7-33.2,10.5-39.3
			c3.5-6.1,8.5-15.7,16.9-5c7.4,9.5,15.4,24.8,14,40.8c-0.8,9.3-4.7,21.1-10.8,28.2C28.2,151.8,25.3,152.5,22.4,152z"/>
		<path fill="#50565F" d="M34.1,130.4c-0.2-3.3-2.2-2.1-2.6,0c-0.3,1.8-1.2,3.4-3.2,5c-1.6,1.2-3.4,1.4-4.3,1.5
			c-0.1-3.4-0.2-6.9-0.3-10.2c2,0.1,5.6-0.3,7.7-3.9c2.3-4,1.6-6.2,1.1-7.7c-0.5-1.5-2-0.4-2.1,2.2c-0.1,1.9-0.6,6.4-6.7,6.8
			c-0.2-6-0.4-11.6-0.6-16.2c1.2-0.9,4-3.2,4.9-6.2c0.7-2.4-0.1-5-1.3-2.7c-1.1,2.1-2.1,5-3.7,5.5c-0.2-4.7-0.3-7.8-0.4-8.4
			c-0.5-3.3-2.6-2.7-2.7,0.3c0,0.5-0.1,2.8-0.1,6.4c-1.3-0.6-3-2.6-3.9-4c-1.1-1.7-3.3,0.3-1.4,2.6c1.7,2,4.3,4.7,5.2,5.7
			c-0.1,4.1-0.2,9.1-0.2,14.5c-0.6-0.3-1.4-0.8-2.3-1.5c-2-1.7-3.7-6.2-3.7-6.2c-0.8-1.5-1.8-1.9-2.2,0c-0.4,1.8,0.3,3.2,1.7,6.4
			c1.1,2.4,4.6,4.3,6.4,5.1c-0.1,3.9-0.1,8-0.2,12.1c-1.5-0.4-4.8-1.6-5.7-4.5c-1.2-3.7-0.6-5.5-1.8-5.7c-1.2-0.2-1.6,3.3-1.1,6.1
			c0.5,2.8,2.4,5.1,4.8,6.5c1.4,0.8,2.8,1.1,3.8,1.3C19,158,19,173.1,19.4,173.4c1,0.7,4,0.4,5-0.3c0.5-0.3,0.2-15.7-0.3-32.7
			c1.4-0.2,3.5-0.6,5-1.3C31.6,138.2,34.3,133.7,34.1,130.4z"/>
	</g>
	<g>
		<g>
			<path fill="#50565F" d="M635.4,96.7c0,0,14.2,0.3,22-10.8c1.3,3.9,3.7,9.7,15.5,14.2l3.7-3.5l-17.1-18.4c0,0-23.6,4.1-32.1,6.4
				C629.1,86.1,634.5,89.9,635.4,96.7z"/>
			<path fill="#F3D0B4" d="M676.6,97c0,0,10.8,10.8,11.6,14.4c0.8,3.7-2.5-1.8-4.3-2.6c-1.8-0.8-6.6-3.5-7.9-4
				c-1.3-0.5-0.9-3-0.7-3.8c0.3-0.8-1.2-2-1.2-2l2.5-2.4"/>
		</g>
		<path fill="#F3D0B4" d="M629.5,171c0,0,4.1-0.9,8.1,1.3c4.1,2.2,1,2.9-0.8,2.2c-1.8-0.7-9.4-1-9.4-1L629.5,171z"/>
		<path fill="#F3D0B4" d="M636.2,136.6c10.2,1.3,8.9-10.8,8.9-10.8c2.7,1.6,2.1,0,1.6-1.5c-0.6-2-1.6-1.8-1.6-1.8
			c-0.7-6.3-6.8-6.3-6.8-6.3s-9,3.7-9.1,9.2c0,5.4-4.5,8.4-2.8,9.6C628.2,136.2,636.2,136.6,636.2,136.6z"/>
		<path fill="none" stroke="#323032" stroke-width="0.8397" stroke-miterlimit="10" d="M639.9,124.4c0,0,3.3,2.5,3.3-1.4"/>
		<circle fill="#E79B96" cx="637.5" cy="129.8" r="2.4"/>
		<path fill="#E79B96" d="M642.5,130.7c0,0,2.1-0.4,2.4-1.4c0.3-0.9,1.1,1.3,0.5,1.7c-0.6,0.4,0.2-0.5,0.1,0.5
			c-0.1,1-0.8,1.4-1.9,0.3C642.5,130.7,642.5,130.7,642.5,130.7z"/>
		<path fill="#54C4CD" d="M628.2,83.6c0,0-21.3,3-27.9,15.3c-6.7,12.3-8.9,41.3,26.5,42.9c-0.4,11,0.8,31.7,0.8,31.7
			s2.4-2.6,2.8-2.5c0.4,0.1,5.9-34.5,5.9-34.5s-0.4-6.4-4.5-3.8c-3.4,2.2-3.5-2.9-3.5-2.9s-13.9-2.7-14.2-14.5
			c-0.1-3.9,2-10.5,5.4-10.5c3.4,0,8.8,1.1,11.4-1c2.6-2.1,5.4-7.3,5.4-7.3S639.4,86.9,628.2,83.6z"/>
		<path fill="#323032" d="M634.4,116.9c0,3.5-2.8,6.3-6.3,6.3c-3.5,0-6.3-2.8-6.3-6.3c0-3.5,2.8-6.3,6.3-6.3
			C631.5,110.6,634.4,113.4,634.4,116.9z"/>
		<path fill="#323032" d="M627.1,123.2c0.1-0.8-4.9,4.4,0.9,8.5c1.6,1.1,1.7-2.9,1.7-6.4c0-3.5,4.9,1.1,5.4-1.3
			c1.5-6.3,9.9-1.9,8-6.6c-0.6-1.6-5.6-7.7-11.2,0.5"/>
	</g>
	<circle fill="#50565F" cx="84.6" cy="95.7" r="2"/>
	<path fill="#50565F" d="M723.5,61.3c0,1.1-0.9,2-2,2c-1.1,0-2-0.9-2-2c0-1.1,0.9-2,2-2C722.6,59.3,723.5,60.2,723.5,61.3z"/>
	<circle fill="#50565F" cx="656" cy="152.6" r="2"/>
	<polygon fill="#F3D0B4" points="73.6,91.5 77.2,89.2 77.3,93.5 77.5,97.8 73.7,95.8 69.9,93.7 	"/>
	<g>
		<path fill="#54C4CD" d="M45.3,170.3c0,1.1-0.9,2-2,2c-1.1,0-2-0.9-2-2c0-1.1,0.9-2,2-2C44.4,168.2,45.3,169.1,45.3,170.3z"/>
		<polygon fill="#50565F" points="41.4,159.4 44.3,162.5 40.1,163.4 36,164.3 37.3,160.3 38.6,156.2 		"/>
	</g>
	<polygon fill="#50565F" points="657.8,139 661.7,137.3 661.2,141.6 660.7,145.8 657.3,143.2 653.9,140.7 	"/>
	<path fill="#50565F" d="M570.9,16.3c0,1.1-0.9,2-2,2c-1.1,0-2-0.9-2-2c0-1.1,0.9-2,2-2C570,14.3,570.9,15.2,570.9,16.3z"/>
	<polygon fill="#F3D0B4" points="787.6,80.8 790.8,83.6 786.8,85 782.7,86.4 783.5,82.2 784.3,78 	"/>
	<polygon fill="#E79B96" points="484,164.9 488.2,165.6 485.5,168.9 482.8,172.3 481.3,168.2 479.8,164.2 	"/>
	<polygon fill="#F3D0B4" points="255.7,156.6 259.9,157.3 257.2,160.6 254.4,163.9 252.9,159.9 251.4,155.9 	"/>
	<g>
		<path fill-rule="evenodd" clip-rule="evenodd" fill="#54C4CD" d="M402,33.4c1.2,0,1.9,0.1,3.1,0.3c2.5,0.5,4.8,1.5,6.9,2.9
			c2.3,1.6,4,3.7,5,6.3c0.8,2,1.1,4.1,1.1,6.2c0,0.3,0,0.7,0,1c0,1-0.2,2.1-0.4,3.1c-0.4,2.3-1.3,4.5-2.4,6.5
			c-0.7,1.2-1.5,2.4-2.2,3.6c-0.5,0.9-1,1.8-1.3,2.7c-0.4,1.3-0.5,2.7-0.6,4.1c-0.1,0.6-0.2,1.3-0.4,1.9c-0.4,1.2-1.2,1.6-2.2,1.6
			h-12.9c-1,0-1.8-0.4-2.2-1.6c-0.2-0.6-0.3-1.3-0.4-1.9c-0.2-1.4-0.3-2.8-0.6-4.1c-0.3-1-0.8-1.9-1.3-2.7c-0.7-1.2-1.5-2.4-2.2-3.6
			c-1.2-2-2-4.2-2.4-6.5c-0.2-1-0.3-2-0.4-3.1c0-0.3,0-0.7,0-1c0-2.1,0.3-4.2,1.1-6.2c1-2.6,2.7-4.7,5-6.3c2.1-1.5,4.4-2.4,6.9-2.9
			C400.2,33.5,400.9,33.4,402,33.4"/>
		<g>
			<path fill="#FFFFFF" d="M402,48.8c0.4,0.4,0.7,0.8,0.9,1.3c0.3,0.5,0.4,1,0.5,1.5c0.1,0.5,0.2,1.1,0.1,1.6c0,0.5-0.1,1-0.3,1.5
				c-0.2,0.5-0.5,0.9-0.8,1.3c-0.3,0.3-0.7,0.5-1.1,0.6l-2.2,0.5l3.7,17.5c0,0.2,0,0.4-0.1,0.5c-0.1,0.2-0.3,0.3-0.4,0.3
				c-0.2,0-0.4,0-0.5-0.1c-0.2-0.1-0.3-0.3-0.3-0.4L396,49.3c-0.1-0.3,0-0.5,0.2-0.7c0.1-0.1,0.2-0.2,0.3-0.2l2.9-0.6
				c0.4-0.1,0.8,0,1.3,0.1C401.2,48.1,401.6,48.4,402,48.8z M401.9,54.2c0.1-0.3,0.2-0.7,0.2-1.1c0-0.4,0-0.8-0.1-1.2
				c-0.1-0.4-0.2-0.8-0.4-1.1c-0.2-0.4-0.4-0.7-0.7-0.9c-0.2-0.2-0.4-0.4-0.6-0.5c-0.2-0.1-0.4-0.1-0.6-0.1l-2.2,0.5l1.3,6l2.2-0.5
				c0.2,0,0.3-0.1,0.5-0.3C401.7,54.7,401.8,54.5,401.9,54.2z"/>
			<path fill="#FFFFFF" d="M409.5,57.1c0.2,0.5,0.3,1,0.4,1.5c0.1,0.5,0.1,1.1,0,1.6c-0.1,0.5-0.2,1.1-0.5,1.6
				c-0.2,0.5-0.5,0.9-0.8,1.3c-0.4,0.4-0.8,0.7-1.2,0.9c-0.4,0.2-0.9,0.3-1.3,0.2l-2.2-0.3l-2.7,17.7c0,0.2-0.1,0.4-0.3,0.5
				c-0.2,0.1-0.3,0.2-0.5,0.1c-0.2,0-0.3-0.1-0.5-0.3c-0.1-0.2-0.2-0.3-0.1-0.5l3.9-25.9c0-0.3,0.2-0.5,0.4-0.6
				c0.1-0.1,0.2-0.1,0.4-0.1l2.9,0.4c0.4,0.1,0.8,0.3,1.2,0.6C409,56.1,409.2,56.5,409.5,57.1z M407.5,62.1c0.2-0.3,0.4-0.6,0.6-1
				c0.2-0.4,0.3-0.8,0.3-1.2c0.1-0.4,0.1-0.8,0-1.2c0-0.4-0.1-0.8-0.3-1.1c-0.1-0.3-0.3-0.5-0.4-0.7c-0.2-0.2-0.3-0.3-0.5-0.3
				l-2.2-0.3l-0.9,6.1l2.2,0.3c0.2,0,0.4,0,0.6-0.1C407.1,62.5,407.3,62.3,407.5,62.1z"/>
		</g>
		<path fill-rule="evenodd" clip-rule="evenodd" fill="#54C4CD" d="M395.2,80.5c-0.5,0-0.8-0.3-0.8-0.8c0-0.4,0.3-0.8,0.8-0.8
			c0.9-0.1,1.7-0.2,2.6-0.2c0.7-0.1,1.4-0.1,2.1-0.2c0.7-0.1,1.5-0.1,2.2-0.2c0.7-0.1,1.4-0.1,2.1-0.2c0.7-0.1,1.5-0.1,2.2-0.2
			c0.7-0.1,1.4-0.1,2.1-0.2c0.2,0,0.4,0,0.6,0c0.4,0,0.7,0.3,0.8,0.7c0,0.4-0.2,0.8-0.6,0.8c-0.3,0.1-0.7,0.1-1,0.1
			c-0.7,0.1-1.5,0.1-2.2,0.2c-0.7,0.1-1.4,0.1-2.1,0.2c-0.7,0.1-1.4,0.1-2.2,0.2c-0.7,0.1-1.4,0.1-2.1,0.2c-0.7,0.1-1.5,0.1-2.2,0.2
			C396.6,80.4,395.9,80.5,395.2,80.5z"/>
		<path fill-rule="evenodd" clip-rule="evenodd" fill="#54C4CD" d="M394.3,84.1c0-0.4,0.3-0.8,0.7-0.8c1.4-0.1,2.8-0.2,4.1-0.4
			c1.1-0.1,2.2-0.2,3.3-0.3c1.2-0.1,2.5-0.2,3.7-0.3c0.9-0.1,1.8-0.2,2.7-0.2c0.4,0,0.8,0.3,0.9,0.7c0,0.4-0.2,0.8-0.7,0.9
			c-0.6,0.1-1.2,0.1-1.8,0.2c-0.7,0.1-1.5,0.1-2.2,0.2c-0.7,0.1-1.4,0.1-2.1,0.2c-0.7,0.1-1.5,0.1-2.2,0.2c-0.7,0.1-1.4,0.1-2.1,0.2
			c-0.7,0.1-1.5,0.1-2.2,0.2c-0.4,0-0.8,0.1-1.3,0.1C394.7,84.9,394.3,84.5,394.3,84.1z"/>
		<path fill-rule="evenodd" clip-rule="evenodd" fill="#54C4CD" d="M395.4,82.7c-0.6,0-0.9-0.1-1-0.5c-0.1-0.3,0-0.7,0.3-0.9
			c0.1-0.1,0.3-0.1,0.5-0.1c0.8-0.1,1.7-0.1,2.5-0.2c0.9-0.1,1.7-0.2,2.5-0.2c0.8-0.1,1.7-0.1,2.5-0.2c0.8-0.1,1.7-0.2,2.5-0.2
			c0.8-0.1,1.7-0.1,2.5-0.2c0.3,0,0.7-0.1,1-0.1c0.4,0,0.7,0.1,0.9,0.4c0.2,0.3,0.1,0.6-0.1,0.9c-0.1,0.2-0.3,0.3-0.5,0.3
			c-0.8,0.1-1.6,0.1-2.4,0.2c-0.8,0.1-1.7,0.2-2.5,0.2c-0.7,0.1-1.4,0.1-2.1,0.2c-0.8,0.1-1.7,0.1-2.5,0.2c-0.7,0.1-1.4,0.1-2.1,0.2
			C396.6,82.6,395.9,82.6,395.4,82.7z"/>
		<path fill-rule="evenodd" clip-rule="evenodd" fill="#54C4CD" d="M409.7,76.4c0,0.4-0.3,0.7-0.7,0.8c-1.3,0.1-2.6,0.2-3.9,0.3
			c-1.4,0.1-2.9,0.2-4.3,0.4c-1.2,0.1-2.5,0.2-3.7,0.3c-0.6,0.1-1.3,0.1-1.9,0.2c-0.4,0-0.8-0.3-0.8-0.7c0-0.4,0.3-0.8,0.7-0.9
			c1-0.1,2.1-0.2,3.1-0.3c1-0.1,1.9-0.2,2.9-0.3c0.8-0.1,1.7-0.1,2.5-0.2c1-0.1,2-0.2,2.9-0.3c0.8-0.1,1.6-0.1,2.4-0.2
			C409.4,75.5,409.7,75.9,409.7,76.4z"/>
		<path fill-rule="evenodd" clip-rule="evenodd" fill="#54C4CD" d="M406,86.6c-1,0.9-2,1.8-3.3,2.1c-0.2,0.1-0.4,0.1-0.6,0.1
			c-0.2,0-0.4-0.1-0.6-0.1c-0.8-0.2-1.4-0.6-2.1-1c-0.4-0.3-0.8-0.6-1.2-1c0,0-0.1-0.1-0.1-0.1C400.7,86.6,403.3,86.6,406,86.6z"/>
	</g>
	<g>
		<path fill="#54C4CD" d="M357.3,96.1v1.6h1.1v1.2h-1.1v3.2c0,0.2,0.1,0.4,0.2,0.5s0.2,0.2,0.4,0.2c0.1,0,0.2,0,0.3,0
			c0.1,0,0.2,0,0.3,0l0.1,1.2c-0.2,0.1-0.4,0.1-0.6,0.1c-0.2,0-0.4,0-0.6,0c-0.6,0-1-0.2-1.4-0.5c-0.3-0.3-0.5-0.8-0.5-1.5v-3.2
			h-0.9v-1.2h0.9v-1.6H357.3z"/>
		<path fill="#54C4CD" d="M359.2,103l0.8-0.2v-6.7l-0.9-0.2v-1h2.6v3.6c0.2-0.3,0.4-0.5,0.7-0.7c0.3-0.2,0.6-0.2,1-0.2
			c0.7,0,1.2,0.2,1.6,0.7c0.4,0.4,0.6,1.1,0.6,2v2.6l0.8,0.2v1h-3.3v-1l0.7-0.2v-2.6c0-0.5-0.1-0.8-0.3-1c-0.2-0.2-0.4-0.3-0.8-0.3
			c-0.2,0-0.4,0-0.6,0.1s-0.3,0.2-0.4,0.4v3.4l0.7,0.2v1h-3.3V103z"/>
		<path fill="#54C4CD" d="M369.9,104.2c-0.9,0-1.6-0.3-2.2-0.9c-0.5-0.6-0.8-1.3-0.8-2.2v-0.2c0-0.9,0.3-1.7,0.8-2.3
			c0.5-0.6,1.2-0.9,2.1-0.9c0.9,0,1.5,0.3,2,0.8c0.5,0.5,0.7,1.2,0.7,2.1v0.9h-3.8l0,0c0,0.4,0.2,0.8,0.4,1s0.6,0.4,1,0.4
			c0.4,0,0.7,0,0.9-0.1c0.2-0.1,0.5-0.2,0.8-0.4l0.5,1.1c-0.3,0.2-0.6,0.4-1,0.5C370.9,104.1,370.4,104.2,369.9,104.2z M369.7,98.9
			c-0.3,0-0.6,0.1-0.7,0.4s-0.3,0.6-0.3,1l0,0h2.1v-0.2c0-0.4-0.1-0.7-0.3-0.9S370.1,98.9,369.7,98.9z"/>
		<path fill="#54C4CD" d="M376.1,98.7v-1h2.5l0.1,0.7c0.2-0.3,0.4-0.5,0.7-0.6c0.3-0.1,0.6-0.2,0.9-0.2c0.8,0,1.4,0.3,1.8,0.9
			c0.4,0.6,0.6,1.4,0.6,2.4v0.1c0,0.9-0.2,1.7-0.6,2.3c-0.4,0.6-1,0.9-1.8,0.9c-0.3,0-0.6-0.1-0.9-0.2c-0.3-0.1-0.5-0.3-0.7-0.5v1.8
			l0.8,0.2v1h-3.4v-1l0.8-0.2v-6.4L376.1,98.7z M381,100.9c0-0.6-0.1-1.1-0.3-1.5c-0.2-0.4-0.5-0.6-0.9-0.6c-0.3,0-0.5,0.1-0.7,0.2
			s-0.3,0.3-0.4,0.5v2.8c0.1,0.2,0.2,0.3,0.4,0.4c0.2,0.1,0.4,0.1,0.7,0.1c0.4,0,0.7-0.2,0.9-0.5s0.3-0.8,0.3-1.3V100.9z"/>
		<path fill="#54C4CD" d="M386.5,104.2c-0.9,0-1.6-0.3-2.2-0.9c-0.5-0.6-0.8-1.3-0.8-2.2v-0.2c0-0.9,0.3-1.7,0.8-2.3
			c0.5-0.6,1.2-0.9,2.1-0.9c0.9,0,1.5,0.3,2,0.8c0.5,0.5,0.7,1.2,0.7,2.1v0.9h-3.8l0,0c0,0.4,0.2,0.8,0.4,1s0.6,0.4,1,0.4
			c0.4,0,0.7,0,0.9-0.1c0.2-0.1,0.5-0.2,0.8-0.4l0.5,1.1c-0.3,0.2-0.6,0.4-1,0.5C387.5,104.1,387,104.2,386.5,104.2z M386.3,98.9
			c-0.3,0-0.6,0.1-0.7,0.4s-0.3,0.6-0.3,1l0,0h2.1v-0.2c0-0.4-0.1-0.7-0.3-0.9S386.7,98.9,386.3,98.9z"/>
		<path fill="#54C4CD" d="M389.8,100.8c0-0.9,0.3-1.7,0.8-2.3c0.5-0.6,1.3-0.9,2.2-0.9c0.9,0,1.7,0.3,2.2,0.9
			c0.5,0.6,0.8,1.4,0.8,2.3v0.1c0,1-0.3,1.7-0.8,2.3c-0.5,0.6-1.3,0.9-2.2,0.9c-0.9,0-1.7-0.3-2.2-0.9c-0.5-0.6-0.8-1.4-0.8-2.3
			V100.8z M391.6,100.9c0,0.6,0.1,1,0.3,1.4c0.2,0.3,0.5,0.5,1,0.5c0.4,0,0.8-0.2,1-0.5s0.3-0.8,0.3-1.4v-0.1c0-0.6-0.1-1-0.3-1.4
			c-0.2-0.4-0.5-0.5-1-0.5c-0.4,0-0.8,0.2-1,0.5c-0.2,0.4-0.3,0.8-0.3,1.4V100.9z"/>
		<path fill="#54C4CD" d="M396.4,98.7v-1h2.5l0.1,0.7c0.2-0.3,0.4-0.5,0.7-0.6c0.3-0.1,0.6-0.2,0.9-0.2c0.8,0,1.4,0.3,1.8,0.9
			c0.4,0.6,0.6,1.4,0.6,2.4v0.1c0,0.9-0.2,1.7-0.6,2.3c-0.4,0.6-1,0.9-1.8,0.9c-0.3,0-0.6-0.1-0.9-0.2c-0.3-0.1-0.5-0.3-0.7-0.5v1.8
			l0.8,0.2v1h-3.4v-1l0.8-0.2v-6.4L396.4,98.7z M401.4,100.9c0-0.6-0.1-1.1-0.3-1.5c-0.2-0.4-0.5-0.6-0.9-0.6
			c-0.3,0-0.5,0.1-0.7,0.2s-0.3,0.3-0.4,0.5v2.8c0.1,0.2,0.2,0.3,0.4,0.4c0.2,0.1,0.4,0.1,0.7,0.1c0.4,0,0.7-0.2,0.9-0.5
			s0.3-0.8,0.3-1.3V100.9z"/>
		<path fill="#54C4CD" d="M403.5,95.9v-1h2.6v7.9l0.8,0.2v1h-3.4v-1l0.8-0.2v-6.7L403.5,95.9z"/>
		<path fill="#54C4CD" d="M410.6,104.2c-0.9,0-1.6-0.3-2.2-0.9c-0.5-0.6-0.8-1.3-0.8-2.2v-0.2c0-0.9,0.3-1.7,0.8-2.3
			c0.5-0.6,1.2-0.9,2.1-0.9c0.9,0,1.5,0.3,2,0.8c0.5,0.5,0.7,1.2,0.7,2.1v0.9h-3.8l0,0c0,0.4,0.2,0.8,0.4,1s0.6,0.4,1,0.4
			c0.4,0,0.7,0,0.9-0.1c0.2-0.1,0.5-0.2,0.8-0.4l0.5,1.1c-0.3,0.2-0.6,0.4-1,0.5C411.5,104.1,411.1,104.2,410.6,104.2z M410.4,98.9
			c-0.3,0-0.6,0.1-0.7,0.4s-0.3,0.6-0.3,1l0,0h2.1v-0.2c0-0.4-0.1-0.7-0.3-0.9S410.8,98.9,410.4,98.9z"/>
		<path fill="#54C4CD" d="M415.4,96c0,0.4-0.1,0.8-0.3,1.2c-0.2,0.4-0.5,0.8-0.8,1.1l-0.8-0.5c0.2-0.3,0.3-0.5,0.4-0.8
			c0.1-0.3,0.1-0.6,0.1-1v-1.1h1.4V96z"/>
		<path fill="#54C4CD" d="M420.9,99.9h-1.1l-0.2-0.8c-0.1-0.1-0.3-0.2-0.4-0.2c-0.2-0.1-0.4-0.1-0.6-0.1c-0.3,0-0.5,0.1-0.7,0.2
			s-0.3,0.3-0.3,0.5c0,0.2,0.1,0.4,0.3,0.5s0.5,0.2,1,0.3c0.8,0.2,1.4,0.4,1.7,0.7c0.4,0.3,0.6,0.7,0.6,1.2c0,0.6-0.2,1-0.7,1.4
			c-0.5,0.4-1.1,0.5-1.9,0.5c-0.5,0-0.9-0.1-1.3-0.2c-0.4-0.1-0.8-0.3-1.1-0.6l0-1.4h1.2l0.2,0.8c0.1,0.1,0.2,0.1,0.4,0.2
			s0.4,0.1,0.6,0.1c0.3,0,0.6-0.1,0.8-0.2c0.2-0.1,0.3-0.3,0.3-0.5c0-0.2-0.1-0.3-0.3-0.5s-0.5-0.3-1-0.4c-0.7-0.2-1.3-0.4-1.7-0.7
			c-0.4-0.3-0.6-0.7-0.6-1.2c0-0.5,0.2-1,0.7-1.4c0.4-0.4,1.1-0.6,1.9-0.6c0.5,0,1,0.1,1.4,0.2c0.4,0.1,0.8,0.3,1,0.5L420.9,99.9z"
			/>
		<path fill="#54C4CD" d="M424.7,98.7v-1h2.5l0.1,0.7c0.2-0.3,0.4-0.5,0.7-0.6c0.3-0.1,0.6-0.2,0.9-0.2c0.8,0,1.4,0.3,1.8,0.9
			c0.4,0.6,0.6,1.4,0.6,2.4v0.1c0,0.9-0.2,1.7-0.6,2.3c-0.4,0.6-1,0.9-1.8,0.9c-0.3,0-0.6-0.1-0.9-0.2c-0.3-0.1-0.5-0.3-0.7-0.5v1.8
			l0.8,0.2v1h-3.4v-1l0.8-0.2v-6.4L424.7,98.7z M429.6,100.9c0-0.6-0.1-1.1-0.3-1.5c-0.2-0.4-0.5-0.6-0.9-0.6
			c-0.3,0-0.5,0.1-0.7,0.2s-0.3,0.3-0.4,0.5v2.8c0.1,0.2,0.2,0.3,0.4,0.4c0.2,0.1,0.4,0.1,0.7,0.1c0.4,0,0.7-0.2,0.9-0.5
			s0.3-0.8,0.3-1.3V100.9z"/>
		<path fill="#54C4CD" d="M431.8,95.9v-1h2.6v7.9l0.8,0.2v1h-3.4v-1l0.8-0.2v-6.7L431.8,95.9z"/>
		<path fill="#54C4CD" d="M439.8,104c0-0.1-0.1-0.2-0.1-0.3c0-0.1-0.1-0.2-0.1-0.3c-0.2,0.2-0.5,0.4-0.7,0.6c-0.3,0.1-0.6,0.2-1,0.2
			c-0.6,0-1.1-0.2-1.5-0.5c-0.4-0.3-0.5-0.8-0.5-1.4c0-0.6,0.2-1.1,0.7-1.4c0.5-0.3,1.2-0.5,2.1-0.5h0.9v-0.6c0-0.3-0.1-0.5-0.3-0.7
			c-0.2-0.2-0.4-0.3-0.8-0.3c-0.2,0-0.4,0-0.5,0.1s-0.3,0.1-0.4,0.2l-0.1,0.7h-1.3l0-1.4c0.3-0.2,0.7-0.4,1.1-0.5
			c0.4-0.1,0.8-0.2,1.3-0.2c0.8,0,1.4,0.2,1.9,0.6c0.5,0.4,0.7,0.9,0.7,1.6v2.6c0,0.1,0,0.2,0,0.3s0,0.2,0,0.2l0.5,0.1v1H439.8z
			 M438.3,102.9c0.3,0,0.5-0.1,0.7-0.2c0.2-0.1,0.4-0.3,0.5-0.4v-1h-0.9c-0.4,0-0.6,0.1-0.8,0.3s-0.3,0.4-0.3,0.6
			c0,0.2,0.1,0.4,0.2,0.5S438.1,102.9,438.3,102.9z"/>
		<path fill="#54C4CD" d="M442.3,103l0.8-0.2v-3.9l-0.9-0.2v-1h2.5l0.1,0.9c0.2-0.3,0.5-0.6,0.8-0.8c0.3-0.2,0.7-0.3,1-0.3
			c0.6,0,1.1,0.2,1.5,0.6c0.4,0.4,0.5,1,0.5,1.9v2.8l0.8,0.2v1h-3.3v-1l0.7-0.2v-2.8c0-0.4-0.1-0.7-0.3-0.9s-0.4-0.3-0.8-0.3
			c-0.2,0-0.4,0-0.6,0.1s-0.3,0.2-0.5,0.4v3.4l0.7,0.2v1h-3.2V103z"/>
	</g>
	<g>
		<path fill="#54C4CD" d="M772,126.4c0,0.4-0.7,2.7-1.3,2.7h-7c-0.6,0-3.7-2.3-3.7-2.7v-7.3c0-0.4,3.1-1,3.7-1h7
			c0.6,0,1.3,0.5,1.3,1V126.4z"/>
		<path fill="#F3D0B4" d="M763.1,95.5c0-3.3,1.8-6,4.1-6c2.2,0,4.1,2.7,4.1,6"/>
		<path fill="#54C4CD" d="M772,126.3c0,0.4-0.3,1.9-0.8,1.9h-10.2c-0.4,0-1.1-1.4-1.1-1.9v-0.3c0-0.4,0.6,0.2,1.1,0.2h10.2
			c0.4,0,0.8-0.7,0.8-0.2V126.3z"/>
		<path fill="#E2E2E1" d="M776,164.7v-5.4c16,0,26-10.8,26-24.1c0-13.3-10-24.1-26-24.1v-5.4c16,0,31.4,13.2,31.4,29.5
			C807.4,151.5,792,164.7,776,164.7z"/>
		<polygon fill="#F3D0B4" points="781.3,168.1 752.9,168.1 761.9,149.1 772.4,149.1 		"/>
		<rect x="748" y="166.1" fill="#54C4CD" width="39" height="8"/>
		<path fill="#E2E2E1" d="M777,115.6c0,2.9-1.2,4.6-3.4,4.6h-12.4c-2.2,0-3.2-1.7-3.2-4.6v-16c0-2.9,1-4.4,3.2-4.4h12.4
			c2.2,0,3.4,1.6,3.4,4.4V115.6z"/>
		<path fill="#54C4CD" d="M782,150.7c0,1-2.7-0.6-3.6-0.6h-22.5c-1,0-0.9,1.6-0.9,0.6V149c0-1-0.1,0.2,0.9,0.2h22.5
			c1,0,3.6-1.2,3.6-0.2V150.7z"/>
		<circle fill="#50565F" cx="777.5" cy="108.5" r="4.3"/>
		<circle fill="#50565F" cx="777.5" cy="162.5" r="4.3"/>
		<circle fill="#E2E2E1" cx="777.5" cy="162.5" r="2.3"/>
		<circle fill="#54C4CD" cx="777.5" cy="108.5" r="2.3"/>
	</g>
	<g>
		<path fill="#F3D0B4" d="M186.6,80.7c0.3,2.1,0.6,4.3,0.9,6.5c2.5,16.2,6.3,29.1,8.5,28.8c2.2-0.3,1.9-13.8-0.6-30
			c-0.3-2.2-0.7-4.4-1.1-6.5L186.6,80.7z"/>
		<path fill="#E2E2E1" d="M191.5,67.5c-1,0.6-2.1,1-3,1.1c-1.1,0.2-2.1,0.1-3-0.2c0.3,3.7,0.7,7.8,1.2,12.3l7.5-1.2
			c-0.8-4.5-1.7-8.5-2.6-12.1C191.6,67.5,191.5,67.5,191.5,67.5z"/>
		<path fill="#54C4CD" d="M188.3,52.1c0.2,0.6-0.1,1.1-0.5,2c-0.4-2.3-1.5-5.3-4.3-5.3c1.5,2.1-1,9.2-1.7,12.4
			c-1.2,5.4,2.6,11.1,9.6,7.9C196.3,66.9,196.5,54.3,188.3,52.1z"/>
	</g>
	<g>
		<path fill="#E2E2E1" d="M240.3,87.4c0,0,3.3-10.9,1.3-14.9c-2.5-5-11.7-8.4-19.6-6c-7.9,2.4-11.7,15.2-6.6,20.7
			c0,0-6.9,5.4-8,11.1c-1.1,5.8-1,8.8,0,11.4c1,2.5,2.2,5.7,2.2,5.7s-6.4,5.8-5.9,13.9c0.5,8.1,7.6,15.6,13.6,16.4
			c6.1,0.8,23.3,0,27.9-3.1c4.6-3.1,8.1-7.7,8.1-12.4c-0.1-4.7-5-10.8-5-10.8s2.3-7.7,2.8-12.6c0.5-5-1.7-11.4-4.3-14.1
			C244,90.1,240.3,87.4,240.3,87.4z"/>
		<path fill="#80CDC8" d="M243.5,120.5c-0.2-4.2-2.7-2.7-3.2,0c-0.4,2.2-1.4,4.3-4,6.2c-2,1.5-4.3,1.8-5.4,1.8
			c-0.1-4.3-0.2-8.5-0.4-12.7c2.5,0.1,7-0.4,9.6-4.8c2.8-4.9,2.1-7.7,1.4-9.5c-0.7-1.8-2.5-0.5-2.7,2.7c-0.1,2.3-0.7,8-8.4,8.4
			c-0.2-7.4-0.5-14.4-0.7-20.2c1.5-1.1,5-4,6-7.7c0.8-3-0.1-6.2-1.6-3.3c-1.4,2.7-2.6,6.2-4.6,6.9c-0.2-5.8-0.4-9.7-0.5-10.5
			c-0.6-4.2-3.3-3.4-3.3,0.4c0,0.6-0.1,3.5-0.1,8c-1.6-0.7-3.7-3.2-4.9-4.9c-1.4-2.1-4.2,0.4-1.7,3.3c2.1,2.5,5.3,5.9,6.5,7.1
			c-0.1,5.1-0.2,11.4-0.3,18.1c-0.8-0.4-1.8-1-2.8-1.9c-2.5-2.1-4.7-7.8-4.7-7.8c-1-1.9-2.3-2.3-2.7,0c-0.5,2.3,0.4,4,2.2,7.9
			c1.3,2.9,5.7,5.3,7.9,6.4c-0.1,4.9-0.1,10-0.2,15c-1.9-0.5-7.9-12.4-9.4-12.7c-1.5-0.3-2,4.1-1.4,7.6c0.6,3.5,3,6.4,6,8.1
			c1.7,1,3.5,1.4,4.7,1.6c-0.2,20.9-0.3,39.7,0.3,40.1c1.2,0.8,5,0.5,6.2-0.3c0.6-0.4,0.3-19.6-0.3-40.8c1.7-0.3,4.3-0.8,6.3-1.6
			C240.4,130.1,243.7,124.7,243.5,120.5z"/>
	</g>
	<circle fill="#50565F" cx="170.8" cy="62.1" r="2"/>
	<g>
		<rect x="290" y="168.1" fill="#E2E2E1" width="43" height="8"/>
		<polyline fill="#54C4CD" points="317.3,133.2 263.6,81.8 260,82.6 291.9,147.1 298.1,147.1 298.2,168.1 323,168.1 323,147.1 		"/>
		<path fill="#E2E2E1" d="M299,142c0,7.7,6.3,14,14,14c7.8,0,14-6.3,14-14c0-7.7-6.3-14-14-14C305.3,128,299,134.3,299,142z"/>
		<path fill="#50565F" d="M302.9,142.2c0,5.6,4.5,10.1,10.1,10.1c5.6,0,10.1-4.5,10.1-10.1s-4.5-10.1-10.1-10.1
			C307.5,132,302.9,136.6,302.9,142.2z"/>
		<path fill="#F3D0B4" d="M309.2,142.3c0,2.2,1.8,3.9,3.9,3.9c2.2,0,3.9-1.7,3.9-3.9c0-2.2-1.7-3.9-3.9-3.9
			C310.9,138.4,309.2,140.1,309.2,142.3z"/>
		<circle fill="#50565F" cx="262.1" cy="84.5" r="12"/>
		<circle fill="#EBB65C" cx="262.1" cy="84.6" r="8.7"/>
		<polyline fill="#54C4CD" points="309.4,45.2 259.4,83.6 261.7,86.7 309.9,60.1 		"/>
		<g>
			<polygon fill="#E2E2E1" points="311.8,57.8 335.5,43.9 336.3,45 314.5,63.1 311.2,58.3 			"/>
			<path fill="#E2E2E1" d="M314.3,64.5l-4.4-6.3l1.4-1.1l24.6-14.5l1.8,2.6L314.3,64.5z M312.5,58.5l2.1,3.1l18.2-15L312.5,58.5z"/>
		</g>
		<g>
			<polygon fill="#E2E2E1" points="308.7,50.4 334.4,40.9 334.1,39.6 306.3,45.1 307.8,50.6 			"/>
			<path fill="#E2E2E1" d="M307.1,51.7l-2.1-7.4l29.7-5.8l0.9,3.1L309,51.3L307.1,51.7z M307.5,45.8l1,3.6l22.1-8.2L307.5,45.8z"/>
		</g>
		<path fill="#EBB65C" d="M308.3,39.1c-7.1,3.1-10.3,11.4-7.2,18.5c3.1,7.1,11.4,10.3,18.5,7.2"/>
		<path fill="#50565F" d="M258.8,84.7c0,1.8,1.5,3.3,3.3,3.3c1.8,0,3.3-1.5,3.3-3.3c0-1.8-1.5-3.3-3.3-3.3
			C260.3,81.4,258.8,82.9,258.8,84.7z"/>
	</g>
	<polygon fill="#E79B96" points="201.5,47.1 202.1,51.3 198.1,49.7 194.1,48.1 197.5,45.5 200.8,42.8 	"/>
</g>
</svg>
