<?xml version="1.0" encoding="utf-8"?>
<svg width="800px" height="200px" viewBox="-240 35 953 224" preserveAspectRatio="xMidYMid slice" xmlns="http://www.w3.org/2000/svg">
  <defs>
    <style>
		#medium,#large {
		  display: none;
		}
		@media screen and (min-width: 640px) {
			#medium {
				display: block;
			}
		}
		@media screen and (min-width: 768px) {
			#large {
				display: block;
			}
		}
	</style>
  </defs>
  <g id="small" transform="matrix(1, 0, 0, 1, -367.0153221893311, -205.55452125549317)">
    <path d="M715.7,397.5c0,5-4.1,9.1-9.1,9.1H490c-5,0-9.1-4.1-9.1-9.1v-133c0-5,4.1-9.1,9.1-9.1h216.6&#10;&#9;&#9;c5,0,9.1,4.1,9.1,9.1V397.5z" style="fill: rgb(80, 86, 95);"/>
    <rect x="493.9" y="269.7" width="208.8" height="114" style="fill: rgb(255, 255, 255);"/>
    <ellipse cx="598.3" cy="395.4" rx="5.5" ry="5.5" style="fill: rgb(255, 255, 255);"/>
    <rect x="567.7" y="410.6" width="61.3" height="27.6" style="fill: rgb(80, 86, 95);"/>
    <rect x="547.3" y="441.9" width="102" height="6.8" style="fill: rgb(80, 86, 95);"/>
    <path d="M598.7,285.6c1.4,0,2.2,0.1,3.5,0.4c2.9,0.6,5.6,1.7,7.9,3.4&#10;&#9;&#9;c2.6,1.9,4.6,4.3,5.8,7.3c0.9,2.3,1.3,4.7,1.3,7.2c0,0.4,0,0.8,0,1.2c0,1.2-0.2,2.4-0.4,3.6c-0.5,2.7-1.5,5.2-2.8,7.5&#10;&#9;&#9;c-0.8,1.4-1.7,2.8-2.5,4.2c-0.6,1-1.2,2-1.5,3.2c-0.4,1.6-0.6,3.2-0.7,4.8c-0.1,0.7-0.2,1.5-0.4,2.2c-0.5,1.4-1.4,1.9-2.6,1.9h-15&#10;&#9;&#9;c-1.2,0-2.1-0.5-2.6-1.9c-0.2-0.7-0.3-1.5-0.4-2.2c-0.2-1.6-0.3-3.2-0.7-4.8c-0.3-1.1-0.9-2.2-1.5-3.2c-0.8-1.4-1.7-2.8-2.5-4.2&#10;&#9;&#9;c-1.3-2.4-2.3-4.9-2.8-7.5c-0.2-1.2-0.4-2.4-0.4-3.6c0-0.4,0-0.8,0-1.2c0-2.5,0.3-4.9,1.3-7.2c1.2-3,3.2-5.4,5.8-7.3&#10;&#9;&#9;c2.4-1.7,5.1-2.8,8-3.4c1.4-0.3,2.1-0.4,3.5-0.4" style="fill-rule: evenodd; clip-rule: evenodd; fill: rgb(84, 196, 205);"/>
    <path d="M598.7,303.4c0.4,0.4,0.8,0.9,1.1,1.5c0.3,0.6,0.5,1.1,0.6,1.7c0.1,0.6,0.2,1.2,0.1,1.9&#10;&#9;&#9;c0,0.6-0.2,1.2-0.4,1.8c-0.2,0.6-0.5,1.1-0.9,1.5c-0.4,0.4-0.8,0.6-1.3,0.7l-2.6,0.5l4.3,20.3c0,0.2,0,0.4-0.1,0.6&#10;&#9;&#9;c-0.1,0.2-0.3,0.3-0.5,0.4c-0.2,0-0.4,0-0.6-0.1c-0.2-0.1-0.3-0.3-0.4-0.5l-6.3-29.6c-0.1-0.3,0-0.6,0.3-0.8&#10;&#9;&#9;c0.1-0.1,0.2-0.2,0.4-0.2l3.3-0.7c0.5-0.1,1-0.1,1.5,0.1C597.8,302.6,598.3,302.9,598.7,303.4z M598.7,309.7&#10;&#9;&#9;c0.2-0.4,0.2-0.8,0.3-1.3c0-0.5,0-0.9-0.1-1.4c-0.1-0.5-0.2-0.9-0.5-1.3c-0.2-0.4-0.5-0.8-0.8-1.1c-0.2-0.3-0.5-0.5-0.7-0.6&#10;&#9;&#9;c-0.3-0.1-0.5-0.1-0.7-0.1l-2.6,0.5l1.5,7l2.6-0.5c0.2,0,0.4-0.2,0.6-0.4C598.4,310.3,598.5,310,598.7,309.7z" style="fill: rgb(255, 255, 255);"/>
    <path d="M607.4,313c0.2,0.5,0.4,1.1,0.5,1.7c0.1,0.6,0.1,1.2,0,1.9c-0.1,0.6-0.3,1.2-0.5,1.8&#10;&#9;&#9;c-0.3,0.6-0.6,1.1-1,1.5c-0.4,0.5-0.9,0.8-1.4,1.1c-0.5,0.2-1,0.3-1.5,0.2l-2.6-0.4l-3.1,20.5c0,0.2-0.1,0.4-0.3,0.5&#10;&#9;&#9;c-0.2,0.1-0.4,0.2-0.6,0.1c-0.2,0-0.4-0.1-0.5-0.3c-0.1-0.2-0.2-0.4-0.2-0.6l4.5-30c0-0.3,0.2-0.5,0.5-0.6c0.1-0.1,0.3-0.1,0.4-0.1&#10;&#9;&#9;l3.4,0.5c0.5,0.1,0.9,0.3,1.3,0.7C606.8,311.9,607.1,312.4,607.4,313z M605.1,318.8c0.3-0.3,0.5-0.7,0.7-1.1&#10;&#9;&#9;c0.2-0.4,0.3-0.9,0.4-1.4c0.1-0.5,0.1-0.9,0-1.4c-0.1-0.5-0.2-0.9-0.3-1.3c-0.1-0.3-0.3-0.6-0.5-0.8c-0.2-0.2-0.4-0.3-0.6-0.3&#10;&#9;&#9;l-2.6-0.4l-1.1,7.1l2.6,0.4c0.2,0,0.4,0,0.7-0.1C604.7,319.3,604.9,319.1,605.1,318.8z" style="fill: rgb(255, 255, 255);"/>
    <path d="M590.8,340.2c-0.6,0-1-0.4-1-0.9c0-0.5,0.4-0.9,0.9-0.9&#10;&#9;&#9;c1-0.1,2-0.2,3-0.3c0.8-0.1,1.6-0.1,2.4-0.2c0.8-0.1,1.7-0.1,2.5-0.2c0.8-0.1,1.6-0.1,2.4-0.2c0.9-0.1,1.7-0.1,2.6-0.2&#10;&#9;&#9;c0.8-0.1,1.6-0.1,2.5-0.2c0.2,0,0.4,0,0.7,0c0.5,0,0.8,0.3,0.9,0.8c0,0.4-0.3,0.9-0.7,1c-0.4,0.1-0.8,0.1-1.2,0.1&#10;&#9;&#9;c-0.9,0.1-1.7,0.2-2.6,0.2c-0.8,0.1-1.6,0.1-2.5,0.2c-0.8,0.1-1.7,0.1-2.5,0.2c-0.8,0.1-1.6,0.1-2.4,0.2c-0.9,0.1-1.7,0.1-2.6,0.2&#10;&#9;&#9;C592.5,340,591.6,340.1,590.8,340.2z" style="fill-rule: evenodd; clip-rule: evenodd; fill: rgb(84, 196, 205);"/>
    <path d="M589.8,344.3c0-0.5,0.4-0.9,0.8-0.9c1.6-0.1,3.2-0.3,4.8-0.4&#10;&#9;&#9;c1.3-0.1,2.6-0.2,3.9-0.3c1.4-0.1,2.8-0.3,4.3-0.4c1-0.1,2.1-0.2,3.1-0.3c0.5,0,0.9,0.3,1,0.8c0.1,0.5-0.3,0.9-0.8,1&#10;&#9;&#9;c-0.7,0.1-1.4,0.1-2.1,0.2c-0.8,0.1-1.7,0.1-2.5,0.2c-0.8,0.1-1.6,0.1-2.4,0.2c-0.9,0.1-1.7,0.1-2.5,0.2c-0.8,0.1-1.6,0.1-2.5,0.2&#10;&#9;&#9;c-0.8,0.1-1.7,0.1-2.5,0.2c-0.5,0-1,0.1-1.5,0.1C590.3,345.2,589.8,344.8,589.8,344.3z" style="fill-rule: evenodd; clip-rule: evenodd; fill: rgb(84, 196, 205);"/>
    <path d="M591.1,342.7c-0.7,0-1-0.2-1.2-0.6c-0.1-0.4,0-0.8,0.3-1.1&#10;&#9;&#9;c0.2-0.1,0.3-0.2,0.5-0.2c1-0.1,2-0.2,2.9-0.3c1-0.1,2-0.2,3-0.3c1-0.1,2-0.2,2.9-0.2c1-0.1,2-0.2,3-0.3c1-0.1,1.9-0.2,2.9-0.2&#10;&#9;&#9;c0.4,0,0.8-0.1,1.1-0.1c0.4,0,0.8,0.1,1,0.5c0.2,0.3,0.2,0.7-0.1,1c-0.1,0.2-0.4,0.3-0.6,0.3c-0.9,0.1-1.9,0.2-2.8,0.2&#10;&#9;&#9;c-1,0.1-2,0.2-3,0.3c-0.8,0.1-1.7,0.1-2.5,0.2c-1,0.1-2,0.2-2.9,0.3c-0.8,0.1-1.7,0.1-2.5,0.2C592.5,342.5,591.7,342.6,591.1,342.7&#10;&#9;&#9;z" style="fill-rule: evenodd; clip-rule: evenodd; fill: rgb(84, 196, 205);"/>
    <path d="M607.7,335.4c0,0.5-0.3,0.9-0.8,0.9c-1.5,0.1-3,0.3-4.5,0.4&#10;&#9;&#9;c-1.7,0.1-3.3,0.3-5,0.4c-1.4,0.1-2.9,0.3-4.3,0.4c-0.8,0.1-1.5,0.1-2.3,0.2c-0.5,0-0.9-0.3-1-0.8c0-0.5,0.3-1,0.8-1&#10;&#9;&#9;c1.2-0.1,2.4-0.2,3.6-0.3c1.1-0.1,2.3-0.2,3.4-0.3c1-0.1,2-0.2,2.9-0.2c1.1-0.1,2.3-0.2,3.4-0.3c0.9-0.1,1.9-0.2,2.8-0.2&#10;&#9;&#9;C607.3,334.4,607.7,334.8,607.7,335.4z" style="fill-rule: evenodd; clip-rule: evenodd; fill: rgb(84, 196, 205);"/>
    <path d="M603.4,347.2c-1.1,1.1-2.3,2.1-3.8,2.4c-0.2,0.1-0.5,0.1-0.7,0.1&#10;&#9;&#9;c-0.2,0-0.5-0.1-0.7-0.1c-0.9-0.2-1.7-0.7-2.4-1.2c-0.5-0.3-0.9-0.7-1.3-1.1c0,0-0.1-0.1-0.1-0.1&#10;&#9;&#9;C597.3,347.2,600.3,347.2,603.4,347.2z" style="fill-rule: evenodd; clip-rule: evenodd; fill: rgb(84, 196, 205);"/>
    <path d="M547,358.3v1.8h1.3v1.4H547v3.7c0,0.3,0.1,0.5,0.2,0.6s0.3,0.2,0.5,0.2c0.1,0,0.3,0,0.4,0&#10;&#9;&#9;c0.1,0,0.2,0,0.3-0.1l0.2,1.4c-0.2,0.1-0.4,0.1-0.7,0.2s-0.5,0.1-0.7,0.1c-0.7,0-1.2-0.2-1.6-0.6c-0.4-0.4-0.6-1-0.6-1.8v-3.7h-1.1&#10;&#9;&#9;v-1.4h1.1v-1.8H547z" style="fill: rgb(84, 196, 205);"/>
    <path d="M549.1,366.2l1-0.2v-7.8L549,358v-1.2h3v4.2c0.2-0.3,0.5-0.6,0.8-0.8c0.3-0.2,0.7-0.3,1.1-0.3&#10;&#9;&#9;c0.8,0,1.4,0.3,1.8,0.8c0.4,0.5,0.7,1.3,0.7,2.4v3l1,0.2v1.2h-3.8v-1.2l0.9-0.2v-3c0-0.6-0.1-1-0.3-1.2c-0.2-0.2-0.5-0.4-0.9-0.4&#10;&#9;&#9;c-0.3,0-0.5,0.1-0.7,0.1c-0.2,0.1-0.4,0.2-0.5,0.4v4l0.9,0.2v1.2h-3.8V366.2z" style="fill: rgb(84, 196, 205);"/>
    <path d="M561.5,367.6c-1.1,0-1.9-0.3-2.5-1s-1-1.5-1-2.6v-0.3c0-1.1,0.3-2,0.9-2.7s1.4-1.1,2.4-1.1&#10;&#9;&#9;c1,0,1.8,0.3,2.3,0.9s0.8,1.4,0.8,2.4v1.1h-4.4l0,0c0,0.5,0.2,0.9,0.5,1.2c0.3,0.3,0.7,0.5,1.2,0.5c0.4,0,0.8,0,1.1-0.1&#10;&#9;&#9;c0.3-0.1,0.6-0.2,1-0.4l0.5,1.2c-0.3,0.2-0.7,0.4-1.2,0.6C562.6,367.5,562.1,367.6,561.5,367.6z M561.3,361.5&#10;&#9;&#9;c-0.4,0-0.7,0.1-0.9,0.4c-0.2,0.3-0.3,0.6-0.4,1.1l0,0h2.4v-0.2c0-0.4-0.1-0.8-0.3-1C562,361.6,561.7,361.5,561.3,361.5z" style="fill: rgb(84, 196, 205);"/>
    <path d="M568.7,361.3v-1.2h2.9l0.1,0.9c0.2-0.3,0.5-0.6,0.8-0.7c0.3-0.2,0.7-0.3,1.1-0.3c0.9,0,1.6,0.4,2.1,1.1&#10;&#9;&#9;s0.8,1.6,0.8,2.8v0.1c0,1.1-0.3,2-0.8,2.6s-1.2,1-2.1,1c-0.4,0-0.7-0.1-1-0.2s-0.6-0.4-0.8-0.6v2.1l1,0.2v1.2h-3.9v-1.2l1-0.2v-7.4&#10;&#9;&#9;L568.7,361.3z M574.4,363.8c0-0.7-0.1-1.3-0.3-1.7c-0.2-0.4-0.6-0.6-1.1-0.6c-0.3,0-0.6,0.1-0.8,0.2s-0.4,0.3-0.5,0.5v3.2&#10;&#9;&#9;c0.1,0.2,0.3,0.4,0.5,0.5s0.5,0.2,0.8,0.2c0.5,0,0.8-0.2,1.1-0.6c0.2-0.4,0.3-0.9,0.3-1.5V363.8z" style="fill: rgb(84, 196, 205);"/>
    <path d="M580.8,367.6c-1.1,0-1.9-0.3-2.5-1s-1-1.5-1-2.6v-0.3c0-1.1,0.3-2,0.9-2.7s1.4-1.1,2.4-1.1&#10;&#9;&#9;c1,0,1.8,0.3,2.3,0.9s0.8,1.4,0.8,2.4v1.1h-4.4l0,0c0,0.5,0.2,0.9,0.5,1.2c0.3,0.3,0.7,0.5,1.2,0.5c0.4,0,0.8,0,1.1-0.1&#10;&#9;&#9;c0.3-0.1,0.6-0.2,1-0.4l0.5,1.2c-0.3,0.2-0.7,0.4-1.2,0.6C581.9,367.5,581.3,367.6,580.8,367.6z M580.6,361.5&#10;&#9;&#9;c-0.4,0-0.7,0.1-0.9,0.4c-0.2,0.3-0.3,0.6-0.4,1.1l0,0h2.4v-0.2c0-0.4-0.1-0.8-0.3-1C581.3,361.6,581,361.5,580.6,361.5z" style="fill: rgb(84, 196, 205);"/>
    <path d="M584.6,363.7c0-1.1,0.3-2,0.9-2.7c0.6-0.7,1.5-1,2.5-1c1.1,0,1.9,0.3,2.5,1s0.9,1.6,0.9,2.7v0.1&#10;&#9;&#9;c0,1.1-0.3,2-0.9,2.7c-0.6,0.7-1.5,1-2.5,1c-1.1,0-1.9-0.3-2.6-1c-0.6-0.7-0.9-1.6-0.9-2.7V363.7z M586.6,363.8&#10;&#9;&#9;c0,0.7,0.1,1.2,0.4,1.6c0.2,0.4,0.6,0.6,1.1,0.6c0.5,0,0.9-0.2,1.1-0.6c0.2-0.4,0.4-0.9,0.4-1.6v-0.1c0-0.7-0.1-1.2-0.4-1.6&#10;&#9;&#9;c-0.2-0.4-0.6-0.6-1.1-0.6c-0.5,0-0.9,0.2-1.1,0.6c-0.2,0.4-0.4,0.9-0.4,1.6V363.8z" style="fill: rgb(84, 196, 205);"/>
    <path d="M592.3,361.3v-1.2h2.9l0.1,0.9c0.2-0.3,0.5-0.6,0.8-0.7c0.3-0.2,0.7-0.3,1.1-0.3c0.9,0,1.6,0.4,2.1,1.1&#10;&#9;&#9;s0.8,1.6,0.8,2.8v0.1c0,1.1-0.3,2-0.8,2.6s-1.2,1-2.1,1c-0.4,0-0.7-0.1-1-0.2s-0.6-0.4-0.8-0.6v2.1l1,0.2v1.2h-3.9v-1.2l1-0.2v-7.4&#10;&#9;&#9;L592.3,361.3z M598,363.8c0-0.7-0.1-1.3-0.3-1.7c-0.2-0.4-0.6-0.6-1.1-0.6c-0.3,0-0.6,0.1-0.8,0.2s-0.4,0.3-0.5,0.5v3.2&#10;&#9;&#9;c0.1,0.2,0.3,0.4,0.5,0.5s0.5,0.2,0.8,0.2c0.5,0,0.8-0.2,1.1-0.6c0.2-0.4,0.3-0.9,0.3-1.5V363.8z" style="fill: rgb(84, 196, 205);"/>
    <path d="M600.5,358v-1.2h3v9.2l1,0.2v1.2h-3.9v-1.2l1-0.2v-7.8L600.5,358z" style="fill: rgb(84, 196, 205);"/>
    <path d="M608.7,367.6c-1.1,0-1.9-0.3-2.5-1s-1-1.5-1-2.6v-0.3c0-1.1,0.3-2,0.9-2.7s1.4-1.1,2.4-1.1&#10;&#9;&#9;c1,0,1.8,0.3,2.3,0.9c0.5,0.6,0.8,1.4,0.8,2.4v1.1h-4.4l0,0c0,0.5,0.2,0.9,0.5,1.2c0.3,0.3,0.7,0.5,1.2,0.5c0.4,0,0.8,0,1.1-0.1&#10;&#9;&#9;c0.3-0.1,0.6-0.2,1-0.4l0.5,1.2c-0.3,0.2-0.7,0.4-1.2,0.6C609.8,367.5,609.3,367.6,608.7,367.6z M608.5,361.5&#10;&#9;&#9;c-0.4,0-0.7,0.1-0.9,0.4c-0.2,0.3-0.3,0.6-0.4,1.1l0,0h2.4v-0.2c0-0.4-0.1-0.8-0.3-1C609.2,361.6,608.9,361.5,608.5,361.5z" style="fill: rgb(84, 196, 205);"/>
    <path d="M614.2,358.1c0,0.5-0.1,0.9-0.4,1.4c-0.2,0.5-0.5,0.9-0.9,1.2l-1-0.5c0.2-0.3,0.3-0.6,0.4-1&#10;&#9;&#9;c0.1-0.3,0.1-0.7,0.1-1.1v-1.3h1.7V358.1z" style="fill: rgb(84, 196, 205);"/>
    <path d="M620.6,362.6h-1.3l-0.2-0.9c-0.1-0.1-0.3-0.2-0.5-0.3s-0.4-0.1-0.7-0.1c-0.3,0-0.6,0.1-0.8,0.2&#10;&#9;&#9;c-0.2,0.2-0.3,0.4-0.3,0.6c0,0.2,0.1,0.4,0.3,0.6c0.2,0.1,0.6,0.3,1.2,0.4c0.9,0.2,1.6,0.4,2,0.8c0.4,0.4,0.7,0.8,0.7,1.5&#10;&#9;&#9;c0,0.7-0.3,1.2-0.9,1.6c-0.6,0.4-1.3,0.6-2.2,0.6c-0.6,0-1.1-0.1-1.6-0.2c-0.5-0.2-0.9-0.4-1.3-0.7l0-1.7h1.4l0.3,1&#10;&#9;&#9;c0.1,0.1,0.3,0.2,0.5,0.2c0.2,0,0.4,0.1,0.6,0.1c0.4,0,0.7-0.1,0.9-0.2c0.2-0.1,0.3-0.3,0.3-0.6c0-0.2-0.1-0.4-0.3-0.6&#10;&#9;&#9;s-0.6-0.3-1.2-0.4c-0.9-0.2-1.5-0.4-2-0.8s-0.7-0.8-0.7-1.4c0-0.6,0.3-1.1,0.8-1.6s1.2-0.7,2.2-0.7c0.6,0,1.1,0.1,1.6,0.2&#10;&#9;&#9;c0.5,0.2,0.9,0.4,1.2,0.6L620.6,362.6z" style="fill: rgb(84, 196, 205);"/>
    <path d="M625,361.3v-1.2h2.9l0.1,0.9c0.2-0.3,0.5-0.6,0.8-0.7c0.3-0.2,0.7-0.3,1.1-0.3c0.9,0,1.6,0.4,2.1,1.1&#10;&#9;&#9;c0.5,0.7,0.8,1.6,0.8,2.8v0.1c0,1.1-0.3,2-0.8,2.6c-0.5,0.7-1.2,1-2.1,1c-0.4,0-0.7-0.1-1-0.2c-0.3-0.1-0.6-0.4-0.8-0.6v2.1l1,0.2&#10;&#9;&#9;v1.2h-3.9v-1.2l1-0.2v-7.4L625,361.3z M630.8,363.8c0-0.7-0.1-1.3-0.3-1.7c-0.2-0.4-0.6-0.6-1.1-0.6c-0.3,0-0.6,0.1-0.8,0.2&#10;&#9;&#9;c-0.2,0.1-0.4,0.3-0.5,0.5v3.2c0.1,0.2,0.3,0.4,0.5,0.5c0.2,0.1,0.5,0.2,0.8,0.2c0.5,0,0.8-0.2,1.1-0.6c0.2-0.4,0.3-0.9,0.3-1.5&#10;&#9;&#9;V363.8z" style="fill: rgb(84, 196, 205);"/>
    <path d="M633.3,358v-1.2h3v9.2l1,0.2v1.2h-3.9v-1.2l1-0.2v-7.8L633.3,358z" style="fill: rgb(84, 196, 205);"/>
    <path d="M642.6,367.4c-0.1-0.1-0.1-0.2-0.1-0.4c0-0.1-0.1-0.3-0.1-0.4c-0.2,0.3-0.5,0.5-0.9,0.7&#10;&#9;&#9;c-0.3,0.2-0.7,0.3-1.2,0.3c-0.7,0-1.3-0.2-1.7-0.6c-0.4-0.4-0.6-0.9-0.6-1.6c0-0.7,0.3-1.2,0.8-1.6c0.6-0.4,1.4-0.6,2.4-0.6h1v-0.7&#10;&#9;&#9;c0-0.4-0.1-0.6-0.3-0.8c-0.2-0.2-0.5-0.3-0.9-0.3c-0.2,0-0.4,0-0.6,0.1c-0.2,0.1-0.3,0.1-0.4,0.2l-0.1,0.8h-1.5l0-1.6&#10;&#9;&#9;c0.4-0.2,0.8-0.5,1.2-0.6c0.5-0.2,1-0.3,1.5-0.3c0.9,0,1.6,0.2,2.2,0.7c0.6,0.4,0.9,1.1,0.9,1.9v3c0,0.1,0,0.2,0,0.3&#10;&#9;&#9;c0,0.1,0,0.2,0,0.3l0.6,0.1v1.2H642.6z M640.9,366.1c0.3,0,0.6-0.1,0.8-0.2c0.2-0.1,0.4-0.3,0.6-0.5v-1.1h-1c-0.4,0-0.7,0.1-1,0.3&#10;&#9;&#9;c-0.2,0.2-0.3,0.4-0.3,0.7c0,0.2,0.1,0.4,0.2,0.6C640.4,366,640.6,366.1,640.9,366.1z" style="fill: rgb(84, 196, 205);"/>
    <path d="M645.4,366.2l1-0.2v-4.6l-1.1-0.2v-1.2h2.9l0.1,1.1c0.2-0.4,0.5-0.7,0.9-0.9s0.8-0.3,1.2-0.3&#10;&#9;&#9;c0.7,0,1.3,0.2,1.7,0.7c0.4,0.5,0.6,1.2,0.6,2.2v3.2l1,0.2v1.2H650v-1.2l0.8-0.2v-3.2c0-0.5-0.1-0.8-0.3-1s-0.5-0.3-0.9-0.3&#10;&#9;&#9;c-0.3,0-0.5,0.1-0.7,0.2c-0.2,0.1-0.4,0.3-0.5,0.5v3.9l0.8,0.2v1.2h-3.7V366.2z" style="fill: rgb(84, 196, 205);"/>
  </g>
  <g id="medium" transform="matrix(1, 0, 0, 1, -367.0153221893311, -205.55452125549317)">
    <path d="M225.3,447.1c-18.7,0-33.8-15.2-33.8-33.8c0-18.7,15.2-33.8,33.8-33.8c18.6,0,33.8,15.2,33.8,33.8&#10;&#9;&#9;C259.1,431.9,243.9,447.1,225.3,447.1L225.3,447.1z M225.3,382.1c-17.2,0-31.1,14-31.1,31.1c0,17.2,14,31.1,31.1,31.1&#10;&#9;&#9;c17.2,0,31.1-14,31.1-31.1C256.4,396.1,242.4,382.1,225.3,382.1L225.3,382.1z" style="fill: rgb(80, 86, 95);"/>
    <path d="M225.3,443.7c-16.8,0-30.4-13.6-30.4-30.4c0-16.8,13.6-30.4,30.4-30.4c16.8,0,30.4,13.6,30.4,30.4&#10;&#9;&#9;C255.7,430,242.1,443.7,225.3,443.7L225.3,443.7z M225.3,384.2c-16,0-29.1,13-29.1,29c0,16,13,29,29.1,29c16,0,29-13,29-29&#10;&#9;&#9;C254.3,397.2,241.3,384.2,225.3,384.2L225.3,384.2z" style="fill: rgb(84, 196, 205);"/>
    <path d="M329.8,447.1c-18.6,0-33.8-15.2-33.8-33.8c0-18.7,15.2-33.8,33.8-33.8c18.7,0,33.8,15.2,33.8,33.8&#10;&#9;&#9;C363.7,431.9,348.5,447.1,329.8,447.1L329.8,447.1z M329.8,382.1c-17.2,0-31.1,14-31.1,31.1c0,17.2,14,31.1,31.1,31.1&#10;&#9;&#9;c17.2,0,31.1-14,31.1-31.1C360.9,396.1,347,382.1,329.8,382.1L329.8,382.1z" style="fill: rgb(80, 86, 95);"/>
    <path d="M329.8,443.7c-16.8,0-30.4-13.6-30.4-30.4c0-16.8,13.6-30.4,30.4-30.4c16.8,0,30.4,13.6,30.4,30.4&#10;&#9;&#9;C360.2,430,346.6,443.7,329.8,443.7L329.8,443.7z M329.8,384.2c-16,0-29,13-29,29c0,16,13,29,29,29c16,0,29.1-13,29.1-29&#10;&#9;&#9;C358.9,397.2,345.8,384.2,329.8,384.2L329.8,384.2z" style="fill: rgb(84, 196, 205);"/>
    <path d="M331.1,412c-8.4-8.2-12.4-21.8-12.6-22.5l-4.5-18.3c0-0.1,0-0.2-0.1-0.3l-5.1-20.7l6-4.3&#10;&#9;&#9;c0.4-0.3,3.6-2.7,2.7-5.6c-1-3-5.6-4.3-15-4.3c-1,0-1.8,0.8-1.8,1.8c0,1,0.8,1.8,1.8,1.8c9.8,0,11.4,1.6,11.6,1.8&#10;&#9;&#9;c-0.1,0.3-0.6,1-1.3,1.5l-7,5c-0.6,0.4-0.9,1.2-0.7,1.9l2.8,11.4c-1.5,2.5-17.7,29.3-42.6,30.1l-9.6-43c-0.2-1-1.2-1.6-2.2-1.4&#10;&#9;&#9;c-1,0.2-1.6,1.2-1.4,2.2l3.9,17.2l-32,46c0,0,0,0.1,0,0.1c0,0.1-0.1,0.1-0.1,0.2c0,0.1,0,0.1-0.1,0.2c0,0.1,0,0.1,0,0.2&#10;&#9;&#9;c0,0.1,0,0.1,0,0.2c0,0,0,0.1,0,0.1c0,0,0,0,0,0.1c0,0.1,0,0.1,0,0.2c0,0.1,0,0.1,0,0.2c0,0.1,0,0.1,0,0.2c0,0.1,0,0.1,0,0.2&#10;&#9;&#9;c0,0.1,0,0.1,0.1,0.2c0,0.1,0,0.1,0.1,0.2c0,0.1,0.1,0.1,0.1,0.1c0,0,0.1,0.1,0.1,0.1c0,0,0.1,0.1,0.1,0.1c0,0,0.1,0.1,0.2,0.1&#10;&#9;&#9;c0,0,0,0,0.1,0c0,0,0.1,0,0.1,0.1c0,0,0.1,0,0.1,0.1c0.1,0,0.2,0.1,0.3,0.1l0,0c0.1,0,0.2,0.1,0.3,0.1c0,0,0,0,0,0l43.9,4.3&#10;&#9;&#9;c0.1,0,0.1,0,0.2,0c0,0,0,0,0,0h0l0,0c0.1,0,0.2,0,0.4,0c0,0,0,0,0,0c0,0,0,0,0,0c0,0,0.1,0,0.1,0c0.1,0,0.1,0,0.2-0.1c0,0,0,0,0,0&#10;&#9;&#9;c0,0,0.1,0,0.1-0.1c0.1,0,0.1-0.1,0.2-0.1c0,0,0,0,0,0c0,0,0.1,0,0.1-0.1c0,0,0.1-0.1,0.1-0.1c0,0,0,0,0.1,0l0,0l40.7-43.7&#10;&#9;&#9;l3.7,15.3c0,0,0,0,0,0.1c0.2,0.6,4.3,15.1,13.6,24.1c0.3,0.3,0.8,0.5,1.3,0.5c0.5,0,0.9-0.2,1.3-0.6&#10;&#9;&#9;C331.8,413.8,331.8,412.7,331.1,412z M266.9,415.5l-38.3-3.8l28.3-40.7L266.9,415.5z M270.2,413.8l-4.3-19&#10;&#9;&#9;c11.3-0.6,22.5-6.1,32.6-16.1c4.9-4.8,8.4-9.6,10.5-12.7l1.2,4.9L270.2,413.8z" style="fill: rgb(255, 255, 255);"/>
    <path d="M265.6,350.1h-15.2c-6,0-9.6-5.3-9.8-5.5c-0.7-1-0.4-2.4,0.6-3.1c1-0.7,2.4-0.4,3.1,0.6&#10;&#9;&#9;c0,0.1,2.5,3.5,6,3.5h15.2c1.3,0,2.3,1,2.3,2.3C267.8,349.1,266.8,350.1,265.6,350.1L265.6,350.1z" style="fill: rgb(243, 208, 180);"/>
    <path d="M271.9,413.4l3.6-11.7l-2.6-0.8l-3.6,11.7c0,0-0.1,0-0.1,0c-2.8,0-5,2.2-5,5c0,1.8,0.9,3.3,2.3,4.2&#10;&#9;&#9;l-3.6,11.7l2.6,0.8l3.6-11.7c0,0,0.1,0,0.1,0c2.8,0,5-2.2,5-5C274.2,415.8,273.3,414.2,271.9,413.4z" style="fill: rgb(80, 86, 95);"/>
    <path d="M278.7,402.8h-9c-0.9,0-1.6-0.7-1.6-1.6c0-0.9,0.7-1.6,1.6-1.6h9c0.9,0,1.6,0.7,1.6,1.6&#10;&#9;&#9;C280.3,402.1,279.6,402.8,278.7,402.8L278.7,402.8z" style="fill: rgb(84, 196, 205);"/>
    <path d="M268.7,435.4h-9c-0.9,0-1.6-0.7-1.6-1.6c0-0.9,0.7-1.6,1.6-1.6h9c0.9,0,1.6,0.7,1.6,1.6&#10;&#9;&#9;C270.3,434.7,269.6,435.4,268.7,435.4L268.7,435.4z" style="fill: rgb(84, 196, 205);"/>
    <path d="M261.8,409.5c-1.9-18.8-17.6-32.9-36.5-32.9c-20.3,0-36.7,16.5-36.7,36.7c0,0.5,0.4,0.9,0.9,0.9&#10;&#9;&#9;c0.5,0,0.9-0.4,0.9-0.9c0-10.1,4.3-19.2,11.2-25.6L225,413c0,0,0,0,0,0c0,0,0.1,0.1,0.1,0.1c0,0,0,0,0,0c0.1,0,0.1,0,0.2,0l0,0l0,0&#10;&#9;&#9;l0,0c0,0,0,0,0,0c0,0,0,0,0.1,0c0,0,0.1,0,0.1,0c0,0,0,0,0.1,0c0,0,0,0,0.1,0c0,0,0,0,0,0c0,0,0,0,0.1-0.1c0,0,0,0,0-0.1&#10;&#9;&#9;c0,0,0-0.1,0-0.1c0,0,0-0.1,0-0.1c0,0,0,0,0,0l-3-34.1c0.8-0.1,1.7-0.1,2.5-0.1c17.9,0,32.9,13.4,34.7,31.3c0.1,0.5,0.5,0.9,1,0.8&#10;&#9;&#9;C261.5,410.5,261.9,410,261.8,409.5z M224.7,411.4l-22.5-24.2c5.4-4.7,12.2-7.8,19.6-8.6L224.7,411.4z" style="fill: rgb(235, 182, 92);"/>
    <path d="M269.2,407.4L269.2,407.4c0,0-43.3,0.2-43.4,0.2c-2.8,0-5,2.2-5,5c0,2.3,1.6,4.3,3.7,4.8&#10;&#9;&#9;c0.1,0,41.8,9.9,41.8,9.9c0,0,0,0,0,0c0.9,0.3,1.9,0.4,2.9,0.4c5.6,0,10.2-4.6,10.2-10.2C279.4,411.9,274.8,407.4,269.2,407.4z&#10;&#9;&#9; M269.2,426.4c-4.9,0-8.8-4-8.8-8.8c0-4.9,4-8.8,8.8-8.8l0,0c4.9,0,8.8,4,8.8,8.8C278,422.4,274.1,426.4,269.2,426.4z" style="fill: rgb(84, 196, 205);"/>
    <path d="M229.8,412.4c0,2.1-1.7,3.8-3.8,3.8c-2.1,0-3.8-1.7-3.8-3.8c0-2.1,1.7-3.8,3.8-3.8&#10;&#9;&#9;C228.1,408.6,229.8,410.3,229.8,412.4z" style="fill: rgb(255, 255, 255);"/>
    <path d="M302.9,340h-12.3c-1.3,0-2.3-1-2.3-2.3c0-1.2,1-2.3,2.3-2.3h12.3c1.3,0,2.3,1,2.3,2.3&#10;&#9;&#9;C305.2,339,304.2,340,302.9,340L302.9,340z" style="fill: rgb(243, 208, 180);"/>
    <path d="M329.8,378.4c0.5,0,0.9-0.4,0.9-0.9c0-0.5-0.4-0.9-0.9-0.9c-20.2,0-36.6,16.4-36.6,36.7&#10;&#9;&#9;c0,0.5,0.4,0.9,0.9,0.9c0.5,0,0.9-0.4,0.9-0.9c0-0.9,0-1.7,0.1-2.5l34.7,3c0,0,0,0,0,0l0,0l0,0l0,0c0.1,0,0.1,0,0.2,0c0,0,0,0,0,0&#10;&#9;&#9;c0,0,0.1-0.1,0.1-0.1c0,0,0,0,0,0c0,0,0,0,0,0c0,0,0-0.1,0-0.1c0,0,0,0,0-0.1c0,0,0,0,0,0c0,0,0,0,0,0c0,0,0-0.1,0-0.1&#10;&#9;&#9;c0,0,0-0.1,0-0.1c0,0,0,0,0-0.1c0,0,0,0-0.1-0.1c0,0,0,0,0,0l-27.7-21.1C308.8,383.7,318.7,378.4,329.8,378.4z M328.3,412.7&#10;&#9;&#9;l-33.2-2.8c0.6-6.4,3-12.4,6.7-17.3L328.3,412.7z" style="fill: rgb(235, 182, 92);"/>
    <path d="M233.1,357.8c0,1.3-1.1,2.4-2.4,2.4c-1.3,0-2.4-1.1-2.4-2.4c0-1.3,1.1-2.4,2.4-2.4&#10;&#9;&#9;C232.1,355.4,233.1,356.5,233.1,357.8z" style="fill: rgb(80, 86, 95);"/>
    <path d="M 217.89999389648438 352.8999938964844 L 222.10000610351562 350.29998779296875 L 222.3000030517578 355.20001220703125 L 222.5 360.20001220703125 L 218.10000610351562 357.8999938964844 L 213.6999969482422 355.5 Z" style="fill: rgb(243, 208, 180);"/>
    <path d="M349,340.4c0.3,2.4,0.7,4.9,1.1,7.5c2.9,18.8,7.3,33.7,9.8,33.3c2.5-0.4,2.2-16-0.7-34.8&#10;&#9;&#9;c-0.4-2.6-0.8-5.1-1.3-7.5L349,340.4z" style="fill: rgb(243, 208, 180);"/>
    <path d="M354.7,325.1c-1.2,0.7-2.4,1.1-3.5,1.3c-1.2,0.2-2.4,0.1-3.5-0.3c0.3,4.2,0.8,9.1,1.4,14.3l8.7-1.3&#10;&#9;&#9;c-1-5.2-2-9.9-3-14C354.7,325,354.7,325.1,354.7,325.1z" style="fill: rgb(226, 226, 225);"/>
    <path d="M351,307.2c0.2,0.6-0.1,1.3-0.6,2.4c-0.5-2.6-1.7-6.2-5-6.1c1.8,2.5-1.1,10.7-2,14.4&#10;&#9;&#9;c-1.4,6.3,3,12.8,11.1,9.1C360.2,324.3,360.4,309.8,351,307.2z" style="fill: rgb(84, 196, 205);"/>
    <path d="M 366.20001220703125 301.3999938964844 L 367 306.29998779296875 L 362.29998779296875 304.5 L 357.70001220703125 302.6000061035156 L 361.6000061035156 299.6000061035156 L 365.5 296.5 Z" style="fill: rgb(231, 155, 150);"/>
    <path d="M898.7,304.1c0.1-0.4-0.3-0.8-0.7-0.7c-3.7,1.5-6.3-3-10-2.1c-2,0.4-2.8,2.8-3.3,4.5c-0.9,2.9-1,6-1.8,9&#10;&#9;&#9;c-0.1,0.3-0.2,0.6-0.2,0.8c0,0,0,0,0,0c0,0,0,0,0-0.1c-0.9-1.4-2.7-2.7-4.5-2.4c-1.5,0.3-3.4,1.6-3.1,3.4c0.6,3.3,5.3,4.6,7.4,1.8&#10;&#9;&#9;c2.2-2.9,2.3-7,2.9-10.6c0.1,0,0.1,0,0.2,0c1.7-0.3,3.5,1.4,4.9,2c1.5,0.6,2.8,0.7,4.3,0.3C897.2,309.3,898.1,306.3,898.7,304.1z" style="fill: rgb(80, 86, 95);"/>
    <path d="M876.5,308.9c-0.9-0.6-1.6-1.4-2.1-2.3c-0.4-0.6-1.3-0.1-0.9,0.5c0.6,1.1,1.5,2,2.5,2.7&#10;&#9;&#9;C876.5,310.3,877.1,309.3,876.5,308.9z" style="fill: rgb(80, 86, 95);"/>
    <path d="M871.6,311.7c-0.7-0.4-1.5-0.6-2.2-1c-0.6-0.3-1.2,0.6-0.6,0.9c0.7,0.4,1.5,0.6,2.2,1&#10;&#9;&#9;C871.6,313,872.2,312,871.6,311.7z" style="fill: rgb(80, 86, 95);"/>
    <path d="M869.3,317.5c-0.6,0.2-1.2,0.4-1.8,0.7c-0.6,0.3-0.1,1.3,0.5,1c0.5-0.3,1-0.4,1.6-0.6&#10;&#9;&#9;C870.3,318.4,870,317.3,869.3,317.5z" style="fill: rgb(80, 86, 95);"/>
    <path d="M892.8,318.7l-3-0.8c-0.7-0.2-1,0.9-0.3,1.1l3,0.8C893.2,320,893.5,318.9,892.8,318.7z" style="fill: rgb(80, 86, 95);"/>
    <path d="M890.4,322.5c-0.5-0.7-1.2-1.3-1.9-1.7c-0.6-0.4-1.2,0.6-0.6,0.9c0.7,0.4,1.2,0.9,1.7,1.5&#10;&#9;&#9;C890,323.8,890.8,323,890.4,322.5z" style="fill: rgb(80, 86, 95);"/>
    <path d="M886.7,326c-0.4-0.5-0.6-1.1-1.1-1.6c-0.2-0.2-0.6-0.2-0.8,0c-0.2,0.2-0.2,0.5,0,0.8&#10;&#9;&#9;c0.4,0.5,0.6,1.1,1.1,1.6c0.2,0.2,0.6,0.2,0.8,0C886.9,326.5,886.9,326.2,886.7,326z" style="fill: rgb(80, 86, 95);"/>
    <path d="M951.9,354.5l23.1-3.2h11.8c1.2,0,2.3,1.1,2.3,2.4l-9.3,83.3&#10;&#9;&#9;c0,1.3-1,2.4-2.3,2.4h-28.3" style="fill-rule: evenodd; clip-rule: evenodd; fill: rgb(226, 226, 225);"/>
    <path d="M952.1,354.5l-23.1-3.2h-11.8c-1.3,0-2.3,1.1-2.3,2.4l9.3,83.3&#10;&#9;&#9;c0,1.3,1,2.4,2.3,2.4h28.3" style="fill-rule: evenodd; clip-rule: evenodd; fill: rgb(226, 226, 225);"/>
    <path d="M961.6,439.5c0,5.6-4.5,10-10,10c-5.6,0-10-4.5-10-10&#10;&#9;&#9;c0-5.5,4.5-10,10-10C957.1,429.4,961.6,433.9,961.6,439.5z" style="fill-rule: evenodd; clip-rule: evenodd; fill: rgb(80, 86, 95);"/>
    <ellipse cx="951.6" cy="439.5" rx="5" ry="5" style="fill-rule: evenodd; clip-rule: evenodd; fill: rgb(243, 208, 180); stroke: rgb(243, 208, 180); stroke-width: 0.8039; stroke-miterlimit: 10;"/>
    <path d="M990.9,353.1c0,1.3-1.1,2.4-2.4,2.4h-73.9c-1.3,0-2.4-1.1-2.4-2.4&#10;&#9;&#9;v-2.6c0-1.3,1.1-2.4,2.4-2.4h73.9c1.3,0,2.4,1.1,2.4,2.4V353.1z" style="fill-rule: evenodd; clip-rule: evenodd; fill: rgb(128, 205, 200);"/>
    <path d="M985.3,349.3c0,1.1-0.9,2-2,2h-63.3c-1.1,0-2-0.9-2-2v-2.2&#10;&#9;&#9;c0-1.1,0.9-2,2-2h63.3c1.1,0,2,0.9,2,2V349.3z" style="fill-rule: evenodd; clip-rule: evenodd; fill: rgb(128, 205, 200);"/>
    <path d="M981.7,348.8c0,1.6-0.8-2.3-1.8-2.3h-56.7c-1,0-1.8-1.3-1.8-2.9&#10;&#9;&#9;v-3.1c0-1.6,0.8-2.9,1.8-2.9l56.7,5.2c1,0,1.8,1.3,1.8,2.9V348.8z" style="fill-rule: evenodd; clip-rule: evenodd; fill: rgb(128, 205, 200);"/>
    <path d="M949,377.1c2.2,0,4.5,0,6.9,0c0.8,0,1.3,0.5,1.7,1.2&#10;&#9;&#9;c0.5,0.9,1,1.8,1.6,2.8c0.6-0.3,1.1-0.6,1.7-0.9c0,0,0.1,0.1,0.1,0.1c-0.3,0.5-0.6,1.1-0.9,1.6c-0.6,1-1.2,2.1-1.8,3.1&#10;&#9;&#9;c-0.1,0.2-0.4,0.4-0.6,0.4c-1.9,0-3.7,0-5.6-0.1c0.5-0.3,1-0.6,1.6-1c-0.3-0.5-0.6-1-0.8-1.5c-0.7-1.2-1.3-2.5-2.1-3.6&#10;&#9;&#9;C950.2,378.4,949.5,377.7,949,377.1z" style="fill-rule: evenodd; clip-rule: evenodd; fill: rgb(255, 255, 255);"/>
    <path d="M948,387.1c-1.9-1.1-3.7-2.1-5.5-3.2c1.1-1.8,2-3.6,3.2-5.3&#10;&#9;&#9;c0.9-1.4,3-1.2,3.9,0.2c0.5,0.8,1,1.6,1.4,2.5c0.1,0.2,0.1,0.4,0,0.6C950,383.6,949,385.3,948,387.1z" style="fill-rule: evenodd; clip-rule: evenodd; fill: rgb(255, 255, 255);"/>
    <path d="M964.6,395c-1,1.9-2.2,4-3.3,6c-0.4,0.7-1.1,0.9-1.8,0.9&#10;&#9;&#9;c-1,0-2.1,0-3.2,0.1c0,0.7,0,1.3,0,1.9c0,0-0.1,0-0.1,0.1c-0.3-0.5-0.7-1.1-1-1.6c-0.6-1-1.2-2-1.8-3c-0.1-0.2-0.2-0.6-0.1-0.8&#10;&#9;&#9;c0.9-1.6,1.8-3.2,2.8-4.9c0,0.6,0.1,1.2,0.1,1.9c0.6,0,1.1,0,1.7,0c1.4,0,2.8,0,4.2-0.1C962.9,395.4,963.8,395.1,964.6,395z" style="fill-rule: evenodd; clip-rule: evenodd; fill: rgb(255, 255, 255);"/>
    <path d="M956.3,389.2c1.9-1.1,3.6-2.2,5.5-3.3c1.1,1.8,2.2,3.5,3.1,5.3&#10;&#9;&#9;c0.8,1.5-0.4,3.2-2.1,3.4c-0.9,0.1-1.9,0.1-2.8,0.1c-0.2,0-0.4-0.1-0.5-0.3C958.5,392.7,957.4,391,956.3,389.2z" style="fill-rule: evenodd; clip-rule: evenodd; fill: rgb(255, 255, 255);"/>
    <path d="M964.6,395c-1,1.9-2.2,4-3.3,6c-0.4,0.7-1.1,0.9-1.8,0.9&#10;&#9;&#9;c-1,0-2.1,0-3.2,0.1c0,0.7,0,1.3,0,1.9c0,0-0.1,0-0.1,0.1c-0.3-0.5-0.7-1.1-1-1.6c-0.6-1-1.2-2-1.8-3c-0.1-0.2-0.2-0.6-0.1-0.8&#10;&#9;&#9;c0.9-1.6,1.8-3.2,2.8-4.9c0,0.6,0.1,1.2,0.1,1.9c0.6,0,1.1,0,1.7,0c1.4,0,2.8,0,4.2-0.1C962.9,395.4,963.8,395.1,964.6,395z" style="fill-rule: evenodd; clip-rule: evenodd; fill: rgb(255, 255, 255);"/>
    <path d="M956.3,389.2c1.9-1.1,3.6-2.2,5.5-3.3c1.1,1.8,2.2,3.5,3.1,5.3&#10;&#9;&#9;c0.8,1.5-0.4,3.2-2.1,3.4c-0.9,0.1-1.9,0.1-2.8,0.1c-0.2,0-0.4-0.1-0.5-0.3C958.5,392.7,957.4,391,956.3,389.2z" style="fill-rule: evenodd; clip-rule: evenodd; fill: rgb(255, 255, 255);"/>
    <path d="M941.5,399.4c-1.1-1.9-2.2-3.9-3.3-6c-0.4-0.7-0.2-1.4,0.2-2&#10;&#9;&#9;c0.5-0.9,1.1-1.8,1.6-2.7c-0.6-0.4-1.1-0.7-1.6-1c0,0,0-0.1,0-0.1c0.6,0,1.2,0,1.9,0c1.2,0,2.4,0,3.6,0.1c0.2,0,0.6,0.1,0.7,0.3&#10;&#9;&#9;c0.9,1.6,1.8,3.2,2.6,5c-0.5-0.3-1.1-0.6-1.7-0.9c-0.3,0.5-0.6,1-0.9,1.5c-0.7,1.2-1.5,2.4-2.1,3.6&#10;&#9;&#9;C942,397.8,941.8,398.6,941.5,399.4z" style="fill-rule: evenodd; clip-rule: evenodd; fill: rgb(255, 255, 255);"/>
    <path d="M950.8,395.4c0,2.2-0.1,4.2-0.1,6.4c-2.1-0.1-4.2,0-6.2-0.2&#10;&#9;&#9;c-1.7-0.2-2.5-2-1.8-3.5c0.4-0.8,0.9-1.6,1.5-2.4c0.1-0.1,0.3-0.3,0.5-0.3C946.6,395.4,948.7,395.4,950.8,395.4z" style="fill-rule: evenodd; clip-rule: evenodd; fill: rgb(255, 255, 255);"/>
    <path d="M971.5,317.9c0,1.3-1.1,2.4-2.4,2.4c-1.3,0-2.4-1.1-2.4-2.4c0-1.3,1.1-2.4,2.4-2.4&#10;&#9;&#9;C970.4,315.5,971.5,316.6,971.5,317.9z" style="fill: rgb(80, 86, 95);"/>
    <ellipse cx="893.2" cy="423.7" rx="2.4" ry="2.4" style="fill: rgb(80, 86, 95);"/>
    <path d="M 895.2999877929688 408 L 899.9000244140625 406 L 899.2999877929688 411 L 898.7000122070312 415.8999938964844 L 894.7000122070312 412.8999938964844 L 890.7999877929688 409.8999938964844 Z" style="fill: rgb(80, 86, 95);"/>
    <ellipse cx="330.7" cy="318.9" rx="2.4" ry="2.4" style="fill: rgb(80, 86, 95);"/>
    <path d="M805.2,270.5c17.9-9.5,40-2.7,49.5,15.1&#10;&#9;&#9;c9.5,17.9,2.7,40-15.1,49.5c-17.9,9.5-40,2.7-49.5-15.1C780.5,302.2,787.3,280,805.2,270.5" style="fill-rule: evenodd; clip-rule: evenodd; fill: rgb(50, 48, 50);"/>
    <path d="M816,291c6.6-3.5,14.7-1,18.2,5.6c3.5,6.6,1,14.7-5.6,18.2&#10;&#9;&#9;c-6.6,3.5-14.7,1-18.2-5.6C807,302.6,809.5,294.5,816,291" style="fill-rule: evenodd; clip-rule: evenodd; fill: rgb(255, 255, 255);"/>
    <path d="M821.5,301.2c0.9-0.5,2-0.1,2.5,0.8c0.5,0.9,0.1,2-0.8,2.5&#10;&#9;&#9;c-0.9,0.5-2,0.1-2.5-0.8C820.2,302.8,820.6,301.7,821.5,301.2" style="fill-rule: evenodd; clip-rule: evenodd; fill: rgb(80, 86, 95);"/>
    <path d="M811.9,297.7l0.3,4.4l-1.4,0.8&#10;&#9;&#9;C810.8,301.1,811.2,299.3,811.9,297.7" style="fill-rule: evenodd; clip-rule: evenodd; fill: rgb(84, 196, 205);"/>
    <path d="M814.7,294l0.5,6.5l-1.5,0.8l-0.4-5.8&#10;&#9;&#9;C813.7,295,814.1,294.5,814.7,294" style="fill-rule: evenodd; clip-rule: evenodd; fill: rgb(84, 196, 205);"/>
    <path d="M817.6,292.2l0.5,6.8l-1.5,0.8l-0.5-6.8c0.3-0.2,0.5-0.3,0.8-0.5&#10;&#9;&#9;C817.1,292.4,817.3,292.3,817.6,292.2" style="fill-rule: evenodd; clip-rule: evenodd; fill: rgb(84, 196, 205);"/>
    <path d="M820.6,291.3l0.4,6.1l-1.5,0.8l-0.5-6.6&#10;&#9;&#9;C819.6,291.5,820.1,291.4,820.6,291.3" style="fill-rule: evenodd; clip-rule: evenodd; fill: rgb(84, 196, 205);"/>
    <path d="M823.6,291.3l0.3,4.6l-1.5,0.8l-0.4-5.5&#10;&#9;&#9;C822.6,291.2,823.1,291.2,823.6,291.3" style="fill-rule: evenodd; clip-rule: evenodd; fill: rgb(84, 196, 205);"/>
    <path d="M826.7,292.1l0.2,2.3l-1.5,0.8l-0.3-3.6&#10;&#9;&#9;C825.6,291.7,826.1,291.9,826.7,292.1" style="fill-rule: evenodd; clip-rule: evenodd; fill: rgb(84, 196, 205);"/>
    <path d="M828.8,293.3l-0.6,0.3l0-0.7C828.4,293,828.6,293.1,828.8,293.3" style="fill-rule: evenodd; clip-rule: evenodd; fill: rgb(84, 196, 205);"/>
    <path d="M389.8,269.7l-7.4,1.7c0,0-8.4,1.4-6.8,8.3c1.6,6.9,7.6,32.5,7.6,32.5s0.4,5.1,6.8,3.6&#10;&#9;&#9;c6.4-1.5,60.8-14.2,60.8-14.2s5.3-0.5,3.9-6.3c-1.4-5.8-7.5-31.9-7.5-31.9s-1-6-9.9-4c-8.9,2.1-39,8.1-39,8.1s0.2,0.7-1.5,1.1&#10;&#9;&#9;c-1.7,0.4-5.3,1.2-5.3,1.2S390.5,270.2,389.8,269.7z" style="fill: rgb(84, 196, 205);"/>
    <path d="&#10;&#9;&#9;M443.5,269.8c0.3,1.9-0.9,3.7-2.8,4.1l-39,9.1c-1.9,0.4-3.8-0.7-4.4-2.5l-20.5,4.8l6.3,27.2l71.6-16.7l-6.4-27.2L443.5,269.8z" style="fill: rgb(226, 226, 225); stroke: rgb(226, 226, 225); stroke-width: 0.5572; stroke-linecap: round; stroke-linejoin: round; stroke-miterlimit: 10;"/>
    <path d="M397.2,304.1c-0.4-1.9-2.4-3.1-4.3-2.6c-1.9,0.4-3.1,2.4-2.7,4.3c0.5,1.9,2.4,3.1,4.3,2.6&#10;&#9;&#9;C396.5,307.9,397.7,306,397.2,304.1z" style="fill: rgb(255, 255, 255);"/>
    <path d="M396.6,304.2c-0.4-1.6-1.9-2.6-3.5-2.2c-1.6,0.4-2.6,1.9-2.2,3.5c0.4,1.6,1.9,2.6,3.5,2.2&#10;&#9;&#9;C396,307.4,397,305.8,396.6,304.2z" style="fill: rgb(80, 86, 95);"/>
    <path d="M418.9,310.3c-10.1,2.4-20.2-3.9-22.6-14c-2.4-10.1,3.9-20.2,14-22.6c10.1-2.4,20.2,3.9,22.6,14&#10;&#9;&#9;C435.3,297.8,429,307.9,418.9,310.3z" style="fill: rgb(50, 48, 50);"/>
    <path d="M424.5,289.6c-1.3-5.5-6.7-8.8-12.2-7.6c-5.5,1.3-8.8,6.7-7.6,12.2c1.3,5.5,6.7,8.8,12.2,7.6&#10;&#9;&#9;C422.4,300.5,425.8,295.1,424.5,289.6z" style="fill: rgb(255, 255, 255);"/>
    <path d="M396.3,277.4c0.1,0.4-0.1,0.8-0.5,0.9l-15.2,3.6c-0.4,0.1-0.8-0.2-0.9-0.6l-0.7-3c-0.1-0.4,0.1-0.8,0.5-0.9&#10;&#9;&#9;l15.2-3.6c0.4-0.1,0.8,0.2,0.9,0.6L396.3,277.4z" style="fill: rgb(255, 255, 255);"/>
    <path d="M398.9,267.1c-0.1-0.4-0.5-1.2-1.4-1.2c-0.1,0-0.3,0-0.4,0.1l-0.1,0l-0.2-0.9c-0.1-0.5-0.5-1.2-1.2-1.2&#10;&#9;&#9;c-0.1,0-0.2,0-0.2,0c-0.7,0.2-2,0.5-2,0.5s-1.3,0.3-2,0.5c-0.3,0.1-0.5,0.2-0.6,0.5c-0.3,0.5-0.1,1.2-0.1,1.2l0.2,0.9&#10;&#9;&#9;c0,0,0,0-0.1,0c-0.6,0.1-0.9,0.4-1,0.7c-0.3,0.5-0.2,1.1-0.2,1.1l0.3,1.4l0.4,0c0.3,0,0.6-0.1,0.6-0.1c0,0,4.7-1,6.9-1.5&#10;&#9;&#9;c0.5-0.1,0.9-0.2,1.2-0.4l0.3-0.2L398.9,267.1z" style="fill: rgb(80, 86, 95);"/>
    <path d="M437,261l-5.6,1.3l-0.9,0.2l-5.6,1.3c-1.6,0.4-2.6,2-2.2,3.6l1.3,5.5c0.4,1.6,2,2.6,3.6,2.2l5.6-1.3&#10;&#9;&#9;l0.9-0.2l5.6-1.3c1.6-0.4,2.6-2,2.2-3.6l-1.3-5.5C440.2,261.7,438.6,260.7,437,261z" style="fill: rgb(255, 255, 255);"/>
    <path d="M437.2,262l-5.6,1.3l-0.9,0.2l-5.6,1.3c-1.1,0.2-1.7,1.3-1.5,2.4l1.3,5.5c0.2,1.1,1.3,1.7,2.4,1.5l5.6-1.3&#10;&#9;&#9;l0.9-0.2l5.6-1.3c1.1-0.2,1.7-1.3,1.5-2.4l-1.3-5.5C439.3,262.4,438.3,261.8,437.2,262z" style="fill: rgb(228, 235, 235);"/>
    <path d="M437.4,262.7l-5.6,1.3l-0.9,0.2l-5.6,1.3c-0.7,0.2-1.1,0.8-0.9,1.5l1.3,5.5c0.2,0.7,0.8,1.1,1.5,0.9&#10;&#9;&#9;l5.6-1.3l0.9-0.2l5.6-1.3c0.7-0.2,1.1-0.8,0.9-1.5l-1.3-5.5C438.7,263,438,262.6,437.4,262.7z" style="fill: rgb(84, 196, 205);"/>
    <path d="M869.4,358.9c0,0,16.4,0.3,25.6-12.5c1.5,4.6,4.3,11.3,17.9,16.4l4.3-4.1l-19.8-21.3c0,0-27.4,4.7-37.3,7.5&#10;&#9;&#9;C862.1,346.6,868.3,351,869.4,358.9z" style="fill: rgb(80, 86, 95);"/>
    <path d="M917.1,359.3c0,0,12.5,12.5,13.4,16.7c0.9,4.3-2.9-2.1-5-3c-2.1-0.9-7.6-4-9.1-4.6&#10;&#9;&#9;c-1.5-0.6-1.1-3.5-0.8-4.4c0.3-0.9-1.4-2.3-1.4-2.3l2.9-2.8" style="fill: rgb(243, 208, 180);"/>
    <path d="M862.5,445.1c0,0,4.7-1.1,9.4,1.5c4.7,2.6,1.2,3.3-0.9,2.6c-2.1-0.8-11-1.2-11-1.2L862.5,445.1z" style="fill: rgb(243, 208, 180);"/>
    <path d="M870.3,405.2c11.9,1.5,10.3-12.5,10.3-12.5c3.2,1.9,2.4,0,1.9-1.8c-0.7-2.3-1.9-2.1-1.9-2.1&#10;&#9;&#9;c-0.8-7.3-7.9-7.3-7.9-7.3s-10.4,4.3-10.5,10.6c0,6.3-5.2,9.7-3.2,11.2C861,404.8,870.3,405.2,870.3,405.2z" style="fill: rgb(243, 208, 180);"/>
    <path d="M874.5,391.1c0,0,3.8,2.9,3.8-1.7" style="fill: none; stroke: rgb(50, 48, 50); stroke-width: 0.8397; stroke-miterlimit: 10;"/>
    <ellipse cx="871.8" cy="397.3" rx="2.7" ry="2.7" style="fill: rgb(231, 155, 150);"/>
    <path d="M877.6,398.4c0,0,2.4-0.5,2.7-1.6c0.3-1.1,1.3,1.5,0.6,2c-0.7,0.5,0.3-0.6,0.1,0.6&#10;&#9;&#9;c-0.2,1.2-0.9,1.7-2.2,0.3C877.6,398.4,877.6,398.4,877.6,398.4z" style="fill: rgb(231, 155, 150);"/>
    <path d="M861,343.8c0,0-24.6,3.5-32.4,17.8c-7.8,14.3-10.3,47.9,30.7,49.7c-0.5,12.8,0.9,36.8,0.9,36.8&#10;&#9;&#9;s2.7-3,3.2-2.9c0.5,0.1,6.8-40,6.8-40s-0.5-7.5-5.2-4.4c-4,2.6-4.1-3.4-4.1-3.4s-16.1-3.1-16.4-16.8c-0.2-4.6,2.3-12.2,6.2-12.2&#10;&#9;&#9;c4,0,10.2,1.2,13.2-1.2c3-2.4,6.2-8.5,6.2-8.5S874,347.6,861,343.8z" style="fill: rgb(84, 196, 205);"/>
    <path d="M868.1,382.4c0,4.1-3.3,7.3-7.3,7.3c-4,0-7.3-3.3-7.3-7.3c0-4,3.3-7.3,7.3-7.3&#10;&#9;&#9;C864.9,375.1,868.1,378.3,868.1,382.4z" style="fill: rgb(50, 48, 50);"/>
    <path d="M859.8,389.7c0.2-0.9-5.7,5.1,1,9.9c1.9,1.3,1.9-3.3,1.9-7.4c0-4.1,5.7,1.3,6.3-1.5&#10;&#9;&#9;c1.7-7.3,11.5-2.2,9.3-7.7c-0.7-1.8-6.5-8.9-13,0.5" style="fill: rgb(50, 48, 50);"/>
    <path d="M 792 252.5 L 793.5999755859375 247.89999389648438 L 796.9000244140625 251.60000610351562 L 800.0999755859375 255.39999389648438 L 795.2000122070312 256.29998779296875 L 790.2999877929688 257.20001220703125 Z" style="fill: rgb(243, 208, 180);"/>
    <path d="M808.8,342.8c0-0.2,0.1-0.3,0.1-0.5C808.8,342.5,808.8,342.7,808.8,342.8z" style="fill: rgb(35, 31, 32);"/>
    <path d="M809.2,340.7c0,0.1,0,0.2-0.1,0.3C809.2,340.9,809.2,340.8,809.2,340.7z" style="fill: rgb(35, 31, 32);"/>
    <path d="M809.8,338.6C809.8,338.6,809.8,338.6,809.8,338.6C809.8,338.6,809.8,338.6,809.8,338.6z" style="fill: rgb(35, 31, 32);"/>
    <path d="M809.3,340.3c0,0.1,0,0.1-0.1,0.2C809.3,340.4,809.3,340.3,809.3,340.3z" style="fill: rgb(35, 31, 32);"/>
    <path d="M808.9,342.2c0-0.1,0.1-0.3,0.1-0.4C808.9,341.9,808.9,342.1,808.9,342.2z" style="fill: rgb(35, 31, 32);"/>
    <path d="M809.6,339C809.6,339,809.6,339,809.6,339C809.6,339,809.6,339,809.6,339z" style="fill: rgb(35, 31, 32);"/>
    <path d="M 801.5999755859375 371.6000061035156 L 801.5999755859375 375.8999938964844 L 801.5999755859375 375.8999938964844 Z" style="fill: rgb(238, 151, 192);"/>
    <rect x="689" y="403.8" width="9.6" height="17.8" transform="matrix(0.6933 0.7206 -0.7206 0.6933 510.1541 -373.4142)" style="fill: rgb(255, 255, 255);"/>
    <path d="M670.4,424.8l9.7,10.5l30.7-26.6l1.3-1.1L700.3,395L670.4,424.8z M695.7,406.3c0.6-0.6,1.6-0.5,2.2,0.1&#10;&#9;&#9;l2.6,2.8c0.6,0.6,0.6,1.6-0.1,2.2l-8.1,7.6c-0.6,0.6-1.6,0.5-2.2-0.1l-2.6-2.8c-0.6-0.6-0.5-1.6,0.1-2.2L695.7,406.3z" style="fill: rgb(128, 205, 200);"/>
    <rect x="691.4" y="407" width="4.7" height="11.6" transform="matrix(0.6807 0.7325 -0.7325 0.6807 523.9285 -376.4444)" style="fill: rgb(80, 86, 95);"/>
    <path d="M722.1,403.5l-0.3-0.3v0l0,0l-2.6-2.8v0h0l0,0l-2.6-2.8l0,0l0,0L716,397l0,0l-2.3-2.5l0,0l0,0l-0.3-0.3l0,0&#10;&#9;&#9;l-2.3-2.5v0l0,0l-0.3-0.3l0,0l-2-2.1h0l-0.3-0.3l0,0l0,0l-2.3-2.5l0,0l-0.3-0.3v-0.1h0l-2-2.2l-0.3,0.4c-0.1,0.2-0.2,0.3-0.4,0.5&#10;&#9;&#9;l0-0.2l-0.9,1.6c-0.4,0.7-0.8,1.5-1.1,2.3l-0.1,0.2h0l0,0.1l-0.1,0.3h0c-0.2,0.7-0.4,1.5-0.5,2.3l0,0.1h0l0,0.2l0,0.2h0l0,0&#10;&#9;&#9;c-0.1,0.8-0.1,1.5-0.1,2.3l0,0h0l0,0.2l0,0.1h0l0,0.3c0,0.2,0.1,0.5,0.3,0.6l1.7,1.8l0,0.1l0.1,0l0.3,0.3l0,0l2.3,2.5l0,0.1l0.1,0&#10;&#9;&#9;l0.3,0.3v0l2.3,2.5l0,0.1l0.1,0l0.3,0.3l0,0l2.1,2.2l0,0l0.3,0.3l0,0.1l0.1,0l1.7,1.8c0.2,0.2,0.4,0.3,0.6,0.3l0.3,0v0l0.1,0l0.3,0&#10;&#9;&#9;v0l0,0c0.4,0,0.8,0.1,1.2,0.1l0,0c0.4,0,0.8,0,1.2,0l0,0v0l0.2,0l0.2,0v0l0.1,0c0.8-0.1,1.5-0.2,2.3-0.4v0l0.3-0.1l0.1,0v0l0.2-0.1&#10;&#9;&#9;c0.8-0.2,1.6-0.5,2.4-0.9l0.2-0.1l0-0.4l0.6,0l0.1-0.1c0.3-0.2,0.6-0.4,1-0.6l0.4-0.3L722.1,403.5L722.1,403.5z" style="fill: rgb(50, 48, 50);"/>
    <path d="M729.7,395L729.7,395c0.1-0.8,0.1-1.6,0.1-2.4v0h0l0-0.2l0-0.2h0l0-0.1c-0.1-0.8-0.2-1.5-0.4-2.3h0&#10;&#9;&#9;l-0.1-0.3l0,0h0l-0.1-0.2c-0.2-0.7-0.5-1.5-0.8-2.2l-0.8-1.7l0,0.2c-0.3-0.5-0.6-0.9-1-1.4l0.1,0l-0.8-0.8c0,0-0.1-0.1-0.1-0.1&#10;&#9;&#9;c0,0-0.1-0.1-0.1-0.1l-0.4-0.4v0l-0.1-0.1l-0.3-0.3v0c-0.4-0.4-0.8-0.7-1.3-1.1l0.2,0l-1.7-0.9c-0.7-0.4-1.4-0.7-2.1-1l-0.2-0.1&#10;&#9;&#9;l0,0l0,0l-0.3-0.1v0c-0.7-0.2-1.5-0.4-2.3-0.5l-0.1,0v0l-0.1,0l-0.3,0v0l0,0c-0.4,0-0.8-0.1-1.2-0.1l-0.1,0c-0.3,0-0.7,0-1,0l0,0v0&#10;&#9;&#9;l-0.2,0l-0.2,0v0l-0.1,0c-0.8,0.1-1.5,0.2-2.3,0.3v0l-0.3,0.1l-0.1,0v0l-0.2,0.1c-0.8,0.2-1.6,0.5-2.3,0.8l-1.7,0.8l0.2,0&#10;&#9;&#9;c-0.1,0.1-0.2,0.1-0.3,0.2l-0.5,0.3l1.8,2l0,0l0.2,0.2l0.2,0.2l0,0l2.3,2.4l0,0l0,0l0.3,0.3l0,0l2.3,2.5l0,0l0,0l0.3,0.3l0,0&#10;&#9;&#9;l2.3,2.5l0,0l0.1,0.1l0.3,0.3l0,0l2.3,2.5l0,0l0,0l0.3,0.4h0l2.7,2.9l0,0l0,0l0,0l2.6,2.8v0l0,0l1.8,1.9l0.3-0.4&#10;&#9;&#9;c0.1-0.1,0.1-0.2,0.2-0.3l0,0.2l0.9-1.7c0.4-0.7,0.7-1.4,1-2.2l0.1-0.2l0,0l0-0.1l0.1-0.3h0c0.2-0.7,0.4-1.5,0.5-2.3l0-0.1l0,0&#10;&#9;&#9;l0-0.1L729.7,395L729.7,395z" style="fill: rgb(50, 48, 50);"/>
    <path d="M726.3,402.4l-19.8-21.3c-0.8-0.9-3.7,1.8-2.9,2.7l19.8,21.3C724.1,405.8,727,403.1,726.3,402.4z" style="fill: rgb(243, 208, 180);"/>
    <rect x="659.2" y="437.2" width="2.5" height="13.2" transform="matrix(-0.6812 -0.7321 0.7321 -0.6812 785.399 1229.6602)" style="fill: rgb(84, 196, 205);"/>
    <path d="M 663.7999877929688 434.79998779296875 L 669.7000122070312 441.20001220703125 L 680.5999755859375 434.70001220703125 L 671 424.3999938964844 Z" style="fill: rgb(243, 208, 180);"/>
    <path d="M669.6,441.7l-6.4-6.9l7.7-11.1l10.4,11.1L669.6,441.7z M664.3,434.7l5.4,5.9l10.1-6l-8.8-9.5L664.3,434.7z&#10;&#9;&#9;" style="fill: rgb(243, 208, 180);"/>
    <path d="M 663.2000122070312 437.1000061035156 L 666.0999755859375 440.20001220703125 L 667.2999877929688 441.6000061035156 L 668.5 440.5 L 664.4000244140625 436 Z" style="fill: rgb(84, 196, 205);"/>
    <path d="M749.7,436.4c4,9.2,20,17.5,45.4,6.3l0,0c0,0,0,0,0,0l0,0l0,0c25.4-11.1,30.1-28.5,26.1-37.7&#10;&#9;&#9;c-4-9.2-15.5-17.7-16.7-20.4c-1.2-2.7,1.3-5.2-1.1-6.4c-2.4-1.2-2.8,6.1-8.5,3.7c-5.7-2.4-11.3-12-13.4-16.7&#10;&#9;&#9;c-2.1-4.7-1.9-11.6,4.8-11.2c0,0,2.7-0.2-1.8-3.6c-4.5-3.5,0.3-7.6-4.3-18.1c-4.6-10.5-15.7-19.1-37.6-9.5l0,0l0,0l0,0l0,0&#10;&#9;&#9;c-21.8,9.6-23.1,23.6-18.5,34.1c4.6,10.5,10.8,9.8,10.3,15.4c-0.5,5.6,1.5,3.8,1.5,3.8c4.2-5.3,9.4-0.7,11.4,4.1&#10;&#9;&#9;c2.1,4.7,5.3,15.4,3.2,21.2c-2.1,5.8-7.7,1.2-8.5,3.7c-0.8,2.6,2.7,2.4,3.9,5.1C747.1,413,745.6,427.2,749.7,436.4z" style="fill: rgb(226, 226, 225);"/>
    <path d="M 762.7000122070312 391.8999938964844 L 763.2000122070312 392.8999938964844 L 765.0999755859375 392.1000061035156 L 773.7000122070312 394.20001220703125 L 778 386.3999938964844 L 780 385.6000061035156 L 779.5 384.6000061035156 Z" style="fill: rgb(255, 255, 255);"/>
    <path d="M795,388.7c-0.2-0.5-1.7-0.1-2.1-1.1c-0.5-1.1-0.3-1.8,0.9-2.3c1.2-0.5,2.2,0.2,2.6,1.1c0.4,0.9,1,3.7-2,5&#10;&#9;&#9;c-4.2,1.8-7.8-2.5-8.9-4.9c0,0-5.2-10.9-6.1-11.9c-0.9-1-2.1-3.3-4.1-2.4c-2,0.9-0.8,2.4,0.2,2.3c0.5,0,1.3,1.3-0.2,1.9&#10;&#9;&#9;c-1.5,0.6-4.4-3.3-0.3-5.2c4.1-1.8,8.4,6.3,10,10c1.6,3.6,4.7,11.2,9.2,9.4C796.3,389.8,795,388.7,795,388.7z" style="fill: rgb(80, 86, 95);"/>
    <path d="M755.3,406.2c-0.2-0.5,1.1-1.3,0.6-2.3c-0.5-1.1-1.1-1.4-2.3-0.9c-1.2,0.5-1.3,1.7-0.9,2.7&#10;&#9;&#9;c0.4,0.9,2,3.3,5,2c4.2-1.8,3.4-7.4,2.4-9.8c0,0-4.5-11.3-4.6-12.6c-0.2-1.4-1-3.8,1-4.7c2-0.9,2.3,1,1.6,1.7&#10;&#9;&#9;c-0.4,0.3,0.1,1.8,1.6,1.1c1.5-0.7,0.5-5.5-3.6-3.7c-4.1,1.8-1.1,10.5,0.5,14.1c1.6,3.6,5.1,11,0.7,13.2&#10;&#9;&#9;C755.2,407.8,755.3,406.2,755.3,406.2z" style="fill: rgb(80, 86, 95);"/>
    <path d="M 712.5999755859375 260.70001220703125 L 753.2000122070312 365.79998779296875 L 766.7999877929688 359.8999938964844 L 717.0999755859375 258.70001220703125 Z" style="fill: rgb(128, 205, 200);"/>
    <path d="M708.3,257.9l0.9-0.4l1.1,2.5l1-0.4l7.2,19.2l1.6-0.7l-6-17.8l0.7-0.3l0.7-0.3l9,16.5l1.6-0.7L717,257&#10;&#9;&#9;l1-0.4l-1.1-2.5l0.9-0.4c0,0,1.6-1.4,0.8-3.2c-0.8-1.8-3.2-1-3.2-1l-1.4-0.6l-1.1,0.5l-0.8-1.6l-0.7-0.1c0,0-0.3-1.4-2.1-0.6&#10;&#9;&#9;c-1.8,0.8-1,2-1,2l-0.4,0.6l0.7,1.7l-1.1,0.5l-0.5,1.4c0,0-2.2,1.3-1.4,3C706.2,258.1,708.3,257.9,708.3,257.9z" style="fill: rgb(50, 48, 50);"/>
    <rect x="727.7" y="264.6" width="1.9" height="4.1" transform="matrix(-0.9149 0.4036 -0.4036 -0.9149 1502.9408 216.6477)" style="fill: rgb(50, 48, 50);"/>
    <path d="M728.8,266.6c0.8,1.7,2.8,2.5,4.5,1.8c1.7-0.8,2.5-2.8,1.8-4.5c-0.8-1.7-2.8-2.5-4.5-1.8&#10;&#9;&#9;C728.8,262.9,728,264.9,728.8,266.6z" style="fill: rgb(50, 48, 50);"/>
    <rect x="722.4" y="267.2" width="5.7" height="2" transform="matrix(-0.9158 0.4017 -0.4017 -0.9158 1497.0344 222.5377)" style="fill: rgb(50, 48, 50);"/>
    <rect x="723.9" y="256.1" width="1.9" height="4.1" transform="matrix(-0.9164 0.4002 -0.4002 -0.9164 1492.4905 204.5961)" style="fill: rgb(50, 48, 50);"/>
    <path d="M725,258.1c0.8,1.7,2.8,2.5,4.5,1.8c1.7-0.8,2.5-2.8,1.8-4.5c-0.8-1.7-2.8-2.5-4.5-1.8&#10;&#9;&#9;C725.1,254.3,724.3,256.3,725,258.1z" style="fill: rgb(50, 48, 50);"/>
    <rect x="718.6" y="258.7" width="5.7" height="2" transform="matrix(-0.9158 0.4017 -0.4017 -0.9158 1486.3909 207.6045)" style="fill: rgb(50, 48, 50);"/>
    <rect x="711" y="277.1" width="1.9" height="4.1" transform="matrix(0.9161 -0.4011 0.4011 0.9161 -52.1866 308.9558)" style="fill: rgb(50, 48, 50);"/>
    <path d="M711.8,279.2c0.8,1.7,0,3.8-1.8,4.5c-1.7,0.8-3.8,0-4.5-1.8c-0.8-1.7,0-3.8,1.8-4.5&#10;&#9;&#9;C709,276.7,711,277.5,711.8,279.2z" style="fill: rgb(50, 48, 50);"/>
    <rect x="712.6" y="276.6" width="5.7" height="2" transform="matrix(0.9159 -0.4013 0.4013 0.9159 -51.2804 310.4393)" style="fill: rgb(50, 48, 50);"/>
    <rect x="707.4" y="268.4" width="1.9" height="4.1" transform="matrix(0.9161 -0.4009 0.4009 0.9161 -49.0159 306.674)" style="fill: rgb(50, 48, 50);"/>
    <path d="M708.2,270.5c0.8,1.7,0,3.8-1.8,4.5c-1.7,0.8-3.8,0-4.5-1.8c-0.8-1.7,0-3.8,1.8-4.5&#10;&#9;&#9;C705.4,268,707.5,268.8,708.2,270.5z" style="fill: rgb(50, 48, 50);"/>
    <rect x="709" y="268" width="5.7" height="2" transform="matrix(0.9158 -0.4017 0.4017 0.9158 -48.0858 308.5964)" style="fill: rgb(50, 48, 50);"/>
    <path d="M 786.5999755859375 408.6000061035156 L 771.2999877929688 375.70001220703125 L 756 342.79998779296875 L 740.9000244140625 309.79998779296875 L 725.7999877929688 276.79998779296875 L 741.0999755859375 309.70001220703125 L 756.2999877929688 342.70001220703125 L 771.5 375.6000061035156 Z" style="fill: rgb(255, 255, 255);"/>
    <path d="M 786.2999877929688 408.70001220703125 L 771 375.79998779296875 L 755.7999877929688 342.8999938964844 L 740.5999755859375 310 L 725.5 277 L 726 276.70001220703125 L 741.2999877929688 309.6000061035156 L 756.5999755859375 342.5 L 771.7999877929688 375.5 L 786.9000244140625 408.5 Z" style="fill: rgb(255, 255, 255);"/>
    <path d="M 783.2000122070312 410.1000061035156 L 768.2999877929688 377 L 753.5 343.8999938964844 L 738.7999877929688 310.70001220703125 L 724.0999755859375 277.6000061035156 L 739 310.70001220703125 L 753.7999877929688 343.79998779296875 L 768.5 376.8999938964844 Z" style="fill: rgb(255, 255, 255);"/>
    <path d="M 782.9000244140625 410.20001220703125 L 782.9000244140625 410.20001220703125 L 768 377.1000061035156 L 753.2000122070312 344 L 738.5 310.8999938964844 L 723.7999877929688 277.70001220703125 L 724.4000244140625 277.3999938964844 L 724.4000244140625 277.5 L 739.2000122070312 310.5 L 754.0999755859375 343.70001220703125 L 768.7999877929688 376.79998779296875 L 783.5 410 Z" style="fill: rgb(255, 255, 255);"/>
    <path d="M 775.5999755859375 413.3999938964844 L 761.7000122070312 379.8999938964844 L 747.7999877929688 346.3999938964844 L 734 312.8999938964844 L 720.2000122070312 279.29998779296875 L 734.0999755859375 312.79998779296875 L 748 346.29998779296875 L 761.7999877929688 379.8999938964844 Z" style="fill: rgb(255, 255, 255);"/>
    <path d="M 775.9000244140625 413.29998779296875 L 775.2999877929688 413.6000061035156 L 761.4000244140625 380.1000061035156 L 747.5 346.5 L 733.7000122070312 313 L 719.9000244140625 279.3999938964844 L 720.5 279.20001220703125 L 734.4000244140625 312.70001220703125 L 748.2999877929688 346.20001220703125 L 762.0999755859375 379.70001220703125 Z" style="fill: rgb(255, 255, 255);"/>
    <path d="M 779.9000244140625 411.6000061035156 L 765.2999877929688 378.3999938964844 L 750.7000122070312 345.1000061035156 L 736.2999877929688 311.79998779296875 L 721.9000244140625 278.5 L 736.5 311.79998779296875 L 751 345 L 765.5 378.29998779296875 Z" style="fill: rgb(255, 255, 255);"/>
    <path d="M 780.0999755859375 411.3999938964844 L 779.5999755859375 411.70001220703125 L 765 378.5 L 750.4000244140625 345.20001220703125 L 736 312 L 721.5999755859375 278.70001220703125 L 722.2000122070312 278.3999938964844 L 736.7000122070312 311.6000061035156 L 751.2999877929688 344.8999938964844 L 765.7000122070312 378.1000061035156 Z" style="fill: rgb(255, 255, 255);"/>
    <path d="M782,425.8c3.4,5,8.2,17.4,8.8,18.2c0.6,0.8,1,1.2,4.7-0.4c3.6-1.6,3.6-2.1,3.5-3.1&#10;&#9;&#9;c-0.2-1-6.1-12.9-7.4-18.8c-1.4-5.9-3.8-16.9-4.6-17.8l-7.4,3.3l-7.4,3.3C772.1,411.6,778.6,420.9,782,425.8z" style="fill: rgb(80, 86, 95);"/>
    <path d="M803.7,276.5l0.7,3.3l-1,0.7C803.2,279.2,803.3,277.8,803.7,276.5&#10;&#9;&#9;" style="fill-rule: evenodd; clip-rule: evenodd; fill: rgb(84, 196, 205);"/>
    <path d="M780,268.7L780,268.7C780,268.7,780,268.8,780,268.7C780,268.8,780,268.7,780,268.7z" style="fill: rgb(89, 82, 79);"/>
    <path d="M754.3,256.6C754.3,256.6,754.3,256.6,754.3,256.6C754.3,256.6,754.3,256.6,754.3,256.6L754.3,256.6z" style="fill: rgb(89, 82, 79);"/>
    <path d="M757.7,290.3c1.4-2.9,2.4-5.7,3.2-8.6l-4.7-2.2c-1.7,2.4-3.2,5.1-4.6,7.9c-1.9,3.9-2.4,8.3-3.3,10.1&#10;&#9;&#9;c-0.9,1.8-3.1,2.7-3.7,4c-1,2.1-0.3,4.5,1.5,5.3c1.8,0.9,4.1-0.1,5.1-2.2c0.6-1.3,0-3.8,0.8-5.4&#10;&#9;&#9;C752.8,297.7,755.9,294.3,757.7,290.3z M747.1,304.7c-0.7-0.3-0.9-1.2-0.6-2c0.4-0.8,1.2-1.2,1.9-0.8c0.7,0.3,0.9,1.2,0.6,2&#10;&#9;&#9;C748.6,304.7,747.8,305.1,747.1,304.7z" style="fill: rgb(80, 86, 95);"/>
    <path d="M778.6,258.7l-15.6-7.4c-3.3,0.7-6.4,2.5-8.7,5.3l25.7,12.1C780.7,265.2,780.1,261.7,778.6,258.7z&#10;&#9;&#9; M775,258.9c0.5,0.2,0.7,0.8,0.5,1.3c-0.2,0.5-0.8,0.7-1.3,0.5c-0.5-0.2-0.7-0.8-0.5-1.3C773.9,258.9,774.5,258.7,775,258.9z&#10;&#9;&#9; M769.8,256.5c0.5,0.2,0.7,0.8,0.5,1.3c-0.2,0.5-0.8,0.7-1.3,0.5c-0.5-0.2-0.7-0.8-0.5-1.3C768.8,256.4,769.3,256.2,769.8,256.5z&#10;&#9;&#9; M764.7,254c0.5,0.2,0.7,0.8,0.5,1.3c-0.2,0.5-0.8,0.7-1.3,0.5c-0.5-0.2-0.7-0.8-0.5-1.3C763.6,254,764.2,253.8,764.7,254z&#10;&#9;&#9; M759.9,257.9l-2.5-1.2l2.3-1.6l2.3-1.6l0.2,2.8l0.2,2.8L759.9,257.9z M765.1,260.3l-2.5-1.2l2.3-1.6l2.3-1.6l0.2,2.8l0.2,2.8&#10;&#9;&#9;L765.1,260.3z M770.2,262.8l-2.5-1.2l2.3-1.6l2.3-1.6l0.2,2.8l0.2,2.8L770.2,262.8z M772.8,264l2.3-1.6l2.3-1.6l0.2,2.8l0.2,2.8&#10;&#9;&#9;l-2.5-1.2L772.8,264z" style="fill: rgb(243, 208, 180);"/>
    <path d="M777.6,274.3c0,0.1-0.1,0.1-0.1,0.2C777.5,274.5,777.6,274.4,777.6,274.3z" style="fill: rgb(89, 82, 79);"/>
    <path d="M751.1,263.5L751.1,263.5C751.1,263.5,751.1,263.5,751.1,263.5C751.1,263.5,751.1,263.5,751.1,263.5z" style="fill: rgb(89, 82, 79);"/>
    <path d="M751.1,263.5c0.1-0.3,0.1-0.6,0.2-0.9C751.2,262.9,751.2,263.2,751.1,263.5z" style="fill: rgb(89, 82, 79);"/>
    <path d="M753.3,274.5L753.3,274.5c0.1,0.1,0.1,0.2,0.2,0.3c0,0,0,0,0,0l5.8,2.8l1.2,0.6l5.8,2.8c0,0,0,0,0,0&#10;&#9;&#9;c0.2,0,0.5-0.1,0.8-0.1h0c3.6-0.5,7-2.3,9.5-5.2l-25.6-12.1C750.4,267.4,751.2,271.3,753.3,274.5z M755.3,273.8&#10;&#9;&#9;c-0.5-0.2-0.7-0.8-0.5-1.3c0.2-0.5,0.8-0.7,1.3-0.5c0.5,0.2,0.7,0.8,0.5,1.3C756.3,273.8,755.8,274,755.3,273.8z M760.5,276.3&#10;&#9;&#9;c-0.5-0.2-0.7-0.8-0.5-1.3c0.2-0.5,0.8-0.7,1.3-0.5c0.5,0.2,0.7,0.8,0.5,1.3C761.5,276.3,760.9,276.5,760.5,276.3z M765.6,278.7&#10;&#9;&#9;c-0.5-0.2-0.7-0.8-0.5-1.3c0.2-0.5,0.8-0.7,1.3-0.5c0.5,0.2,0.7,0.8,0.5,1.3C766.6,278.7,766.1,278.9,765.6,278.7z M771,274.4&#10;&#9;&#9;l2.6,1.2l-2.3,1.6l-2.3,1.6l-0.2-2.8l-0.2-2.8L771,274.4z M765.9,272l2.6,1.2l-2.3,1.6l-2.3,1.6l-0.2-2.8l-0.2-2.8L765.9,272z&#10;&#9;&#9; M760.7,269.6l2.5,1.2l-2.3,1.6l-2.3,1.6l-0.2-2.8l-0.2-2.8L760.7,269.6z M758.1,268.3l-2.3,1.6l-2.3,1.6l-0.2-2.8l-0.2-2.8&#10;&#9;&#9;l2.5,1.2L758.1,268.3z" style="fill: rgb(235, 182, 92);"/>
    <path d="M776.6,275.6C776.7,275.6,776.7,275.6,776.6,275.6C776.7,275.6,776.7,275.6,776.6,275.6L776.6,275.6z" style="fill: rgb(89, 82, 79);"/>
    <path d="M772,252.4c-2.4-1.1-4.9-1.7-7.4-1.8l13.6,6.4C776.5,255.1,774.4,253.5,772,252.4z" style="fill: rgb(84, 196, 205);"/>
    <path d="M 754 270.3999938964844 L 756.7999877929688 268.3999938964844 L 753.7000122070312 267 Z" style="fill: rgb(80, 86, 95);"/>
    <path d="M 762 270.8999938964844 L 758.9000244140625 269.3999938964844 L 759.2000122070312 272.79998779296875 Z" style="fill: rgb(80, 86, 95);"/>
    <path d="M 767.0999755859375 273.29998779296875 L 764 271.79998779296875 L 764.2999877929688 275.29998779296875 Z" style="fill: rgb(80, 86, 95);"/>
    <path d="M 772.2999877929688 275.70001220703125 L 769.2000122070312 274.29998779296875 L 769.5 277.70001220703125 Z" style="fill: rgb(80, 86, 95);"/>
    <path d="M 758.5999755859375 256.6000061035156 L 761.7000122070312 258.1000061035156 L 761.5 254.6999969482422 Z" style="fill: rgb(80, 86, 95);"/>
    <path d="M 763.7999877929688 259 L 766.9000244140625 260.5 L 766.5999755859375 257.1000061035156 Z" style="fill: rgb(80, 86, 95);"/>
    <path d="M 768.9000244140625 261.5 L 772 262.8999938964844 L 771.7999877929688 259.5 Z" style="fill: rgb(80, 86, 95);"/>
    <path d="M 776.9000244140625 262 L 774.0999755859375 263.8999938964844 L 777.2000122070312 265.3999938964844 Z" style="fill: rgb(80, 86, 95);"/>
    <path d="M760.8,279.8l-2.8-1.3l-4.4-2.1c0,0,0-0.1,0-0.1l0,0c0.2,0.8,0.2,1.6,0.2,2.4c0,0,0,0,0,0l2.8,1.3l4,1.9&#10;&#9;&#9;l2.7,1.3c0.3-0.3,0.6-0.5,1-0.8c0,0,0,0,0,0c0.3-0.2,0.6-0.4,1-0.6c0,0,0,0,0,0L760.8,279.8z" style="fill: rgb(84, 196, 205);"/>
    <path d="M779.2,271.5c0-0.1,0.1-0.2,0.1-0.2c0.1-0.2,0.2-0.4,0.2-0.6c0-0.1,0.1-0.2,0.1-0.2c0-0.2,0.1-0.3,0.1-0.5&#10;&#9;&#9;l-26.1-12.4c-0.1,0.1-0.2,0.3-0.3,0.4c0,0.1-0.1,0.1-0.1,0.2c-0.1,0.2-0.2,0.4-0.3,0.6c0,0.1-0.1,0.1-0.1,0.2&#10;&#9;&#9;c-0.1,0.3-0.3,0.5-0.4,0.8c-0.2,0.3-0.3,0.6-0.4,0.9c-0.1,0.2-0.1,0.4-0.2,0.5c0,0.1-0.1,0.3-0.2,0.4c-0.1,0.3-0.2,0.5-0.2,0.8&#10;&#9;&#9;c0,0,0,0.1,0,0.1l26,12.3c-0.2,0.3-0.4,0.5-0.6,0.8c0.3-0.3,0.5-0.7,0.8-1c-0.1,0.1-0.1,0.1-0.2,0.2c0.1-0.2,0.3-0.4,0.4-0.6&#10;&#9;&#9;c0,0.1-0.1,0.1-0.1,0.2c0.2-0.4,0.5-0.7,0.7-1.1c0,0,0,0,0-0.1c0.2-0.3,0.3-0.6,0.5-0.9C778.9,272,779,271.7,779.2,271.5z&#10;&#9;&#9; M754.5,262.6c-0.8-0.4-1.1-1.3-0.7-2.1c0.4-0.8,1.3-1.1,2.1-0.7c0.8,0.4,1.1,1.3,0.7,2.1C756.2,262.6,755.2,263,754.5,262.6z&#10;&#9;&#9; M759.5,265c-0.8-0.4-1.1-1.3-0.7-2.1c0.4-0.8,1.3-1.1,2.1-0.7c0.8,0.4,1.1,1.3,0.7,2.1C761.2,265,760.3,265.4,759.5,265z&#10;&#9;&#9; M764.6,267.4c-0.8-0.4-1.1-1.3-0.7-2.1c0.4-0.8,1.3-1.1,2.1-0.7c0.8,0.4,1.1,1.3,0.7,2.1C766.3,267.4,765.4,267.8,764.6,267.4z&#10;&#9;&#9; M769.7,269.8c-0.8-0.4-1.1-1.3-0.7-2.1c0.4-0.8,1.3-1.1,2.1-0.7c0.8,0.4,1.1,1.3,0.7,2.1C771.4,269.8,770.5,270.2,769.7,269.8z&#10;&#9;&#9; M775,272.2c-0.8-0.4-1.1-1.3-0.7-2.1c0.4-0.8,1.3-1.1,2.1-0.7c0.8,0.4,1.1,1.3,0.7,2.1C776.7,272.2,775.7,272.5,775,272.2z" style="fill: rgb(84, 196, 205);"/>
    <path d="M794.6,265.7c0,1.3-1.1,2.4-2.4,2.4c-1.3,0-2.4-1.1-2.4-2.4c0-1.3,1.1-2.4,2.4-2.4&#10;&#9;&#9;C793.5,263.4,794.6,264.4,794.6,265.7z" style="fill: rgb(80, 86, 95);"/>
    <path d="M 693.7999877929688 438.1000061035156 L 698.7000122070312 438.8999938964844 L 695.5999755859375 442.70001220703125 L 692.4000244140625 446.5 L 690.7000122070312 441.8999938964844 L 688.9000244140625 437.29998779296875 Z" style="fill: rgb(231, 155, 150);"/>
    <path d="M 429.1000061035156 428.3999938964844 L 434 429.20001220703125 L 430.79998779296875 433.1000061035156 L 427.70001220703125 436.8999938964844 L 425.8999938964844 432.29998779296875 L 424.20001220703125 427.6000061035156 Z" style="fill: rgb(243, 208, 180);"/>
    <path d="M411.2,348.2c0,0,3.8-12.6,1.5-17.3c-2.9-5.8-13.6-9.7-22.7-6.9c-9.1,2.8-13.6,17.7-7.6,24&#10;&#9;&#9;c0,0-8,6.2-9.3,12.9c-1.3,6.7-1.1,10.2,0,13.2c1.1,2.9,2.6,6.6,2.6,6.6s-7.4,6.7-6.9,16.1c0.5,9.3,8.8,18.1,15.8,19.1&#10;&#9;&#9;c7,1,27,0,32.3-3.6c5.3-3.6,9.4-8.9,9.4-14.3c-0.1-5.5-5.8-12.5-5.8-12.5s2.7-8.9,3.3-14.6c0.6-5.8-1.9-13.3-5-16.3&#10;&#9;&#9;C415.6,351.3,411.2,348.2,411.2,348.2z" style="fill: rgb(226, 226, 225);"/>
    <path d="M415,386.5c-0.2-4.8-3.2-3.1-3.7-0.1c-0.4,2.5-1.7,5-4.6,7.2c-2.3,1.7-4.9,2.1-6.2,2.1&#10;&#9;&#9;c-0.1-4.9-0.3-9.9-0.4-14.7c2.9,0.1,8.1-0.5,11.1-5.6c3.3-5.7,2.4-9,1.6-11.1c-0.8-2.1-2.9-0.5-3.1,3.2c-0.2,2.7-0.9,9.3-9.7,9.8&#10;&#9;&#9;c-0.3-8.6-0.6-16.7-0.8-23.4c1.8-1.3,5.8-4.6,7-8.9c1-3.4-0.1-7.2-1.9-3.9c-1.6,3.1-3,7.2-5.3,8c-0.3-6.7-0.5-11.3-0.6-12.2&#10;&#9;&#9;c-0.6-4.8-3.8-3.9-3.9,0.4c0,0.7-0.1,4.1-0.2,9.2c-1.9-0.8-4.3-3.7-5.7-5.7c-1.7-2.4-4.8,0.4-2,3.8c2.4,2.9,6.2,6.9,7.5,8.3&#10;&#9;&#9;c-0.1,5.9-0.2,13.2-0.3,21c-0.9-0.5-2-1.1-3.3-2.2c-2.9-2.4-5.4-9-5.4-9c-1.2-2.2-2.6-2.7-3.1,0c-0.5,2.6,0.4,4.6,2.5,9.2&#10;&#9;&#9;c1.5,3.4,6.6,6.2,9.2,7.4c-0.1,5.7-0.2,11.6-0.2,17.4c-2.2-0.6-9.1-14.3-10.9-14.7c-1.8-0.3-2.3,4.8-1.6,8.8c0.7,4,3.4,7.4,6.9,9.4&#10;&#9;&#9;c2,1.1,4.1,1.6,5.5,1.9c-0.3,24.2-0.3,46,0.3,46.5c1.4,1,5.8,0.6,7.2-0.4c0.7-0.4,0.3-22.7-0.4-47.3c2-0.3,5-0.9,7.3-1.8&#10;&#9;&#9;C411.4,397.7,415.2,391.3,415,386.5z" style="fill: rgb(128, 205, 200);"/>
    <rect x="469" y="442" width="50" height="9" style="fill: rgb(226, 226, 225);"/>
    <path d="M 500.3999938964844 401 L 438.20001220703125 341.6000061035156 L 434.1000061035156 342.29998779296875 L 471 417 L 478.29998779296875 417 L 478.3999938964844 442 L 507 442 L 507 417" style="fill: rgb(84, 196, 205);"/>
    <path d="M479.4,411.5c0,9,7.3,16.3,16.3,16.3c9,0,16.3-7.3,16.3-16.3c0-9-7.3-16.3-16.3-16.3&#10;&#9;&#9;C486.7,395.2,479.4,402.5,479.4,411.5z" style="fill: rgb(226, 226, 225);"/>
    <path d="M483.9,411.7c0,6.5,5.3,11.8,11.8,11.8c6.5,0,11.8-5.3,11.8-11.8s-5.3-11.8-11.8-11.8&#10;&#9;&#9;C489.2,399.9,483.9,405.2,483.9,411.7z" style="fill: rgb(80, 86, 95);"/>
    <path d="M491.1,411.8c0,2.5,2,4.5,4.5,4.5c2.5,0,4.5-2,4.5-4.5c0-2.5-2-4.5-4.5-4.5&#10;&#9;&#9;C493.1,407.3,491.1,409.3,491.1,411.8z" style="fill: rgb(243, 208, 180);"/>
    <path d="M422.7,344.7c0,7.7,6.2,13.9,13.9,13.9c7.7,0,13.9-6.2,13.9-13.9c0-7.7-6.2-13.9-13.9-13.9&#10;&#9;&#9;C428.9,330.8,422.7,337.1,422.7,344.7z" style="fill: rgb(80, 86, 95);"/>
    <path d="M426.5,344.9c0,5.5,4.5,10,10,10c5.5,0,10-4.5,10-10c0-5.6-4.5-10-10-10C431,334.8,426.5,339.3,426.5,344.9&#10;&#9;&#9;z" style="fill: rgb(235, 182, 92);"/>
    <path d="M 491.29998779296875 299.20001220703125 L 433.3999938964844 343.70001220703125 L 436.1000061035156 347.29998779296875 L 492 316.5" style="fill: rgb(84, 196, 205);"/>
    <path d="M 494.20001220703125 313.79998779296875 L 521.5999755859375 297.70001220703125 L 522.5 299 L 497.20001220703125 319.8999938964844 L 493.3999938964844 314.5 Z" style="fill: rgb(226, 226, 225);"/>
    <path d="M497,321.6l-5.1-7.4l1.6-1.3l28.5-16.8l2.1,3L497,321.6z M495,314.7l2.5,3.6l21-17.4L495,314.7z" style="fill: rgb(226, 226, 225);"/>
    <path d="M 490.6000061035156 305.29998779296875 L 520.4000244140625 294.29998779296875 L 520 292.70001220703125 L 487.79998779296875 299.1000061035156 L 489.6000061035156 305.5 Z" style="fill: rgb(226, 226, 225);"/>
    <path d="M488.8,306.8l-2.4-8.6l34.5-6.8l1,3.6l-30.9,11.4L488.8,306.8z M489.2,299.9l1.2,4.2l25.6-9.5L489.2,299.9z&#10;&#9;&#9;" style="fill: rgb(226, 226, 225);"/>
    <path d="M490.1,292.1c-8.2,3.6-12,13.2-8.3,21.5c3.6,8.2,13.2,12,21.5,8.3" style="fill: rgb(235, 182, 92);"/>
    <path d="M432.7,345c0,2.1,1.7,3.9,3.9,3.9c2.1,0,3.9-1.7,3.9-3.9c0-2.1-1.7-3.9-3.9-3.9&#10;&#9;&#9;C434.5,341.1,432.7,342.9,432.7,345z" style="fill: rgb(80, 86, 95);"/>
  </g>
  <g id="large" transform="matrix(1, 0, 0, 1, -367.0153221893311, -205.55452125549317)">
    <path d="M201.4,321.6c0.1-0.3-0.2-0.7-0.6-0.6c-3.3,1.3-5.5-2.6-8.8-1.9c-1.7,0.4-2.5,2.5-2.9,3.9&#10;&#9;&#9;c-0.8,2.6-0.9,5.3-1.6,7.9c-0.1,0.2-0.1,0.5-0.2,0.7c0,0,0,0,0,0c0,0,0,0,0-0.1c-0.8-1.2-2.4-2.4-3.9-2.1c-1.3,0.3-3,1.4-2.7,3&#10;&#9;&#9;c0.6,2.9,4.7,4,6.5,1.6c1.9-2.5,2-6.1,2.6-9.2c0.1,0,0.1,0,0.2,0c1.4-0.3,3,1.2,4.3,1.8c1.3,0.5,2.4,0.6,3.8,0.2&#10;&#9;&#9;C200.2,326.2,200.9,323.6,201.4,321.6z" style="fill: rgb(80, 86, 95);"/>
    <path d="M182,325.8c-0.8-0.5-1.4-1.2-1.9-2c-0.3-0.5-1.1-0.1-0.8,0.5c0.5,0.9,1.3,1.8,2.2,2.4&#10;&#9;&#9;C182,327,182.5,326.2,182,325.8z" style="fill: rgb(80, 86, 95);"/>
    <path d="M177.7,328.3c-0.6-0.3-1.3-0.5-1.9-0.9c-0.5-0.3-1,0.5-0.5,0.8c0.6,0.3,1.3,0.5,1.9,0.9&#10;&#9;&#9;C177.7,329.4,178.2,328.5,177.7,328.3z" style="fill: rgb(80, 86, 95);"/>
    <path d="M175.7,333.4c-0.5,0.2-1.1,0.3-1.6,0.6c-0.5,0.3-0.1,1.1,0.5,0.8c0.4-0.2,0.9-0.4,1.4-0.5&#10;&#9;&#9;C176.5,334.1,176.3,333.2,175.7,333.4z" style="fill: rgb(80, 86, 95);"/>
    <path d="M202.7,333.6L200,334c-0.6,0.1-0.5,1,0.1,0.9l2.7-0.4C203.4,334.5,203.3,333.5,202.7,333.6z" style="fill: rgb(80, 86, 95);"/>
    <path d="M200.4,339.6c-0.5-0.6-1-1.1-1.7-1.5c-0.5-0.3-1,0.5-0.5,0.8c0.6,0.3,1.1,0.8,1.5,1.4&#10;&#9;&#9;C200.1,340.8,200.8,340.1,200.4,339.6z" style="fill: rgb(80, 86, 95);"/>
    <path d="M195.9,342.4c-0.4-0.4-0.6-1-0.9-1.4c-0.2-0.2-0.5-0.2-0.7,0c-0.2,0.2-0.2,0.5,0,0.7c0.4,0.4,0.6,1,0.9,1.4&#10;&#9;&#9;c0.2,0.2,0.5,0.2,0.7,0C196.1,342.9,196.1,342.6,195.9,342.4z" style="fill: rgb(80, 86, 95);"/>
    <path d="M200.3,321.9c1.6-0.7-2.5,2.5-2.9,3.9c-0.8,2.6-0.9,5.3-1.6,7.9c-0.1,0.2-0.1,0.5-0.2,0.7c0,0,0,0,0,0&#10;&#9;&#9;c0,0,0,0,0-0.1c-0.8-1.2-2.4-2.4-3.9-2.1c-1.3,0.3-3,1.4-2.7,3c0.6,2.9,4.7,4,6.5,1.6c1.9-2.5,2.5-7.4,3.1-10.5&#10;&#9;&#9;C198.5,326.4,197.9,322.9,200.3,321.9z" style="fill: rgb(80, 86, 95);"/>
    <path d="M158.6,423c-5.2-0.9-10.6-5.2-14.3-9c-5.4-5.4-10.8-15.3-11.4-23.1c-1.7-22.3,8.1-38.5,12.2-45.6&#10;&#9;&#9;c4.1-7.1,9.8-18.2,19.6-5.7c8.6,11,17.9,28.7,16.2,47.3c-1,10.7-5.4,24.5-12.6,32.6C165.3,422.8,162,423.6,158.6,423z" style="fill: rgb(84, 196, 205);"/>
    <path d="M172.2,398c-0.2-3.9-2.5-2.5-3,0c-0.3,2-1.3,4-3.7,5.7c-1.8,1.4-4,1.7-5,1.7c-0.1-4-0.2-7.9-0.4-11.8&#10;&#9;&#9;c2.3,0.1,6.5-0.4,8.9-4.5c2.6-4.6,1.9-7.2,1.3-8.9c-0.6-1.7-2.3-0.4-2.5,2.5c-0.1,2.2-0.7,7.5-7.8,7.8c-0.2-6.9-0.5-13.4-0.7-18.8&#10;&#9;&#9;c1.4-1,4.7-3.7,5.6-7.2c0.8-2.8-0.1-5.8-1.5-3.1c-1.3,2.5-2.4,5.8-4.3,6.4c-0.2-5.4-0.4-9-0.5-9.8c-0.5-3.9-3-3.1-3.1,0.3&#10;&#9;&#9;c0,0.6-0.1,3.3-0.1,7.4c-1.5-0.6-3.5-3-4.5-4.6c-1.3-2-3.9,0.3-1.6,3.1c2,2.4,5,5.5,6,6.6c-0.1,4.8-0.2,10.6-0.3,16.8&#10;&#9;&#9;c-0.7-0.4-1.6-0.9-2.6-1.8c-2.3-2-4.3-7.2-4.3-7.2c-0.9-1.8-2.1-2.2-2.5,0c-0.4,2.1,0.3,3.7,2,7.4c1.2,2.7,5.3,5,7.4,6&#10;&#9;&#9;c-0.1,4.6-0.1,9.3-0.2,14c-1.7-0.5-5.6-1.9-6.6-5.2c-1.4-4.3-0.7-6.3-2.1-6.6c-1.4-0.3-1.9,3.8-1.3,7.1c0.6,3.2,2.7,6,5.6,7.6&#10;&#9;&#9;c1.6,0.9,3.3,1.3,4.4,1.5c-0.2,19.4-0.3,36.9,0.3,37.3c1.1,0.8,4.6,0.5,5.8-0.3c0.5-0.3,0.2-18.3-0.3-38c1.6-0.3,4-0.8,5.8-1.5&#10;&#9;&#9;C169.3,407,172.4,401.9,172.2,398z" style="fill: rgb(80, 86, 95);"/>
    <path d="M185.2,444.2c0,1.3-1.1,2.4-2.4,2.4c-1.3,0-2.4-1.1-2.4-2.4c0-1.3,1.1-2.4,2.4-2.4&#10;&#9;&#9;C184.1,441.9,185.2,442.9,185.2,444.2z" style="fill: rgb(84, 196, 205);"/>
    <path d="M 180.6999969482422 431.6000061035156 L 184 435.29998779296875 L 179.1999969482422 436.29998779296875 L 174.3000030517578 437.3999938964844 L 175.8000030517578 432.6000061035156 L 177.3000030517578 427.8999938964844 Z" style="fill: rgb(80, 86, 95);"/>
    <path d="M993.9,305.6l-3.1,16.6l0.9,0.5l0.7-4l1.8,1.1l-1.2,3.7l0.8,0.5l1.2-3.7l1.9,1.1l-1.6,3.5l0.8,0.5l1.6-3.5&#10;&#9;&#9;l1.8,1l-2.1,3.2l0.8,0.5l2.1-3.2l1.7,1l-2.5,3l0.8,0.5l2.5-3l1.5,0.9l-3,2.7l0.9,0.5l12.5-11.2l2.4-0.1l7.2-5.9l-2.5-0.4l0.1-2.6&#10;&#9;&#9;l-7.2,5.9l-0.6,2.4l-1.6,1.5l-2.8-1.6l2.1-2.5l2.4-0.5l6.2-6.9l-2.6,0l-0.3-2.6l-6.2,6.9l-0.2,2.4l-2.2,2.7l-2.9-1.6l2.1-3.3&#10;&#9;&#9;l2.3-0.8l5.2-7.7l-2.6,0.4l-0.6-2.5l-5.2,7.7l0.1,2.4l-2.2,3.3l-3-1.7l1.7-3.6l2.1-1.2l4-8.4l-2.5,0.8l-1-2.4l-4,8.4l0.5,2.4&#10;&#9;&#9;l-1.7,3.5l-2.9-1.7l1.1-3.3l2-1.4l2.9-8.9l-2.3,1.1l-1.3-2.2l-2.9,8.9l0.8,2.3l-1.1,3.1l-3.2-1.8l0.4-2.2l1.7-1.7l1.5-9.2l-2.2,1.4&#10;&#9;&#9;l-1.6-2l-1.5,9.2L993.9,305.6z M1009.1,317.6l2.7,1.6l-2.6,2.3l-2.3-1.3L1009.1,317.6z M1008.3,322.3l-3,2.7l-1.6-0.9l2.5-3&#10;&#9;&#9;L1008.3,322.3z M1005.5,315.6l2.8,1.6l-2.2,2.6l-2.4-1.4L1005.5,315.6z M1003.1,319.3l2.3,1.3l-2.5,3l-1.9-1.1L1003.1,319.3z&#10;&#9;&#9; M1000.2,322l-1.9-1.1l1.6-3.5l2.4,1.4L1000.2,322z M1004.7,315.1l-1.8,2.8l-2.5-1.4l1.4-3L1004.7,315.1z M997.4,320.4l-2-1.1&#10;&#9;&#9;l1.2-3.7l2.4,1.4L997.4,320.4z M1001,313l-1.4,3l-2.5-1.4l1.1-3.2L1001,313z M995.8,315.1l-1.2,3.7l-2-1.1l0.8-4L995.8,315.1z&#10;&#9;&#9; M997.3,310.8l-1.1,3.2l-2.6-1.5l0.6-3.4L997.3,310.8z" style="fill: rgb(84, 196, 205);"/>
    <path d="M990.1,335.5l1,0.6c3,1.7,6.9,0.6,8.6-2.5l1.4-2.4l-11.8-6.8l-1.4,2.4C986.1,329.8,987.1,333.8,990.1,335.5&#10;&#9;&#9;z" style="fill: rgb(235, 182, 92);"/>
    <rect x="989.1" y="325.1" width="13.6" height="2.9" transform="matrix(0.8669 0.4984 -0.4984 0.8669 295.2332 -452.8985)" style="fill: rgb(80, 86, 95);"/>
    <path d="M 1045.800048828125 340.5 L 1049.5999755859375 343.79998779296875 L 1044.9000244140625 345.3999938964844 L 1040.199951171875 347 L 1041.0999755859375 342.20001220703125 L 1042 337.29998779296875 Z" style="fill: rgb(243, 208, 180);"/>
    <path d="M1028,393.4c0,0.5-1.1,3.6-1.8,3.6h-8.2c-0.7,0-4.1-3.1-4.1-3.6v-8.5c0-0.5,3.4-0.9,4.1-0.9h8.2&#10;&#9;&#9;c0.7,0,1.8,0.4,1.8,0.9V393.4z" style="fill: rgb(84, 196, 205);"/>
    <path d="M1017.4,357.5c0-3.8,2.1-6.9,4.7-6.9c2.6,0,4.7,3.1,4.7,6.9" style="fill: rgb(243, 208, 180);"/>
    <path d="M1028,393.2c0,0.5-0.6,1.8-1.2,1.8h-11.8c-0.5,0-1.1-1.3-1.1-1.8v-0.4c0-0.5,0.5,0.2,1.1,0.2h11.8&#10;&#9;&#9;c0.5,0,1.2-0.7,1.2-0.2V393.2z" style="fill: rgb(84, 196, 205);"/>
    <path d="M1032,437.8v-6.3c19,0,30.1-12.6,30.1-28c0-15.4-11.1-28-30.1-28v-6.3c19,0,36.4,15.4,36.4,34.2&#10;&#9;&#9;C1068.4,422.4,1051,437.8,1032,437.8z" style="fill: rgb(226, 226, 225);"/>
    <path d="M 1038.5999755859375 442 L 1005.5999755859375 442 L 1016 420 L 1028.199951171875 420 Z" style="fill: rgb(243, 208, 180);"/>
    <rect x="1000" y="439" width="45" height="10" style="fill: rgb(84, 196, 205);"/>
    <path d="M1034,380.8c0,3.3-1.8,5.2-4.4,5.2h-14.4c-2.6,0-4.2-1.8-4.2-5.2v-18.5c0-3.3,1.6-5.3,4.2-5.3h14.4&#10;&#9;&#9;c2.6,0,4.4,1.9,4.4,5.3V380.8z" style="fill: rgb(226, 226, 225);"/>
    <path d="M1039,421.6c0,1.1-2.8-0.6-3.9-0.6H1009c-1.1,0-1,1.7-1,0.6v-2.1c0-1.1-0.1,0.5,1,0.5h26.1&#10;&#9;&#9;c1.1,0,3.9-1.6,3.9-0.5V421.6z" style="fill: rgb(84, 196, 205);"/>
    <ellipse cx="1034.2" cy="372.6" rx="5" ry="5" style="fill: rgb(80, 86, 95);"/>
    <ellipse cx="1034.2" cy="435.2" rx="5" ry="5" style="fill: rgb(80, 86, 95);"/>
    <ellipse cx="1034.2" cy="435.3" rx="2.7" ry="2.7" style="fill: rgb(226, 226, 225);"/>
    <ellipse cx="1034.2" cy="372.7" rx="2.7" ry="2.7" style="fill: rgb(84, 196, 205);"/>
  </g>
</svg>