<!-- Generator: Adobe Illustrator 18.0.0, SVG Export Plug-In  -->
<svg version="1.1"
	 xmlns="http://www.w3.org/2000/svg" xmlns:xlink="http://www.w3.org/1999/xlink" xmlns:a="http://ns.adobe.com/AdobeSVGViewerExtensions/3.0/"
	 x="0px" y="0px" width="341.2px" height="41.7px" viewBox="0 0 341.2 41.7" enable-background="new 0 0 341.2 41.7"
	 xml:space="preserve">
<defs>
</defs>
<g>
	<g>
		<path fill="#54C4CD" d="M9.5,4.5v5.6h4v4.3h-4V26c0,0.9,0.2,1.5,0.5,1.9c0.4,0.4,0.9,0.6,1.5,0.6c0.4,0,0.8,0,1.1-0.1
			s0.7-0.1,1.1-0.2l0.5,4.5c-0.7,0.2-1.4,0.4-2,0.5s-1.4,0.2-2.2,0.2c-2.1,0-3.8-0.6-4.9-1.8s-1.7-3-1.7-5.5V14.4H0v-4.3h3.4V4.5
			H9.5z"/>
		<path fill="#54C4CD" d="M16.2,29.2l3-0.6V4.3l-3.3-0.6V0h9.4v13c0.7-1.1,1.6-1.9,2.6-2.5c1-0.6,2.2-0.9,3.5-0.9
			c2.4,0,4.3,0.8,5.6,2.4c1.4,1.6,2,4,2,7.3v9.2l3,0.6v3.7H30.2v-3.7l2.7-0.6v-9.3c0-1.8-0.3-3-0.9-3.8c-0.6-0.7-1.6-1.1-2.8-1.1
			c-0.9,0-1.6,0.2-2.2,0.5c-0.6,0.3-1.2,0.7-1.6,1.3v12.4l2.7,0.6v3.7H16.2V29.2z"/>
		<path fill="#54C4CD" d="M54.7,33.3c-3.3,0-5.9-1.1-7.9-3.2c-2-2.1-3-4.8-3-8v-0.8c0-3.4,0.9-6.2,2.8-8.4c1.9-2.2,4.4-3.3,7.5-3.3
			c3.1,0,5.5,0.9,7.2,2.8c1.7,1.9,2.6,4.4,2.6,7.5v3.4H50.2l0,0.1c0.1,1.5,0.6,2.7,1.5,3.7c0.9,1,2.1,1.5,3.6,1.5
			c1.4,0,2.5-0.1,3.4-0.4c0.9-0.3,1.9-0.7,3-1.3l1.7,3.8c-0.9,0.7-2.2,1.4-3.7,1.9S56.5,33.3,54.7,33.3z M54.1,14.4
			c-1.1,0-2,0.4-2.7,1.3c-0.7,0.9-1.1,2-1.2,3.4l0.1,0.1h7.6v-0.5c0-1.3-0.3-2.4-0.9-3.1C56.3,14.8,55.4,14.4,54.1,14.4z"/>
		<path fill="#54C4CD" d="M76.9,13.8v-3.7h8.9l0.3,2.7c0.7-1,1.5-1.7,2.4-2.3c0.9-0.5,2-0.8,3.3-0.8c2.8,0,5,1.1,6.6,3.3
			c1.6,2.2,2.3,5.1,2.3,8.7v0.4c0,3.4-0.8,6.1-2.3,8.1c-1.6,2.1-3.7,3.1-6.5,3.1c-1.2,0-2.3-0.2-3.2-0.7c-0.9-0.4-1.7-1.1-2.4-2v6.6
			l3,0.6v3.7H77.2V38l3-0.6V14.4L76.9,13.8z M94.6,21.7c0-2.2-0.4-3.9-1.1-5.2s-1.8-2-3.3-2c-0.9,0-1.7,0.2-2.4,0.6
			c-0.7,0.4-1.2,0.9-1.6,1.6v10c0.4,0.6,0.9,1.1,1.6,1.5c0.7,0.3,1.5,0.5,2.4,0.5c1.5,0,2.6-0.6,3.3-1.8c0.7-1.2,1-2.7,1-4.7V21.7z"
			/>
		<path fill="#54C4CD" d="M114.4,33.3c-3.3,0-5.9-1.1-7.9-3.2c-2-2.1-3-4.8-3-8v-0.8c0-3.4,0.9-6.2,2.8-8.4c1.9-2.2,4.4-3.3,7.5-3.3
			c3.1,0,5.5,0.9,7.2,2.8c1.7,1.9,2.6,4.4,2.6,7.5v3.4H110l0,0.1c0.1,1.5,0.6,2.7,1.5,3.7c0.9,1,2.1,1.5,3.6,1.5
			c1.4,0,2.5-0.1,3.4-0.4c0.9-0.3,1.9-0.7,3-1.3l1.7,3.8c-0.9,0.7-2.2,1.4-3.7,1.9S116.3,33.3,114.4,33.3z M113.9,14.4
			c-1.1,0-2,0.4-2.7,1.3c-0.7,0.9-1.1,2-1.2,3.4l0.1,0.1h7.6v-0.5c0-1.3-0.3-2.4-0.9-3.1C116.1,14.8,115.1,14.4,113.9,14.4z"/>
		<path fill="#54C4CD" d="M126.5,21.3c0-3.4,1-6.2,2.9-8.4c1.9-2.2,4.5-3.3,7.9-3.3c3.4,0,6,1.1,7.9,3.2c1.9,2.2,2.9,5,2.9,8.4v0.4
			c0,3.4-1,6.2-2.9,8.4c-1.9,2.2-4.5,3.2-7.9,3.2c-3.4,0-6-1.1-7.9-3.2c-1.9-2.2-2.9-5-2.9-8.4V21.3z M132.7,21.7
			c0,2.1,0.4,3.8,1.1,5c0.7,1.3,1.9,1.9,3.5,1.9c1.6,0,2.8-0.6,3.5-1.9c0.7-1.3,1.1-2.9,1.1-5v-0.4c0-2-0.4-3.7-1.1-5
			c-0.7-1.3-1.9-1.9-3.5-1.9c-1.6,0-2.8,0.6-3.5,1.9c-0.7,1.3-1.1,2.9-1.1,5V21.7z"/>
		<path fill="#54C4CD" d="M150.3,13.8v-3.7h8.9l0.3,2.7c0.7-1,1.5-1.7,2.4-2.3c0.9-0.5,2-0.8,3.3-0.8c2.8,0,5,1.1,6.6,3.3
			c1.6,2.2,2.3,5.1,2.3,8.7v0.4c0,3.4-0.8,6.1-2.3,8.1c-1.6,2.1-3.7,3.1-6.5,3.1c-1.2,0-2.3-0.2-3.2-0.7c-0.9-0.4-1.7-1.1-2.4-2v6.6
			l3,0.6v3.7h-12.1V38l3-0.6V14.4L150.3,13.8z M168,21.7c0-2.2-0.4-3.9-1.1-5.2s-1.8-2-3.3-2c-0.9,0-1.7,0.2-2.4,0.6
			c-0.7,0.4-1.2,0.9-1.6,1.6v10c0.4,0.6,0.9,1.1,1.6,1.5c0.7,0.3,1.5,0.5,2.4,0.5c1.5,0,2.6-0.6,3.3-1.8c0.7-1.2,1-2.7,1-4.7V21.7z"
			/>
		<path fill="#54C4CD" d="M175.8,3.7V0h9.4v28.6l3,0.6v3.7h-12.1v-3.7l3-0.6V4.3L175.8,3.7z"/>
		<path fill="#54C4CD" d="M201.2,33.3c-3.3,0-5.9-1.1-7.9-3.2c-2-2.1-3-4.8-3-8v-0.8c0-3.4,0.9-6.2,2.8-8.4c1.9-2.2,4.4-3.3,7.5-3.3
			c3.1,0,5.5,0.9,7.2,2.8c1.7,1.9,2.6,4.4,2.6,7.5v3.4h-13.6l0,0.1c0.1,1.5,0.6,2.7,1.5,3.7c0.9,1,2.1,1.5,3.6,1.5
			c1.4,0,2.5-0.1,3.4-0.4c0.9-0.3,1.9-0.7,3-1.3l1.7,3.8c-0.9,0.7-2.2,1.4-3.7,1.9S203,33.3,201.2,33.3z M200.6,14.4
			c-1.1,0-2,0.4-2.7,1.3c-0.7,0.9-1.1,2-1.2,3.4l0.1,0.1h7.6v-0.5c0-1.3-0.3-2.4-0.9-3.1C202.8,14.8,201.9,14.4,200.6,14.4z"/>
		<path fill="#54C4CD" d="M218.5,4c0,1.4-0.4,2.9-1.1,4.4c-0.7,1.6-1.7,2.8-2.7,3.8l-3-1.7c0.5-1,1-2,1.3-3c0.3-1,0.4-2.2,0.4-3.6V0
			h5.2V4z"/>
		<path fill="#54C4CD" d="M238.3,17.9h-4.1l-0.7-2.8c-0.4-0.3-1-0.6-1.6-0.8c-0.6-0.2-1.3-0.3-2.1-0.3c-1.1,0-1.9,0.2-2.6,0.7
			c-0.6,0.5-0.9,1.1-0.9,1.8c0,0.7,0.3,1.3,0.9,1.7c0.6,0.5,1.8,0.9,3.6,1.2c2.8,0.6,4.9,1.4,6.3,2.5c1.4,1.1,2,2.6,2,4.5
			c0,2.1-0.9,3.7-2.6,5c-1.8,1.3-4.1,2-7,2c-1.8,0-3.4-0.3-4.8-0.8c-1.5-0.5-2.8-1.2-3.9-2.2l-0.1-5.1h4.3l0.8,3
			c0.4,0.3,0.9,0.5,1.5,0.7c0.6,0.1,1.3,0.2,2,0.2c1.3,0,2.2-0.2,2.9-0.7c0.7-0.5,1-1.1,1-1.8c0-0.7-0.3-1.3-1-1.8
			c-0.7-0.5-1.9-0.9-3.6-1.3c-2.7-0.5-4.7-1.4-6.1-2.4c-1.4-1.1-2.1-2.5-2.1-4.4c0-1.9,0.8-3.6,2.4-4.9c1.6-1.4,3.8-2.1,6.7-2.1
			c1.8,0,3.4,0.2,5,0.7s2.8,1.1,3.7,1.8L238.3,17.9z"/>
		<path fill="#54C4CD" d="M252,13.8v-3.7h8.9l0.3,2.7c0.7-1,1.5-1.7,2.4-2.3c0.9-0.5,2-0.8,3.3-0.8c2.8,0,5,1.1,6.6,3.3
			c1.6,2.2,2.3,5.1,2.3,8.7v0.4c0,3.4-0.8,6.1-2.3,8.1c-1.6,2.1-3.7,3.1-6.5,3.1c-1.2,0-2.3-0.2-3.2-0.7c-0.9-0.4-1.7-1.1-2.4-2v6.6
			l3,0.6v3.7h-12.1V38l3-0.6V14.4L252,13.8z M269.8,21.7c0-2.2-0.4-3.9-1.1-5.2s-1.8-2-3.3-2c-0.9,0-1.7,0.2-2.4,0.6
			c-0.7,0.4-1.2,0.9-1.6,1.6v10c0.4,0.6,0.9,1.1,1.6,1.5c0.7,0.3,1.5,0.5,2.4,0.5c1.5,0,2.6-0.6,3.3-1.8c0.7-1.2,1-2.7,1-4.7V21.7z"
			/>
		<path fill="#54C4CD" d="M277.6,3.7V0h9.4v28.6l3,0.6v3.7h-12.1v-3.7l3-0.6V4.3L277.6,3.7z"/>
		<path fill="#54C4CD" d="M306.6,32.9c-0.2-0.4-0.3-0.8-0.4-1.2c-0.1-0.4-0.2-0.8-0.3-1.2c-0.7,0.8-1.6,1.5-2.7,2s-2.2,0.8-3.6,0.8
			c-2.2,0-4-0.6-5.3-1.8s-2-2.9-2-5c0-2.1,0.9-3.8,2.6-5c1.7-1.2,4.2-1.8,7.6-1.8h3.1v-2.2c0-1.1-0.3-1.9-0.9-2.6s-1.6-0.9-2.8-0.9
			c-0.7,0-1.3,0.1-1.9,0.2c-0.5,0.2-1,0.4-1.3,0.6l-0.4,2.4h-4.6l0-5.1c1.1-0.8,2.4-1.4,3.9-1.9c1.5-0.5,3-0.8,4.8-0.8
			c2.8,0,5.1,0.7,6.9,2.1c1.8,1.4,2.6,3.4,2.6,5.9v9.4c0,0.4,0,0.7,0,1c0,0.3,0,0.6,0.1,0.9l1.9,0.3v3.7H306.6z M301.2,28.8
			c0.9,0,1.8-0.2,2.5-0.6c0.8-0.4,1.3-0.9,1.8-1.5v-3.5h-3.1c-1.3,0-2.3,0.3-3,0.9c-0.7,0.6-1,1.3-1,2.2c0,0.8,0.2,1.4,0.7,1.8
			S300.3,28.8,301.2,28.8z"/>
		<path fill="#54C4CD" d="M315.4,29.2l3-0.6V14.4l-3.3-0.6v-3.7h9l0.3,3.3c0.8-1.2,1.7-2.1,2.8-2.7c1.1-0.6,2.4-1,3.7-1
			c2.3,0,4.1,0.7,5.4,2.2c1.3,1.4,1.9,3.7,1.9,6.8v9.9l3,0.6v3.7h-11.8v-3.7l2.6-0.6v-9.9c0-1.5-0.3-2.6-0.9-3.3
			c-0.6-0.6-1.6-1-2.8-1c-0.8,0-1.5,0.2-2.2,0.5c-0.6,0.3-1.2,0.8-1.6,1.4v12.2l2.5,0.6v3.7h-11.6V29.2z"/>
	</g>
</g>
</svg>