<!-- Generator: Adobe Illustrator 18.0.0, SVG Export Plug-In  -->
<svg version="1.1"
	 xmlns="http://www.w3.org/2000/svg" xmlns:xlink="http://www.w3.org/1999/xlink" xmlns:a="http://ns.adobe.com/AdobeSVGViewerExtensions/3.0/"
	 x="0px" y="0px" width="154.1px" height="18.8px" viewBox="0 0 154.1 18.8" enable-background="new 0 0 154.1 18.8"
	 xml:space="preserve">
<defs>
</defs>
<g>
	<g>
		<path fill="#54C4CD" d="M4.3,2v2.5h1.8v2H4.3v5.2c0,0.4,0.1,0.7,0.2,0.9s0.4,0.3,0.7,0.3c0.2,0,0.4,0,0.5,0c0.1,0,0.3,0,0.5-0.1
			l0.2,2c-0.3,0.1-0.6,0.2-0.9,0.2c-0.3,0-0.6,0.1-1,0.1c-1,0-1.7-0.3-2.2-0.8s-0.8-1.4-0.8-2.5V6.5H0v-2h1.5V2H4.3z"/>
		<path fill="#54C4CD" d="M7.3,13.2l1.3-0.3V2L7.2,1.7V0h4.3v5.9c0.3-0.5,0.7-0.8,1.2-1.1c0.5-0.3,1-0.4,1.6-0.4
			c1.1,0,1.9,0.4,2.5,1.1s0.9,1.8,0.9,3.3v4.2l1.3,0.3v1.7h-5.3v-1.7l1.2-0.3V8.7c0-0.8-0.1-1.4-0.4-1.7c-0.3-0.3-0.7-0.5-1.3-0.5
			c-0.4,0-0.7,0.1-1,0.2c-0.3,0.1-0.5,0.3-0.7,0.6v5.6l1.2,0.3v1.7H7.3V13.2z"/>
		<path fill="#54C4CD" d="M24.7,15.1c-1.5,0-2.7-0.5-3.6-1.4c-0.9-1-1.3-2.2-1.3-3.6V9.6c0-1.5,0.4-2.8,1.3-3.8c0.8-1,2-1.5,3.4-1.5
			c1.4,0,2.5,0.4,3.2,1.3s1.2,2,1.2,3.4v1.5h-6.2l0,0.1c0.1,0.7,0.3,1.2,0.7,1.7s1,0.7,1.6,0.7c0.6,0,1.1-0.1,1.5-0.2
			c0.4-0.1,0.9-0.3,1.3-0.6l0.8,1.7c-0.4,0.3-1,0.6-1.7,0.8C26.3,14.9,25.5,15.1,24.7,15.1z M24.4,6.5c-0.5,0-0.9,0.2-1.2,0.6
			c-0.3,0.4-0.5,0.9-0.6,1.6l0,0h3.4V8.4c0-0.6-0.1-1.1-0.4-1.4C25.4,6.7,25,6.5,24.4,6.5z"/>
		<path fill="#54C4CD" d="M34.7,6.2V4.6h4l0.1,1.2c0.3-0.4,0.7-0.8,1.1-1s0.9-0.4,1.5-0.4c1.3,0,2.3,0.5,3,1.5
			c0.7,1,1.1,2.3,1.1,3.9V10c0,1.5-0.4,2.7-1.1,3.7c-0.7,0.9-1.7,1.4-3,1.4c-0.5,0-1-0.1-1.4-0.3c-0.4-0.2-0.8-0.5-1.1-0.9v3
			l1.3,0.3v1.7h-5.5v-1.7l1.3-0.3V6.5L34.7,6.2z M42.7,9.8c0-1-0.2-1.8-0.5-2.4c-0.3-0.6-0.8-0.9-1.5-0.9c-0.4,0-0.8,0.1-1.1,0.3
			C39.4,7,39.2,7.2,39,7.5V12c0.2,0.3,0.4,0.5,0.7,0.7c0.3,0.2,0.7,0.2,1.1,0.2c0.7,0,1.2-0.3,1.5-0.8c0.3-0.5,0.5-1.2,0.5-2.1V9.8z
			"/>
		<path fill="#54C4CD" d="M51.7,15.1c-1.5,0-2.7-0.5-3.6-1.4c-0.9-1-1.3-2.2-1.3-3.6V9.6c0-1.5,0.4-2.8,1.3-3.8c0.8-1,2-1.5,3.4-1.5
			c1.4,0,2.5,0.4,3.2,1.3s1.2,2,1.2,3.4v1.5h-6.2l0,0.1c0.1,0.7,0.3,1.2,0.7,1.7s1,0.7,1.6,0.7c0.6,0,1.1-0.1,1.5-0.2
			c0.4-0.1,0.9-0.3,1.3-0.6l0.8,1.7c-0.4,0.3-1,0.6-1.7,0.8C53.3,14.9,52.5,15.1,51.7,15.1z M51.4,6.5c-0.5,0-0.9,0.2-1.2,0.6
			c-0.3,0.4-0.5,0.9-0.6,1.6l0,0h3.4V8.4c0-0.6-0.1-1.1-0.4-1.4C52.4,6.7,52,6.5,51.4,6.5z"/>
		<path fill="#54C4CD" d="M57.1,9.6c0-1.5,0.4-2.8,1.3-3.8c0.9-1,2-1.5,3.6-1.5c1.5,0,2.7,0.5,3.6,1.5c0.9,1,1.3,2.2,1.3,3.8v0.2
			c0,1.5-0.4,2.8-1.3,3.8c-0.9,1-2,1.5-3.6,1.5c-1.5,0-2.7-0.5-3.6-1.5c-0.9-1-1.3-2.2-1.3-3.8V9.6z M59.9,9.8
			c0,0.9,0.2,1.7,0.5,2.3c0.3,0.6,0.9,0.9,1.6,0.9c0.7,0,1.2-0.3,1.6-0.9c0.3-0.6,0.5-1.3,0.5-2.3V9.6c0-0.9-0.2-1.7-0.5-2.2
			S62.7,6.5,62,6.5s-1.3,0.3-1.6,0.9s-0.5,1.3-0.5,2.2V9.8z"/>
		<path fill="#54C4CD" d="M67.9,6.2V4.6h4L72,5.8c0.3-0.4,0.7-0.8,1.1-1s0.9-0.4,1.5-0.4c1.3,0,2.3,0.5,3,1.5c0.7,1,1.1,2.3,1.1,3.9
			V10c0,1.5-0.4,2.7-1.1,3.7c-0.7,0.9-1.7,1.4-3,1.4c-0.5,0-1-0.1-1.4-0.3c-0.4-0.2-0.8-0.5-1.1-0.9v3l1.3,0.3v1.7H68v-1.7l1.3-0.3
			V6.5L67.9,6.2z M75.9,9.8c0-1-0.2-1.8-0.5-2.4c-0.3-0.6-0.8-0.9-1.5-0.9c-0.4,0-0.8,0.1-1.1,0.3c-0.3,0.2-0.5,0.4-0.7,0.7V12
			c0.2,0.3,0.4,0.5,0.7,0.7c0.3,0.2,0.7,0.2,1.1,0.2c0.7,0,1.2-0.3,1.5-0.8c0.3-0.5,0.5-1.2,0.5-2.1V9.8z"/>
		<path fill="#54C4CD" d="M79.4,1.7V0h4.3v12.9l1.3,0.3v1.7h-5.5v-1.7l1.3-0.3V2L79.4,1.7z"/>
		<path fill="#54C4CD" d="M90.8,15.1c-1.5,0-2.7-0.5-3.6-1.4c-0.9-1-1.3-2.2-1.3-3.6V9.6c0-1.5,0.4-2.8,1.3-3.8c0.8-1,2-1.5,3.4-1.5
			c1.4,0,2.5,0.4,3.2,1.3S95,7.6,95,9v1.5h-6.2l0,0.1c0.1,0.7,0.3,1.2,0.7,1.7s1,0.7,1.6,0.7c0.6,0,1.1-0.1,1.5-0.2
			c0.4-0.1,0.9-0.3,1.3-0.6l0.8,1.7c-0.4,0.3-1,0.6-1.7,0.8C92.4,14.9,91.7,15.1,90.8,15.1z M90.6,6.5c-0.5,0-0.9,0.2-1.2,0.6
			c-0.3,0.4-0.5,0.9-0.6,1.6l0,0h3.4V8.4c0-0.6-0.1-1.1-0.4-1.4C91.6,6.7,91.1,6.5,90.6,6.5z"/>
		<path fill="#54C4CD" d="M98.7,1.8c0,0.6-0.2,1.3-0.5,2c-0.3,0.7-0.7,1.3-1.2,1.7l-1.4-0.8c0.2-0.4,0.4-0.9,0.6-1.4
			c0.1-0.5,0.2-1,0.2-1.6V0h2.3V1.8z"/>
		<path fill="#54C4CD" d="M107.6,8.1h-1.9l-0.3-1.3c-0.2-0.2-0.4-0.3-0.7-0.4c-0.3-0.1-0.6-0.2-1-0.2c-0.5,0-0.9,0.1-1.2,0.3
			c-0.3,0.2-0.4,0.5-0.4,0.8c0,0.3,0.1,0.6,0.4,0.8c0.3,0.2,0.8,0.4,1.6,0.5c1.3,0.3,2.2,0.6,2.8,1.1c0.6,0.5,0.9,1.2,0.9,2
			c0,0.9-0.4,1.7-1.2,2.3c-0.8,0.6-1.8,0.9-3.1,0.9c-0.8,0-1.5-0.1-2.2-0.3c-0.7-0.2-1.3-0.6-1.8-1l0-2.3h1.9l0.4,1.3
			c0.2,0.1,0.4,0.2,0.7,0.3s0.6,0.1,0.9,0.1c0.6,0,1-0.1,1.3-0.3c0.3-0.2,0.4-0.5,0.4-0.8c0-0.3-0.1-0.6-0.4-0.8
			c-0.3-0.2-0.8-0.4-1.6-0.6c-1.2-0.2-2.1-0.6-2.7-1.1c-0.6-0.5-0.9-1.1-0.9-2c0-0.9,0.4-1.6,1.1-2.2s1.7-0.9,3-0.9
			c0.8,0,1.6,0.1,2.3,0.3s1.3,0.5,1.7,0.8L107.6,8.1z"/>
		<path fill="#54C4CD" d="M113.8,6.2V4.6h4l0.1,1.2c0.3-0.4,0.7-0.8,1.1-1s0.9-0.4,1.5-0.4c1.3,0,2.3,0.5,3,1.5
			c0.7,1,1.1,2.3,1.1,3.9V10c0,1.5-0.4,2.7-1.1,3.7c-0.7,0.9-1.7,1.4-3,1.4c-0.5,0-1-0.1-1.4-0.3c-0.4-0.2-0.8-0.5-1.1-0.9v3
			l1.3,0.3v1.7h-5.5v-1.7l1.3-0.3V6.5L113.8,6.2z M121.8,9.8c0-1-0.2-1.8-0.5-2.4c-0.3-0.6-0.8-0.9-1.5-0.9c-0.4,0-0.8,0.1-1.1,0.3
			c-0.3,0.2-0.5,0.4-0.7,0.7V12c0.2,0.3,0.4,0.5,0.7,0.7c0.3,0.2,0.7,0.2,1.1,0.2c0.7,0,1.2-0.3,1.5-0.8c0.3-0.5,0.5-1.2,0.5-2.1
			V9.8z"/>
		<path fill="#54C4CD" d="M125.3,1.7V0h4.3v12.9l1.3,0.3v1.7h-5.5v-1.7l1.3-0.3V2L125.3,1.7z"/>
		<path fill="#54C4CD" d="M138.4,14.9c-0.1-0.2-0.1-0.3-0.2-0.5c-0.1-0.2-0.1-0.4-0.1-0.5c-0.3,0.4-0.7,0.7-1.2,0.9s-1,0.4-1.6,0.4
			c-1,0-1.8-0.3-2.4-0.8c-0.6-0.5-0.9-1.3-0.9-2.2c0-1,0.4-1.7,1.2-2.2c0.8-0.5,1.9-0.8,3.4-0.8h1.4V8c0-0.5-0.1-0.9-0.4-1.2
			s-0.7-0.4-1.3-0.4c-0.3,0-0.6,0-0.8,0.1c-0.2,0.1-0.4,0.2-0.6,0.3l-0.2,1.1h-2.1l0-2.3c0.5-0.3,1.1-0.6,1.7-0.9s1.4-0.4,2.1-0.4
			c1.3,0,2.3,0.3,3.1,0.9s1.2,1.5,1.2,2.7v4.3c0,0.2,0,0.3,0,0.4c0,0.1,0,0.3,0,0.4l0.8,0.1v1.7H138.4z M136,13
			c0.4,0,0.8-0.1,1.1-0.3c0.3-0.2,0.6-0.4,0.8-0.7v-1.6h-1.4c-0.6,0-1,0.1-1.3,0.4c-0.3,0.3-0.5,0.6-0.5,1c0,0.3,0.1,0.6,0.3,0.8
			C135.3,12.9,135.6,13,136,13z"/>
		<path fill="#54C4CD" d="M142.4,13.2l1.3-0.3V6.5l-1.5-0.3V4.6h4.1l0.1,1.5c0.3-0.5,0.8-0.9,1.3-1.2s1.1-0.4,1.7-0.4
			c1,0,1.9,0.3,2.4,1c0.6,0.7,0.9,1.7,0.9,3.1v4.5l1.3,0.3v1.7h-5.3v-1.7l1.2-0.3V8.4c0-0.7-0.1-1.2-0.4-1.5
			c-0.3-0.3-0.7-0.4-1.3-0.4c-0.4,0-0.7,0.1-1,0.2c-0.3,0.1-0.5,0.4-0.7,0.6v5.5l1.1,0.3v1.7h-5.2V13.2z"/>
	</g>
</g>
</svg>