<!-- Generator: Adobe Illustrator 18.0.0, SVG Export Plug-In  -->
<svg version="1.1"
	 xmlns="http://www.w3.org/2000/svg" xmlns:xlink="http://www.w3.org/1999/xlink" xmlns:a="http://ns.adobe.com/AdobeSVGViewerExtensions/3.0/"
	 x="0px" y="0px" width="142.9px" height="244.1px" viewBox="0 0 142.9 244.1" enable-background="new 0 0 142.9 244.1"
	 xml:space="preserve">
<defs>
</defs>
<g>
	<path fill="#E2E2E1" d="M87.4,111c0,0,5-16.6,1.9-22.8c-3.8-7.6-17.9-12.8-29.9-9.1c-12,3.7-17.9,23.3-10.1,31.6
		c0,0-10.5,8.2-12.2,17c-1.7,8.8-1.5,13.5,0,17.4c1.5,3.9,3.4,8.6,3.4,8.6s-9.7,8.8-9.1,21.2c0.7,12.3,11.6,23.8,20.8,25.1
		c9.2,1.3,35.5,0,42.5-4.7c7-4.7,12.4-11.7,12.3-18.9c-0.1-7.2-7.7-16.4-7.7-16.4s3.5-11.7,4.3-19.3c0.8-7.6-2.6-17.5-6.6-21.5
		C93.2,115.1,87.4,111,87.4,111z"/>
	<path fill="#80CDC8" d="M92.4,161.6c-0.3-6.3-4.2-4.1-4.9-0.1c-0.6,3.3-2.2,6.5-6,9.4c-3,2.3-6.5,2.7-8.2,2.8
		c-0.2-6.5-0.4-13-0.6-19.4c3.8,0.1,10.7-0.7,14.6-7.4c4.3-7.5,3.1-11.8,2.1-14.6c-1-2.8-3.8-0.7-4.1,4.2
		c-0.2,3.6-1.1,12.3-12.8,12.9c-0.4-11.4-0.7-22-1.1-30.8c2.3-1.7,7.7-6.1,9.2-11.8c1.3-4.5-0.2-9.5-2.5-5.1c-2.1,4.1-4,9.5-7,10.5
		c-0.4-8.9-0.7-14.8-0.8-16c-0.9-6.4-5-5.1-5.1,0.6c0,0.9-0.1,5.4-0.2,12.2c-2.5-1.1-5.7-4.9-7.5-7.5c-2.2-3.2-6.3,0.5-2.6,5
		c3.2,3.9,8.1,9,9.9,10.9c-0.1,7.8-0.3,17.4-0.4,27.6c-1.2-0.6-2.7-1.5-4.3-2.9c-3.8-3.2-7.1-11.8-7.1-11.8
		c-1.5-2.9-3.4-3.5-4.1-0.1c-0.7,3.5,0.5,6,3.3,12.1c2,4.5,8.7,8.1,12.1,9.8c-0.1,7.5-0.2,15.3-0.3,22.9c-2.9-0.8-12-18.9-14.3-19.3
		c-2.3-0.5-3,6.3-2.1,11.6c1,5.3,4.5,9.8,9.1,12.4c2.6,1.5,5.4,2.2,7.2,2.4c-0.3,31.9-0.4,60.6,0.4,61.2c1.9,1.3,7.6,0.8,9.5-0.5
		c0.9-0.6,0.4-29.9-0.5-62.3c2.6-0.4,6.6-1.2,9.6-2.4C87.7,176.3,92.7,167.9,92.4,161.6z"/>
</g>
<g>
	<path fill="#F3D0B4" d="M26.2,218.5c-5.3-0.9-10.7-5.2-14.5-9.1C6.2,203.9,0.8,194,0.2,186.1c-1.7-22.5,8.2-38.9,12.3-46.1
		c4.1-7.2,9.9-18.4,19.8-5.8c8.7,11.1,18.1,29,16.4,47.8c-1,10.9-5.5,24.7-12.7,33C33,218.3,29.6,219.1,26.2,218.5z"/>
	<path fill="#50565F" d="M39.9,193.3c-0.2-3.9-2.6-2.5-3,0c-0.3,2.1-1.4,4-3.7,5.8c-1.8,1.4-4,1.7-5,1.7c-0.1-4-0.2-8-0.4-12
		c2.3,0.1,6.6-0.4,9-4.6c2.7-4.6,1.9-7.3,1.3-9c-0.6-1.7-2.3-0.4-2.5,2.6c-0.1,2.2-0.7,7.6-7.9,7.9c-0.2-7-0.5-13.6-0.7-19
		c1.4-1,4.7-3.8,5.7-7.2c0.8-2.8-0.1-5.9-1.5-3.1c-1.3,2.5-2.5,5.9-4.3,6.5c-0.2-5.5-0.4-9.1-0.5-9.9c-0.5-3.9-3.1-3.2-3.1,0.3
		c0,0.6-0.1,3.3-0.1,7.5c-1.5-0.6-3.5-3-4.6-4.6c-1.3-2-3.9,0.3-1.6,3.1c2,2.4,5,5.6,6.1,6.7c-0.1,4.8-0.2,10.7-0.3,17
		c-0.7-0.4-1.7-0.9-2.7-1.8c-2.3-2-4.4-7.3-4.4-7.3c-0.9-1.8-2.1-2.2-2.5,0c-0.4,2.1,0.3,3.7,2,7.5c1.3,2.8,5.4,5,7.5,6
		c-0.1,4.6-0.1,9.4-0.2,14.1c-1.8-0.5-5.7-1.9-6.7-5.2c-1.4-4.3-0.7-6.4-2.1-6.7c-1.4-0.3-1.9,3.9-1.3,7.1c0.6,3.3,2.8,6,5.6,7.6
		c1.6,0.9,3.3,1.3,4.4,1.5c-0.2,19.6-0.3,37.3,0.3,37.7c1.2,0.8,4.7,0.5,5.9-0.3c0.5-0.3,0.2-18.4-0.3-38.3c1.6-0.3,4.1-0.8,5.9-1.5
		C37.1,202.3,40.1,197.2,39.9,193.3z"/>
</g>
<circle fill="#54C4CD" cx="85.1" cy="208.9" r="1.8"/>
<polygon fill="#F3D0B4" points="97.2,210.3 98.8,213.8 95,213.4 91.2,213 93.4,209.9 95.6,206.9 "/>
<g>
	<path fill="#50565F" d="M108.2,91.3c0.5-4.1,4.5-6.9,8.8-6.4c4.3,0.6,7.3,4.3,6.8,8.4c-0.5,4.1-4.5,6.9-8.8,6.4
		C110.7,99.2,107.6,95.4,108.2,91.3z"/>
	<path fill="#50565F" d="M127.3,101.4c0.5-4.1,4.5-6.9,8.8-6.4c4.3,0.6,7.3,4.3,6.8,8.4c-0.5,4.1-4.5,6.9-8.8,6.4
		C129.8,109.3,126.8,105.5,127.3,101.4z"/>
	<path fill="#50565F" d="M100.8,101.2c0.5-4.1,4.5-6.9,8.8-6.4c4.3,0.6,7.3,4.3,6.8,8.4c-0.5,4.1-4.5,6.9-8.8,6.4
		C103.3,109,100.2,105.2,100.8,101.2z"/>
	<path fill="#50565F" d="M119.2,94.3c0.7-5.1,4.9-8.6,9.5-8c4.6,0.6,7.8,5.2,7.1,10.2c-0.7,5-4.9,8.6-9.5,8
		C121.7,103.9,118.5,99.3,119.2,94.3z"/>
	<path fill="#50565F" d="M112.7,104.9c0.7-5,4.9-8.6,9.6-8c4.6,0.6,7.8,5.2,7.1,10.3c-0.7,5-4.9,8.6-9.5,8
		C115.3,114.5,112.1,109.9,112.7,104.9z"/>
</g>
<g>
	<path fill="#F3D0B4" d="M33.9,10c0.8-6.4,7-10.8,13.7-9.9C54.2,1,59,6.9,58.1,13.3c-0.8,6.4-7,10.8-13.7,9.9
		C37.8,22.3,33,16.4,33.9,10z"/>
	<path fill="#F3D0B4" d="M63.8,25.7c0.8-6.4,7-10.8,13.7-9.9C84.1,16.7,88.9,22.6,88,29c-0.8,6.4-7,10.8-13.7,9.9
		C67.7,38,62.9,32.1,63.8,25.7z"/>
	<path fill="#F3D0B4" d="M22.3,25.4c0.8-6.4,7-10.8,13.7-9.9c6.7,0.9,11.5,6.8,10.6,13.2c-0.8,6.4-7,10.8-13.7,9.9
		C26.2,37.6,21.5,31.7,22.3,25.4z"/>
	<path fill="#F3D0B4" d="M51.1,14.7c1-7.9,7.7-13.5,14.9-12.5c7.2,1,12.2,8.1,11.1,16c-1,7.9-7.7,13.5-14.9,12.5
		C55,29.7,50.1,22.5,51.1,14.7z"/>
	<path fill="#F3D0B4" d="M41,31.1c1-7.9,7.7-13.5,14.9-12.5c7.2,1,12.2,8.1,11.1,16c-1,7.9-7.7,13.5-14.9,12.5
		C45,46.2,40,39,41,31.1z"/>
</g>
</svg>
