<!-- Generator: Adobe Illustrator 18.0.0, SVG Export Plug-In  -->
<svg version="1.1"
	 xmlns="http://www.w3.org/2000/svg" xmlns:xlink="http://www.w3.org/1999/xlink" xmlns:a="http://ns.adobe.com/AdobeSVGViewerExtensions/3.0/"
	 x="0px" y="0px" width="521.8px" height="176.9px" viewBox="0 0 521.8 176.9"
	 xml:space="preserve">
<defs>
</defs>
<g>
	<path fill="#54C4CD" d="M209.5,60.7C209.5,60.7,209.4,60.7,209.5,60.7c-0.1,0-0.2,0-0.2,0H209.5z"/>
	<g>
		<path fill="#E2E2E1" d="M459.7,35.3c0,0,5.3-17.7,2.1-24.3c-4-8.1-19.1-13.6-31.9-9.7c-12.8,3.9-19.1,24.8-10.7,33.6
			c0,0-11.2,8.7-13,18.1c-1.8,9.4-1.6,14.3,0,18.5c1.6,4.1,3.6,9.2,3.6,9.2s-10.4,9.4-9.6,22.5c0.7,13.1,12.3,25.3,22.2,26.7
			c9.8,1.4,37.8,0,45.3-5c7.5-5.1,13.2-12.4,13.1-20.1c-0.1-7.7-8.2-17.5-8.2-17.5s3.7-12.4,4.6-20.5c0.8-8.1-2.7-18.6-7-22.9
			C465.8,39.6,459.7,35.3,459.7,35.3z"/>
		<path fill="#80CDC8" d="M465,89.1c-0.3-6.8-4.4-4.3-5.2-0.1c-0.6,3.6-2.3,6.9-6.4,10c-3.2,2.4-6.9,2.9-8.7,3
			c-0.2-6.9-0.4-13.9-0.6-20.7c4,0.1,11.4-0.7,15.6-7.9c4.6-8,3.3-12.6,2.3-15.5c-1.1-2.9-4-0.7-4.3,4.4
			c-0.2,3.8-1.2,13.1-13.6,13.7c-0.4-12.1-0.8-23.4-1.1-32.8c2.5-1.8,8.2-6.5,9.8-12.5c1.3-4.8-0.2-10.1-2.6-5.4
			c-2.3,4.3-4.2,10.1-7.5,11.2c-0.4-9.4-0.7-15.8-0.9-17.1c-0.9-6.8-5.3-5.5-5.4,0.6c0,1-0.1,5.7-0.2,12.9c-2.7-1.1-6.1-5.2-8-8
			c-2.3-3.4-6.8,0.6-2.8,5.4c3.4,4.1,8.7,9.6,10.6,11.6c-0.1,8.3-0.3,18.5-0.5,29.4c-1.3-0.6-2.9-1.6-4.6-3.1
			c-4-3.4-7.6-12.6-7.6-12.6c-1.6-3.1-3.7-3.8-4.4-0.1c-0.7,3.7,0.6,6.4,3.5,12.9c2.2,4.8,9.3,8.7,12.9,10.4
			c-0.1,8-0.2,16.3-0.3,24.4c-3.1-0.8-12.8-20.1-15.3-20.6c-2.5-0.5-3.2,6.7-2.2,12.3c1,5.6,4.8,10.4,9.7,13.2
			c2.8,1.6,5.7,2.3,7.7,2.6c-0.4,33.9-0.5,64.6,0.4,65.2c2,1.4,8.1,0.8,10.1-0.5c0.9-0.6,0.4-31.9-0.5-66.3
			c2.8-0.5,7.1-1.3,10.2-2.6C460.1,104.8,465.4,95.8,465,89.1z"/>
	</g>
	<g>
		<path fill="#F3D0B4" d="M364.6,144.3c-6.8-1.2-13.6-6.7-18.5-11.6c-7-7-13.9-19.7-14.7-29.8c-2.2-28.7,10.4-49.6,15.7-58.8
			c5.2-9.1,12.6-23.5,25.2-7.4c11.1,14.2,23.1,37,20.9,60.9c-1.3,13.8-7,31.6-16.2,42.1C373.3,144.1,369,145.1,364.6,144.3z"/>
		<path fill="#50565F" d="M382.1,112.1c-0.3-5-3.3-3.2-3.8-0.1c-0.4,2.6-1.7,5.1-4.8,7.4c-2.4,1.8-5.1,2.1-6.4,2.2
			c-0.1-5.1-0.3-10.2-0.5-15.3c3,0.1,8.4-0.5,11.5-5.8c3.4-5.9,2.5-9.3,1.7-11.4c-0.8-2.2-3-0.5-3.2,3.3c-0.2,2.8-0.9,9.6-10.1,10.1
			c-0.3-8.9-0.6-17.3-0.8-24.2c1.8-1.3,6-4.8,7.3-9.2c1-3.6-0.1-7.5-1.9-4c-1.7,3.2-3.1,7.5-5.5,8.3c-0.3-7-0.5-11.6-0.6-12.6
			c-0.7-5-3.9-4-4,0.4c0,0.7-0.1,4.2-0.2,9.6c-2-0.8-4.5-3.9-5.9-5.9c-1.7-2.5-5,0.4-2,4c2.5,3,6.4,7.1,7.8,8.5
			c-0.1,6.2-0.2,13.6-0.4,21.7c-0.9-0.5-2.1-1.2-3.4-2.3c-2.9-2.5-5.6-9.3-5.6-9.3c-1.2-2.3-2.7-2.8-3.2,0c-0.5,2.7,0.4,4.7,2.6,9.5
			c1.6,3.5,6.9,6.4,9.5,7.7c-0.1,5.9-0.2,12-0.2,18c-2.3-0.6-7.2-2.5-8.6-6.7c-1.7-5.5-0.9-8.2-2.7-8.5c-1.8-0.4-2.4,4.9-1.6,9.1
			c0.8,4.2,3.5,7.7,7.2,9.7c2.1,1.2,4.2,1.7,5.7,1.9c-0.3,25-0.3,47.6,0.3,48.1c1.5,1,6,0.6,7.5-0.4c0.7-0.4,0.3-23.5-0.4-48.9
			c2-0.3,5.2-1,7.5-1.9C378.5,123.7,382.4,117.1,382.1,112.1z"/>
	</g>
	<circle fill="#50565F" cx="306.3" cy="142.6" r="1.8"/>
	<polygon fill="#80CDC8" points="75.5,103.6 79,102.1 78.5,105.8 78.1,109.6 75,107.3 72,105 	"/>
	<g>
		<g>
			<path fill="#54C4CD" d="M134.8,110.6c0,0.6,0,3,0.9,3h9.8c0.8,0,6.3-2.4,6.3-3v-10.2c0-0.6-5.5-1.8-6.3-1.8h-9.8
				c-0.8,0-0.9,1.2-0.9,1.8V110.6z"/>
			<path fill="#F3D0B4" d="M146.3,67.3c0-4.6-2.5-8.3-5.7-8.3c-3.1,0-5.7,3.7-5.7,8.3"/>
			<path fill="#E2E2E1" d="M129.8,164.1v-7.5c-24,0-36.3-15.1-36.3-33.7c0-18.6,12.3-33.7,36.3-33.7v-7.5c-24,0-43.9,18.5-43.9,41.3
				C85.9,145.6,105.8,164.1,129.8,164.1z"/>
			<polygon fill="#F3D0B4" points="120.8,167.6 160.6,167.6 148.1,142.6 133.3,142.6 			"/>
			<rect x="112.8" y="165.6" fill="#54C4CD" width="55" height="11"/>
			<path fill="#E2E2E1" d="M126.8,95.4c0,4,1.7,6.2,4.8,6.2H149c3.1,0,4.8-2.1,4.8-6.2V73c0-4-1.7-6.5-4.8-6.5h-17.3
				c-3.1,0-4.8,2.4-4.8,6.5V95.4z"/>
			<circle fill="#50565F" cx="126.1" cy="85.5" r="6.1"/>
			<circle fill="#50565F" cx="126.1" cy="161" r="6.1"/>
			<circle fill="#E2E2E1" cx="126.1" cy="161.1" r="3.3"/>
			<circle fill="#54C4CD" cx="126.1" cy="85.6" r="3.3"/>
		</g>
		<rect x="132.8" y="138.6" fill="#54C4CD" width="17" height="5"/>
	</g>
	<path fill="#54C4CD" d="M471.8,141.4c-1.6,0-2.8-1.2-2.9-2.8c0-1.6,1.2-2.8,2.8-2.9c1.6,0,2.8,1.2,2.9,2.8
		C474.6,140.1,473.4,141.4,471.8,141.4z"/>
	<polygon fill="#54C4CD" points="490.6,140.7 493,146.2 487.1,145.6 481.2,145 484.7,140.1 488.2,135.3 	"/>
	<polygon fill="#50565F" points="97.8,165.4 99.4,168.9 95.6,168.5 91.8,168.1 94.1,165 96.3,162 	"/>
	<g>
		<path fill="#F3D0B4" d="M59.4,69.4c0.5-4.1,4.5-6.9,8.8-6.4c4.3,0.6,7.3,4.3,6.8,8.4c-0.5,4.1-4.5,6.9-8.8,6.4
			C61.9,77.3,58.8,73.5,59.4,69.4z"/>
		<path fill="#F3D0B4" d="M78.5,79.5c0.5-4.1,4.5-6.9,8.8-6.4c4.3,0.6,7.3,4.3,6.8,8.4c-0.5,4.1-4.5,6.9-8.8,6.4
			C81,87.3,78,83.6,78.5,79.5z"/>
		<path fill="#F3D0B4" d="M52,79.2c0.5-4.1,4.5-6.9,8.8-6.4c4.3,0.6,7.3,4.3,6.8,8.4c-0.5,4.1-4.5,6.9-8.8,6.4
			C54.5,87.1,51.4,83.3,52,79.2z"/>
		<path fill="#F3D0B4" d="M70.4,72.4c0.7-5.1,4.9-8.6,9.5-8c4.6,0.6,7.8,5.2,7.1,10.2c-0.7,5-4.9,8.6-9.5,8
			C72.9,82,69.7,77.4,70.4,72.4z"/>
		<path fill="#F3D0B4" d="M64,82.9c0.7-5,4.9-8.6,9.6-8c4.6,0.6,7.8,5.2,7.1,10.3c-0.7,5-4.9,8.6-9.5,8C66.5,92.6,63.3,88,64,82.9z"
			/>
	</g>
	<g>
		<path fill="#E2E2E1" d="M10.9,100.9c0.8-5.9,6.5-10.1,12.7-9.3c6.2,0.8,10.7,6.3,9.9,12.3c-0.8,5.9-6.5,10.1-12.7,9.3
			C14.5,112.4,10.1,106.9,10.9,100.9z"/>
		<path fill="#E2E2E1" d="M38.8,115.6c0.8-6,6.5-10.1,12.7-9.3c6.3,0.8,10.7,6.3,9.9,12.3c-0.8,5.9-6.5,10.1-12.7,9.3
			C42.4,127,38,121.5,38.8,115.6z"/>
		<path fill="#E2E2E1" d="M0.1,115.2c0.8-5.9,6.5-10.1,12.7-9.3c6.2,0.8,10.7,6.3,9.9,12.3c-0.8,5.9-6.5,10.1-12.7,9.3
			C3.7,126.7-0.7,121.2,0.1,115.2z"/>
		<path fill="#E2E2E1" d="M26.9,105.2c1-7.4,7.2-12.6,13.9-11.7c6.7,0.9,11.4,7.6,10.4,14.9c-1,7.4-7.2,12.6-13.9,11.7
			C30.6,119.3,26,112.6,26.9,105.2z"/>
		<path fill="#E2E2E1" d="M17.5,120.6c1-7.4,7.2-12.6,13.9-11.7c6.7,0.9,11.4,7.6,10.4,14.9c-1,7.4-7.2,12.6-13.9,11.7
			C21.2,134.6,16.6,128,17.5,120.6z"/>
	</g>
	<g>
		<path fill="#50565F" d="M487,29.2c0.5-4.1,4.5-6.9,8.8-6.4c4.3,0.6,7.3,4.3,6.8,8.4c-0.5,4.1-4.5,6.9-8.8,6.4
			C489.5,37.1,486.5,33.3,487,29.2z"/>
		<path fill="#50565F" d="M506.2,39.3c0.5-4.1,4.5-6.9,8.7-6.4c4.3,0.6,7.3,4.3,6.8,8.4c-0.5,4.1-4.5,6.9-8.8,6.4
			C508.7,47.1,505.6,43.3,506.2,39.3z"/>
		<path fill="#50565F" d="M479.6,39c0.5-4.1,4.5-6.9,8.8-6.4c4.3,0.6,7.3,4.3,6.8,8.4c-0.5,4.1-4.5,6.9-8.8,6.4
			C482.1,46.9,479.1,43.1,479.6,39z"/>
		<path fill="#50565F" d="M498,32.1c0.7-5.1,4.9-8.6,9.5-8c4.6,0.6,7.8,5.2,7.1,10.2c-0.7,5-4.9,8.6-9.5,8
			C500.6,41.8,497.4,37.2,498,32.1z"/>
		<path fill="#50565F" d="M491.6,42.7c0.7-5,4.9-8.6,9.6-8c4.6,0.6,7.8,5.2,7.1,10.3c-0.7,5-4.9,8.6-9.5,8
			C494.1,52.3,490.9,47.8,491.6,42.7z"/>
	</g>
	<g>
		<path fill="#54C4CD" d="M286.9,47.7c0.7-5.3,5.8-9,11.3-8.2c5.5,0.7,9.5,5.6,8.8,10.9c-0.7,5.3-5.8,9-11.3,8.2
			C290.1,57.9,286.2,53,286.9,47.7z"/>
		<path fill="#54C4CD" d="M311.6,60.7c0.7-5.3,5.8-9,11.3-8.2c5.5,0.7,9.5,5.6,8.8,10.9c-0.7,5.3-5.8,9-11.3,8.2
			C314.9,70.9,310.9,66,311.6,60.7z"/>
		<path fill="#54C4CD" d="M277.3,60.4c0.7-5.3,5.8-9,11.3-8.2c5.5,0.7,9.5,5.6,8.8,10.9c-0.7,5.3-5.8,9-11.3,8.2
			C280.6,70.6,276.6,65.7,277.3,60.4z"/>
		<path fill="#54C4CD" d="M301.1,51.5c0.9-6.5,6.4-11.2,12.3-10.4c5.9,0.8,10.1,6.7,9.2,13.2c-0.9,6.5-6.4,11.2-12.3,10.4
			C304.4,64,300.3,58.1,301.1,51.5z"/>
		<path fill="#54C4CD" d="M292.8,65.2c0.9-6.5,6.4-11.2,12.3-10.4c5.9,0.8,10.1,6.7,9.2,13.2c-0.9,6.5-6.4,11.2-12.3,10.4
			C296.1,77.6,291.9,71.7,292.8,65.2z"/>
	</g>
	<g>
		<line fill="#E2E2E1" x1="253.1" y1="147.3" x2="254.1" y2="147"/>
		<line fill="#E2E2E1" x1="250.1" y1="147.4" x2="250.1" y2="147.4"/>
		<g>
			<path fill-rule="evenodd" clip-rule="evenodd" fill="#80CDC8" d="M242.1,164.2c-1,0.3-1.9-0.1-2.2-1c-0.3-0.9,0.2-1.8,1.1-2.1
				c1.7-0.7,3.4-1.3,5-2c1.4-0.5,2.8-1.1,4.1-1.6c1.4-0.6,2.9-1.1,4.3-1.7c1.4-0.5,2.7-1.1,4.1-1.6c1.4-0.6,2.9-1.1,4.4-1.7
				c1.4-0.5,2.8-1.1,4.2-1.6c0.4-0.1,0.7-0.3,1.1-0.4c0.8-0.2,1.6,0.2,1.9,1c0.3,0.8,0,1.7-0.7,2c-0.6,0.3-1.3,0.5-2,0.8
				c-1.5,0.6-2.9,1.2-4.4,1.7c-1.4,0.6-2.8,1.1-4.2,1.6c-1.4,0.6-2.8,1.1-4.2,1.7c-1.4,0.5-2.7,1.1-4.1,1.6
				c-1.5,0.6-2.9,1.1-4.4,1.7C244.9,163.1,243.5,163.6,242.1,164.2z"/>
			<path fill-rule="evenodd" clip-rule="evenodd" fill="#80CDC8" d="M242.6,171.9c-0.3-0.8,0.2-1.7,1-2c2.7-1.1,5.4-2.1,8.1-3.2
				c2.2-0.9,4.4-1.7,6.6-2.6c2.4-0.9,4.8-1.9,7.2-2.9c1.7-0.7,3.5-1.4,5.2-2.1c0.9-0.3,1.8,0.1,2.1,0.9c0.4,0.8,0,1.8-0.9,2.1
				c-1.2,0.5-2.4,1-3.6,1.4c-1.4,0.6-2.9,1.1-4.3,1.7c-1.4,0.5-2.7,1.1-4.1,1.6c-1.4,0.6-2.9,1.1-4.3,1.7c-1.4,0.5-2.8,1.1-4.2,1.6
				c-1.4,0.6-2.9,1.1-4.3,1.7c-0.8,0.3-1.7,0.7-2.5,1C243.8,173.3,242.9,172.8,242.6,171.9z"/>
			<path fill-rule="evenodd" clip-rule="evenodd" fill="#80CDC8" d="M243.9,168.4c-1.1,0.4-1.9,0.2-2.3-0.4c-0.4-0.6-0.5-1.5,0-2
				c0.2-0.2,0.5-0.5,0.8-0.6c1.6-0.7,3.3-1.3,5-2c1.7-0.7,3.3-1.3,5-2c1.7-0.7,3.3-1.3,5-2c1.7-0.7,3.3-1.3,5-2
				c1.6-0.7,3.3-1.3,4.9-1.9c0.6-0.3,1.3-0.5,1.9-0.8c0.8-0.3,1.5-0.2,2,0.3c0.5,0.5,0.6,1.1,0.4,1.8c-0.2,0.4-0.4,0.7-0.9,0.9
				c-1.6,0.6-3.2,1.3-4.8,1.9c-1.7,0.7-3.3,1.3-5,2c-1.4,0.6-2.8,1.1-4.2,1.7c-1.7,0.7-3.3,1.3-5,2c-1.4,0.5-2.8,1.1-4.2,1.6
				C246.2,167.5,244.9,168,243.9,168.4z"/>
			<path fill-rule="evenodd" clip-rule="evenodd" fill="#80CDC8" d="M269,147.1c0.3,0.8-0.2,1.7-1,2c-2.6,1-5.1,2-7.7,3
				c-2.8,1.1-5.6,2.2-8.4,3.3c-2.4,1-4.9,1.9-7.3,2.9c-1.3,0.5-2.5,1-3.8,1.5c-0.8,0.3-1.8-0.1-2.1-0.9c-0.3-0.8,0-1.8,0.8-2.1
				c2.1-0.8,4.1-1.6,6.2-2.4c1.9-0.8,3.8-1.5,5.7-2.3c1.7-0.7,3.3-1.3,5-1.9c1.9-0.8,3.8-1.5,5.8-2.3c1.6-0.6,3.1-1.2,4.7-1.9
				C267.8,145.6,268.8,146.2,269,147.1z"/>
			<path fill-rule="evenodd" clip-rule="evenodd" fill="#80CDC8" d="M267.6,169.9c-1.4,2.5-2.9,4.8-5.3,6.2
				c-0.4,0.2-0.8,0.5-1.2,0.6c-0.4,0.1-0.9,0.1-1.3,0.1c-1.7,0.1-3.3-0.3-4.8-0.9c-1-0.4-1.9-0.8-2.9-1.2c-0.1,0-0.2-0.1-0.3-0.2
				C257,173.1,262.2,171.5,267.6,169.9z"/>
		</g>
		<g>
			<path fill="#E2E2E1" d="M254.1,147l11.2-3.3c2.1-0.6,3.2-2.4,3.4-5.1c0.1-1.4-0.2-3-0.5-4.3c-0.5-2.9-1.1-5.8-1.2-8.8
				c-0.1-2.1,0.4-4.3,0.9-6.3c0.7-2.9,1.5-5.8,2.2-8.6c1.1-4.8,1.5-9.7,1-14.6c-0.2-2.2-0.6-4.3-1.1-6.4c-0.2-0.7-0.4-1.4-0.6-2.1
				c-1.2-4.3-3.1-8.4-5.9-11.9c-3.7-4.6-8.3-7.8-13.8-9.7c-5.1-1.7-10.2-2.1-15.5-1.7c-2.5,0.2-3.8,0.6-6.2,1.3
				c-2.4,0.7-3.7,1.1-5.9,2.3c-4.7,2.5-8.8,5.7-12.1,10c-3.6,4.6-5.8,9.8-6.3,15.7c-0.4,4.5,0.2,8.9,1.5,13.2
				c0.2,0.7,0.4,1.4,0.6,2.1c0.7,2.1,1.6,4,2.6,6c2.3,4.4,5.2,8.2,8.8,11.6c2.1,2,4.4,4,6.6,6c1.6,1.4,3.1,2.9,4.2,4.7
				c1.5,2.5,2.6,5.2,3.7,7.9c0.5,1.3,1.2,3,2,4.1c1.6,2.2,3.5,3.1,5.6,2.4l11-3.3"/>
		</g>
	</g>
	<circle fill="#54C4CD" cx="286.1" cy="143.8" r="2.8"/>
	<polygon fill="#F3D0B4" points="286,125.4 288.8,120.2 292,125.2 295.1,130.2 289.2,130.5 283.3,130.7 	"/>
	<path fill="#54C4CD" d="M166.5,94.7c0.8-1.4,2.5-1.8,3.8-1.1c1.4,0.8,1.8,2.5,1.1,3.8c-0.8,1.4-2.5,1.9-3.8,1.1
		C166.2,97.8,165.7,96.1,166.5,94.7z"/>
	<polygon fill="#F3D0B4" points="177.9,80 182.8,76.7 183.2,82.7 183.5,88.6 178.2,85.9 172.9,83.2 	"/>
	<polygon fill="#54C4CD" points="203.1,144 208.1,140.7 208.4,146.7 208.7,152.6 203.4,149.9 198.1,147.2 	"/>
</g>
</svg>