<svg version="1.1"
	 xmlns="http://www.w3.org/2000/svg" xmlns:xlink="http://www.w3.org/1999/xlink" xmlns:a="http://ns.adobe.com/AdobeSVGViewerExtensions/3.0/"
	 x="0px" y="0px" width="517.6px" height="200.3px" viewBox="0 0 517.6 200.3" enable-background="new 0 0 517.6 200.3"
	 xml:space="preserve">
<g>
	<path fill="#F3D0B4" d="M33.4,30.7c0,0-0.1,0-0.1,0c0-4.2-2.8-7.8-6.7-8.3c-2.2-0.3-4.4,0.4-6,1.8c-1.1-1.6-3-2.8-5.1-3.1
		c-4-0.6-7.8,2.1-8.3,5.9c-0.2,1.1,0,2.2,0.3,3.2c-3.7-0.1-6.9,2.4-7.4,6c-0.5,3.9,2.3,7.4,6.3,8c1.9,0.3,3.6-0.2,5.1-1.1
		c0.7,3.3,3.2,5.9,6.5,6.4c4.2,0.6,8.2-2.6,9-7.1c1.1,1.2,2.7,2,4.5,2.3c4,0.6,7.8-2.1,8.3-5.9C40.3,34.9,37.5,31.3,33.4,30.7z"/>
	<g>
		<path fill-rule="evenodd" clip-rule="evenodd" fill="#80CDC8" d="M462.9,119.5l19.6-2.7h10c1.1,0,1.9,0.9,1.9,2.1l-7.9,70.8
			c0,1.1-0.9,2.1-1.9,2.1h-24.1"/>
		<path fill-rule="evenodd" clip-rule="evenodd" fill="#80CDC8" d="M463.1,119.5l-19.6-2.7h-10c-1.1,0-1.9,0.9-1.9,2.1l7.9,70.8
			c0,1.1,0.9,2.1,1.9,2.1h24.1"/>
		<circle fill-rule="evenodd" clip-rule="evenodd" fill="#323032" cx="462.6" cy="191.7" r="8.5"/>
		<path fill-rule="evenodd" clip-rule="evenodd" fill="#54C4CD" d="M466.9,191.7c0,2.4-1.9,4.3-4.3,4.3c-2.4,0-4.3-1.9-4.3-4.3
			c0-2.4,1.9-4.3,4.3-4.3C465,187.5,466.9,189.4,466.9,191.7z"/>
		<g>
			<path fill-rule="evenodd" clip-rule="evenodd" fill="#50565F" d="M496.1,118.3c0,1.1-0.9,2-2,2h-62.9c-1.1,0-2-0.9-2-2v-2.2
				c0-1.1,0.9-2,2-2h62.9c1.1,0,2,0.9,2,2V118.3z"/>
			<path fill-rule="evenodd" clip-rule="evenodd" fill="#50565F" d="M491.3,115c0,1-0.8,1.7-1.7,1.7h-53.8c-1,0-1.7-0.8-1.7-1.7
				v-1.9c0-1,0.8-1.7,1.7-1.7h53.8c1,0,1.7,0.8,1.7,1.7V115z"/>
			<path fill-rule="evenodd" clip-rule="evenodd" fill="#50565F" d="M488.3,114.6c0,1.4-0.7-2-1.6-2h-48.2c-0.9,0-1.5-1.1-1.5-2.5
				v-2.7c0-1.4,0.7-2.5,1.5-2.5l48.2,4.4c0.9,0,1.6,1.1,1.6,2.5V114.6z"/>
		</g>
		<g>
			<g>
				<path fill-rule="evenodd" clip-rule="evenodd" fill="#FFFFFF" d="M460.5,138.7c1.8,0,3.8,0,5.8,0c0.7,0,1.1,0.4,1.4,1
					c0.4,0.8,0.9,1.5,1.4,2.3c0.5-0.3,1-0.5,1.4-0.8c0,0,0.1,0,0.1,0.1c-0.3,0.5-0.5,0.9-0.8,1.4c-0.5,0.9-1,1.8-1.5,2.6
					c-0.1,0.2-0.3,0.4-0.5,0.4c-1.6,0-3.1,0-4.8-0.1c0.4-0.3,0.9-0.5,1.4-0.9c-0.2-0.4-0.5-0.8-0.7-1.3c-0.6-1-1.2-2.1-1.8-3.1
					C461.5,139.8,460.9,139.2,460.5,138.7z"/>
				<path fill-rule="evenodd" clip-rule="evenodd" fill="#FFFFFF" d="M459.6,147.2c-1.6-0.9-3.1-1.8-4.7-2.7
					c0.9-1.5,1.7-3.1,2.7-4.5c0.8-1.2,2.5-1,3.4,0.1c0.5,0.7,0.8,1.4,1.2,2.1c0.1,0.1,0.1,0.4,0,0.5
					C461.3,144.2,460.5,145.7,459.6,147.2z"/>
			</g>
			<g>
				<path fill-rule="evenodd" clip-rule="evenodd" fill="#FFFFFF" d="M473.7,153.9c-0.9,1.6-1.8,3.4-2.8,5.1
					c-0.3,0.6-0.9,0.8-1.6,0.8c-0.9,0-1.8,0-2.7,0.1c0,0.6,0,1.1,0,1.6c0,0-0.1,0-0.1,0c-0.3-0.5-0.6-0.9-0.8-1.4
					c-0.5-0.9-1.1-1.7-1.6-2.6c-0.1-0.2-0.2-0.5-0.1-0.6c0.7-1.4,1.5-2.8,2.4-4.1c0,0.5,0,1,0.1,1.6c0.5,0,1,0,1.5,0
					c1.2,0,2.4,0,3.6-0.1C472.3,154.2,473,154,473.7,153.9z"/>
				<path fill-rule="evenodd" clip-rule="evenodd" fill="#FFFFFF" d="M466.7,149c1.6-1,3.1-1.9,4.6-2.8c0.9,1.5,1.9,3,2.7,4.6
					c0.6,1.3-0.3,2.7-1.7,2.9c-0.8,0.1-1.6,0.1-2.4,0.1c-0.2,0-0.4-0.1-0.4-0.2C468.5,152,467.6,150.5,466.7,149z"/>
			</g>
			<g>
				<path fill-rule="evenodd" clip-rule="evenodd" fill="#FFFFFF" d="M473.7,153.9c-0.9,1.6-1.8,3.4-2.8,5.1
					c-0.3,0.6-0.9,0.8-1.6,0.8c-0.9,0-1.8,0-2.7,0.1c0,0.6,0,1.1,0,1.6c0,0-0.1,0-0.1,0c-0.3-0.5-0.6-0.9-0.8-1.4
					c-0.5-0.9-1.1-1.7-1.6-2.6c-0.1-0.2-0.2-0.5-0.1-0.6c0.7-1.4,1.5-2.8,2.4-4.1c0,0.5,0,1,0.1,1.6c0.5,0,1,0,1.5,0
					c1.2,0,2.4,0,3.6-0.1C472.3,154.2,473,154,473.7,153.9z"/>
				<path fill-rule="evenodd" clip-rule="evenodd" fill="#FFFFFF" d="M466.7,149c1.6-1,3.1-1.9,4.6-2.8c0.9,1.5,1.9,3,2.7,4.6
					c0.6,1.3-0.3,2.7-1.7,2.9c-0.8,0.1-1.6,0.1-2.4,0.1c-0.2,0-0.4-0.1-0.4-0.2C468.5,152,467.6,150.5,466.7,149z"/>
			</g>
			<g>
				<path fill-rule="evenodd" clip-rule="evenodd" fill="#FFFFFF" d="M454.1,157.7c-0.9-1.6-1.9-3.3-2.8-5.1
					c-0.3-0.6-0.2-1.2,0.2-1.7c0.4-0.8,0.9-1.5,1.4-2.3c-0.5-0.3-0.9-0.6-1.4-0.9c0,0,0-0.1,0-0.1c0.5,0,1.1,0,1.6,0c1,0,2,0,3,0.1
					c0.2,0,0.5,0.1,0.6,0.3c0.8,1.4,1.5,2.7,2.2,4.2c-0.5-0.2-0.9-0.5-1.4-0.8c-0.3,0.4-0.5,0.8-0.8,1.2c-0.6,1-1.3,2-1.8,3.1
					C454.5,156.3,454.3,157,454.1,157.7z"/>
				<path fill-rule="evenodd" clip-rule="evenodd" fill="#FFFFFF" d="M461.9,154.3c0,1.8-0.1,3.6-0.1,5.4c-1.8,0-3.5,0-5.3-0.2
					c-1.4-0.1-2.2-1.7-1.5-3c0.4-0.7,0.8-1.4,1.2-2.1c0.1-0.1,0.3-0.2,0.4-0.2C458.4,154.2,460.2,154.3,461.9,154.3z"/>
			</g>
		</g>
	</g>
	<g>
		<path fill="#E2E2E1" d="M408.9,120.3c0,0,3-10,1.2-13.7c-2.3-4.6-10.8-7.7-18-5.5c-7.2,2.2-10.8,14-6,19c0,0-6.3,4.9-7.3,10.2
			c-1,5.3-0.9,8.1,0,10.4c0.9,2.3,2,5.2,2,5.2s-5.8,5.3-5.4,12.7c0.4,7.4,7,14.3,12.5,15.1c5.6,0.8,21.3,0,25.5-2.8
			c4.2-2.8,7.4-7,7.4-11.3c0-4.3-4.6-9.9-4.6-9.9s2.1-7,2.6-11.6c0.5-4.6-1.5-10.5-4-12.9C412.4,122.7,408.9,120.3,408.9,120.3z"/>
		<path fill="#54C4CD" d="M411.9,150.6c-0.2-3.8-2.5-2.5-2.9,0c-0.3,2-1.3,3.9-3.6,5.7c-1.8,1.4-3.9,1.6-4.9,1.7
			c-0.1-3.9-0.2-7.8-0.3-11.7c2.3,0.1,6.4-0.4,8.8-4.4c2.6-4.5,1.9-7.1,1.3-8.7c-0.6-1.7-2.3-0.4-2.5,2.5c-0.1,2.1-0.7,7.4-7.7,7.7
			c-0.2-6.8-0.4-13.2-0.6-18.5c1.4-1,4.6-3.7,5.5-7.1c0.8-2.7-0.1-5.7-1.5-3.1c-1.3,2.5-2.4,5.7-4.2,6.3c-0.2-5.3-0.4-8.9-0.5-9.6
			c-0.5-3.8-3-3.1-3.1,0.3c0,0.6-0.1,3.2-0.1,7.3c-1.5-0.6-3.4-3-4.5-4.5c-1.3-1.9-3.8,0.3-1.6,3c1.9,2.3,4.9,5.4,6,6.5
			c-0.1,4.7-0.2,10.4-0.3,16.6c-0.7-0.4-1.6-0.9-2.6-1.7c-2.3-1.9-4.3-7.1-4.3-7.1c-0.9-1.7-2.1-2.1-2.5,0c-0.4,2.1,0.3,3.6,2,7.3
			c1.2,2.7,5.3,4.9,7.3,5.9c-0.1,4.5-0.1,9.2-0.2,13.8c-1.7-0.5-5.5-1.9-6.5-5.1c-1.3-4.2-0.7-6.2-2.1-6.5c-1.4-0.3-1.8,3.8-1.2,7
			c0.6,3.2,2.7,5.9,5.5,7.4c1.6,0.9,3.2,1.3,4.3,1.5c-0.2,19.1-0.3,36.4,0.2,36.7c1.1,0.8,4.6,0.4,5.7-0.3c0.5-0.3,0.2-18-0.3-37.4
			c1.6-0.3,4-0.7,5.7-1.4C409.1,159.5,412.1,154.4,411.9,150.6z"/>
	</g>
	<g>
		<path fill="#F3D0B4" d="M358.3,171.4c-5.6-1-11.3-5.6-15.4-9.6c-5.8-5.8-11.6-16.4-12.2-24.8c-1.8-23.9,8.7-41.3,13-48.9
			c4.3-7.6,10.5-19.6,21-6.2c9.2,11.8,19.2,30.8,17.4,50.7c-1.1,11.5-5.8,26.3-13.5,35C365.5,171.1,361.9,172,358.3,171.4z"/>
		<path fill="#50565F" d="M372.9,144.6c-0.2-4.2-2.7-2.7-3.2,0c-0.4,2.2-1.4,4.3-4,6.2c-2,1.5-4.3,1.8-5.3,1.8
			c-0.1-4.2-0.2-8.5-0.4-12.7c2.5,0.1,7-0.4,9.5-4.8c2.8-4.9,2-7.7,1.4-9.5c-0.7-1.8-2.5-0.5-2.7,2.7c-0.1,2.3-0.7,8-8.4,8.4
			c-0.2-7.4-0.5-14.4-0.7-20.1c1.5-1.1,5-4,6-7.7c0.8-3-0.1-6.2-1.6-3.3c-1.4,2.7-2.6,6.2-4.6,6.9c-0.2-5.8-0.4-9.7-0.5-10.5
			c-0.6-4.2-3.3-3.4-3.3,0.4c0,0.6-0.1,3.5-0.1,8c-1.6-0.7-3.7-3.2-4.9-4.9c-1.4-2.1-4.2,0.4-1.7,3.3c2.1,2.5,5.3,5.9,6.5,7.1
			c-0.1,5.1-0.2,11.3-0.3,18.1c-0.8-0.4-1.8-1-2.8-1.9c-2.5-2.1-4.7-7.7-4.7-7.7c-1-1.9-2.2-2.3-2.7,0c-0.4,2.3,0.4,3.9,2.2,7.9
			c1.3,2.9,5.7,5.3,7.9,6.4c-0.1,4.9-0.1,10-0.2,15c-1.9-0.5-6-2-7.1-5.6c-1.5-4.6-0.7-6.8-2.2-7.1c-1.5-0.3-2,4.1-1.4,7.6
			c0.6,3.5,2.9,6.4,6,8.1c1.7,1,3.5,1.4,4.7,1.6c-0.2,20.8-0.3,39.6,0.3,40c1.2,0.8,5,0.5,6.2-0.3c0.6-0.4,0.3-19.6-0.3-40.7
			c1.7-0.3,4.3-0.8,6.3-1.6C369.8,154.2,373.1,148.7,372.9,144.6z"/>
	</g>
	<path fill="#E2E2E1" d="M443.6,66.7c0,0-0.1,0-0.1,0c0-4.2-2.8-7.8-6.7-8.3c-2.2-0.3-4.4,0.4-6,1.8c-1.1-1.6-3-2.8-5.1-3.1
		c-4-0.6-7.8,2.1-8.3,5.9c-0.2,1.1,0,2.2,0.3,3.2c-3.7-0.1-6.9,2.5-7.4,6c-0.5,3.9,2.3,7.4,6.3,8c1.9,0.3,3.6-0.2,5.1-1.1
		c0.7,3.3,3.2,5.9,6.5,6.4c4.2,0.6,8.2-2.6,9-7.1c1.1,1.2,2.7,2,4.5,2.3c4,0.6,7.8-2.1,8.3-5.9C450.5,70.9,447.6,67.3,443.6,66.7z"
		/>
	<path fill="#54C4CD" d="M58.3,82.6c-0.1,0-0.1,0-0.2,0c0-6.1-4.1-11.3-9.8-12.1c-3.2-0.5-6.3,0.6-8.8,2.7c-1.7-2.4-4.3-4.1-7.5-4.6
		c-5.9-0.8-11.3,3-12.1,8.6c-0.2,1.6,0,3.2,0.5,4.6c-5.4-0.1-10,3.6-10.8,8.7c-0.8,5.6,3.3,10.8,9.2,11.7c2.7,0.4,5.3-0.2,7.4-1.5
		c1.1,4.8,4.7,8.6,9.5,9.3c6.2,0.9,11.9-3.8,13.1-10.4c1.6,1.7,3.9,3,6.5,3.3c5.9,0.8,11.3-3,12.1-8.6
		C68.4,88.7,64.2,83.5,58.3,82.6z"/>
	<path fill="#F3D0B4" d="M517.6,78.9c-0.2-3.2-3.2-5.6-6.5-5.4c-1.5,0.1-2.9,0.8-3.9,1.7c-1.2-2.5-3.7-4.2-6.4-4
		c-3.5,0.3-6.2,3.5-6,7.4c-1.1-0.8-2.5-1.2-4-1.1c-3.4,0.2-5.9,3.1-5.7,6.3c0.2,3.2,3.2,5.6,6.5,5.4c0,0,0.1,0,0.1,0
		c0.8,3.4,3.6,5.8,6.9,5.6c1.8-0.1,3.5-1.1,4.5-2.5c1.2,1.1,2.9,1.8,4.7,1.6c3.4-0.2,5.9-3.1,5.7-6.3c-0.1-0.9-0.4-1.8-0.8-2.5
		C515.6,84.5,517.8,81.9,517.6,78.9z"/>
	<g>
		<rect x="49.7" y="113" fill="#F3D0B4" width="42.6" height="87.1"/>
		<path fill="#323032" d="M92.4,113c0,0-7.9-39.7-14.3-78.4h1c0,0,0.7-7.4-3.2-10.3c0.1-3.2-0.9-4-2.4-7.1c-1.8-3.9-1-16.4-1-16.4
			h-2.1c0,0,0.8,12.6-1,16.4c-1.5,3.1-2.6,3.9-2.4,7.1c-4,2.9-3.2,10.3-3.2,10.3h0.7C57.9,73.3,49.6,113,49.6,113"/>
		<g>
			<circle fill="#FFFFFF" cx="71" cy="134.4" r="13.5"/>
			<g>
				<path fill="#50565F" stroke="#50565F" stroke-width="0.8474" stroke-miterlimit="10" d="M70.5,134.1l0.2-9.2
					c0,0,0.4,7.8,0.1,9.5"/>
				<path fill="#50565F" stroke="#50565F" stroke-width="0.8474" stroke-miterlimit="10" d="M70.6,135.5l-4.3,6.1
					c0,0,3.3-5.5,4.2-6.5"/>
				<circle fill="#50565F" stroke="#50565F" stroke-width="0.8474" stroke-miterlimit="10" cx="70.6" cy="134.7" r="0.7"/>
			</g>
		</g>
		<path fill="#80CDC8" d="M76.7,23.6c0-2.3-0.6-3.5-1.5-5.1c-0.3-0.6-0.6-1.2-1-2c-1.4-3-1.2-12.3-0.9-15.8L73.3,0h-4.1l0.1,0.8
			c0.2,3.4,0.5,12.9-1,15.9c-0.4,0.8-0.7,1.3-1,1.9c-0.9,1.6-1.5,2.8-1.5,5.1C62,27,62.6,34,62.6,34.3l0.1,0.7h1v-1h14v1h2.1
			l0.1-0.7C80,34,80.6,27,76.7,23.6z"/>
	</g>
	<g>
		<path fill="#50565F" d="M317,145.9c2.8-0.2,5.2,1.3,5.4,3.4c0.2,2.1-2,3.9-4.8,4.2"/>
		<path fill="#50565F" d="M316.2,136.3c2.8-0.2,5.2,1.3,5.4,3.4c0.2,2.1-2,3.9-4.8,4.2"/>
		<polygon fill="#54C4CD" points="124,164.7 134.5,171.3 176.2,176.3 272.9,176.4 312.1,167.7 318,165.4 314.4,139.3 125.9,144.9
			"/>
		<path fill="none" stroke="#50565F" stroke-width="1.3929" stroke-miterlimit="10" d="M193.4,169"/>
		<path fill="#E2E2E1" d="M187.4,86.1c0,0,47.9,8.3,49.9,10.7c1.9,2.4,18.4,29.3,18.4,29.3s35.8,0.2,58.1,6.1
			c7.8,2,6.3,36.9,2.4,36.9c0,0-1.4,0-2.1-4.5c-0.7-4.4-4.2-14.2-13-15.3c-8.8-1.2-23.2,0.7-23.2,0.7s-4.2,0.3-7.9,7.5
			c-3.7,7.2-1.2,11.3-14.6,11.6c-13.5,0.2-27.1,0-27.1,0h-40.2c-13.5,0-10.9-4.4-14.6-11.6c-3.7-7.2-7.9-7.5-7.9-7.5
			s-14.4-1.8-23.2-0.7c-8.8,1.2-12.3,10.9-13,15.3c-0.7,4.4-2.1,4.5-2.1,4.5l-8.1-3.8c0,0-1.9-0.3-1.7-4.6c0.2-4.4,0-66.8,0-66.8
			s-0.5-8.5,6.3-7.8L187.4,86.1z"/>
		<path fill="#FFFFFF" d="M186.8,123c0,1.3-1.1,3-2.6,3h-56.5c-1.5,0-3.9-1.7-3.9-3v-19c0-1.3,2.5-2,3.9-2h56.5c1.5,0,2.6,0.7,2.6,2
			V123z"/>
		<path fill="#FFFFFF" d="M243.8,123.3c0,1.3-1.6,2.7-2.5,2.7h-36.2c-0.9,0-2.3-1.7-2.3-3v-19c0-1.3,1.4-2,2.3-2h27.9
			c0.9,0,1.9,1,2.5,2.4L243.8,123.3z"/>
		<path fill="#FFFFFF" d="M179.8,93.5c0,1.4-1.1,2.5-2.5,2.5h-43c-1.4,0-2.5-1.1-2.5-2.5l0,0c0-1.4,1.1-2.5,2.5-2.5h43
			C178.6,91,179.8,92.1,179.8,93.5L179.8,93.5z"/>
		<line fill="#F3D0B4" x1="117.8" y1="137" x2="197.8" y2="137"/>
		<path fill="#54C4CD" d="M306.1,168.3c0,2.4,1.7,4.4,3.8,4.4h9.8c2.1,0,3.7-2,3.7-4.4v-8.4c0-2.4-1.7-4.4-3.7-4.4h-9.8
			c-2.1,0-3.8,1.9-3.8,4.4V168.3z"/>
		<path fill="#54C4CD" d="M115.4,168.3c0,2.4,2.4,4.4,5.3,4.4h14c2.9,0,5.3-2,5.3-4.4v-8.4c0-2.4-2.4-4.4-5.3-4.4h-14
			c-2.9,0-5.3,1.9-5.3,4.4V168.3z"/>
		<g>
			<path fill="#50565F" d="M312.3,177.7c0,12.3-10,22.4-22.4,22.4c-12.3,0-22.3-10-22.3-22.4c0-12.3,10-22.4,22.3-22.4
				C302.3,155.4,312.3,165.4,312.3,177.7z"/>
			<path fill="#FFFFFF" d="M303.4,177.7c0,7.4-6,13.4-13.4,13.4c-7.4,0-13.4-6-13.4-13.4c0-7.4,6-13.4,13.4-13.4
				C297.4,164.3,303.4,170.3,303.4,177.7z"/>
			<g>
				<path fill="#F3D0B4" d="M288.4,172.7c0,0.7-0.6,1.3-1.3,1.3c-0.7,0-1.3-0.6-1.3-1.3c0-0.7,0.6-1.3,1.3-1.3
					C287.8,171.3,288.4,171.9,288.4,172.7z"/>
				<path fill="#F3D0B4" d="M294.2,172.7c0,0.7-0.6,1.3-1.3,1.3c-0.7,0-1.3-0.6-1.3-1.3c0-0.7,0.6-1.3,1.3-1.3
					C293.6,171.3,294.2,171.9,294.2,172.7z"/>
				<path fill="#F3D0B4" d="M288.4,182.7c0,0.7-0.6,1.3-1.3,1.3c-0.7,0-1.3-0.6-1.3-1.3c0-0.7,0.6-1.3,1.3-1.3
					C287.8,181.4,288.4,182,288.4,182.7z"/>
				<path fill="#F3D0B4" d="M294.2,182.7c0,0.7-0.6,1.3-1.3,1.3c-0.7,0-1.3-0.6-1.3-1.3c0-0.7,0.6-1.3,1.3-1.3
					C293.6,181.4,294.2,182,294.2,182.7z"/>
				<path fill="#F3D0B4" d="M285.5,177.7c0,0.7-0.6,1.3-1.3,1.3c-0.7,0-1.3-0.6-1.3-1.3c0-0.7,0.6-1.3,1.3-1.3
					C284.9,176.4,285.5,177,285.5,177.7z"/>
				<path fill="#F3D0B4" d="M297.1,177.7c0,0.7-0.6,1.3-1.3,1.3c-0.7,0-1.3-0.6-1.3-1.3c0-0.7,0.6-1.3,1.3-1.3
					C296.5,176.4,297.1,177,297.1,177.7z"/>
			</g>
		</g>
		<g>
			<path fill="#50565F" d="M175.8,177.7c0,12.3-10,22.4-22.4,22.4c-12.3,0-22.3-10-22.3-22.4c0-12.3,10-22.4,22.3-22.4
				C165.8,155.4,175.8,165.4,175.8,177.7z"/>
			<path fill="#FFFFFF" d="M166.9,177.7c0,7.4-6,13.4-13.4,13.4c-7.4,0-13.4-6-13.4-13.4c0-7.4,6-13.4,13.4-13.4
				C160.9,164.3,166.9,170.3,166.9,177.7z"/>
			<g>
				<path fill="#F3D0B4" d="M151.9,172.7c0,0.7-0.6,1.3-1.3,1.3c-0.7,0-1.3-0.6-1.3-1.3c0-0.7,0.6-1.3,1.3-1.3
					C151.3,171.3,151.9,171.9,151.9,172.7z"/>
				<path fill="#F3D0B4" d="M157.7,172.7c0,0.7-0.6,1.3-1.3,1.3c-0.7,0-1.3-0.6-1.3-1.3c0-0.7,0.6-1.3,1.3-1.3
					C157.1,171.3,157.7,171.9,157.7,172.7z"/>
				<path fill="#F3D0B4" d="M151.9,182.7c0,0.7-0.6,1.3-1.3,1.3c-0.7,0-1.3-0.6-1.3-1.3c0-0.7,0.6-1.3,1.3-1.3
					C151.3,181.4,151.9,182,151.9,182.7z"/>
				<path fill="#F3D0B4" d="M157.7,182.7c0,0.7-0.6,1.3-1.3,1.3c-0.7,0-1.3-0.6-1.3-1.3c0-0.7,0.6-1.3,1.3-1.3
					C157.1,181.4,157.7,182,157.7,182.7z"/>
				<path fill="#F3D0B4" d="M149,177.7c0,0.7-0.6,1.3-1.3,1.3c-0.7,0-1.3-0.6-1.3-1.3c0-0.7,0.6-1.3,1.3-1.3
					C148.4,176.4,149,177,149,177.7z"/>
				<path fill="#F3D0B4" d="M160.6,177.7c0,0.7-0.6,1.3-1.3,1.3c-0.7,0-1.3-0.6-1.3-1.3c0-0.7,0.6-1.3,1.3-1.3
					C160,176.4,160.6,177,160.6,177.7z"/>
			</g>
		</g>
		<polygon fill-rule="evenodd" clip-rule="evenodd" fill="#54C4CD" points="205.8,141 216.8,140 216.8,142.8 205.8,141.9 		"/>
		<path fill-rule="evenodd" clip-rule="evenodd" fill="#50565F" d="M119.8,111.7c0-2-1.6-3.7-3.7-3.7h-7.6c-2,0-3.7,1.7-3.7,3.7
			v38.6c0,2,1.6,3.7,3.7,3.7h7.6c2,0,3.7-1.7,3.7-3.7V111.7z"/>
	</g>
</g>
</svg>