<svg version="1.1"
	 xmlns="http://www.w3.org/2000/svg" xmlns:xlink="http://www.w3.org/1999/xlink" xmlns:a="http://ns.adobe.com/AdobeSVGViewerExtensions/3.0/"
	 x="0px" y="0px" width="88.5px" height="88.5px" viewBox="0 0 88.5 88.5" enable-background="new 0 0 88.5 88.5"
	 xml:space="preserve">
<circle fill="none" stroke="#F3D0B4" stroke-width="3.4702" stroke-miterlimit="10" cx="44.3" cy="44.3" r="42.5"/>
<g>
	<path fill-rule="evenodd" clip-rule="evenodd" fill="none" stroke="#F3D0B4" stroke-width="3.4702" stroke-miterlimit="10" d="
		M18.7,45.6c0-0.1,0.1-0.3,0.1-0.4c0.3-1.2,1.3-2,2.8-2c1.5-0.1,2.9,0.3,4.2,0.8c3,1,5.9,2.5,8.8,4c0.2,0.1,0.3,0.2,0.5,0.3
		c0.9-1,1.7-2,2.6-3c2.2-2.5,4.4-4.9,6.6-7.4c3.4-3.7,6.9-7.3,10.6-10.6c2.2-2,4.5-4,7.1-5.6c1.2-0.8,2.5-1.4,4-1.6
		c0.3,0,0.6,0,0.9,0c0,0,0.1,0.1,0.1,0.1c1,0.2,1.8,0.6,2,1.7c0,0.2,0,0.4,0,0.6c-0.3,0.9-0.9,1.6-1.6,2.3c-1.7,1.7-3.5,3.4-5.2,5.1
		c-7.1,7.1-12.9,15.1-17.6,23.9c-2.5,4.7-4.8,9.5-6.8,14.5c-0.2,0.6-0.5,1-1.1,1.2c-0.2,0-0.4,0-0.6,0c-0.5-0.2-0.8-0.6-1.1-1.1
		c-1.6-2.6-3.1-5.3-4.8-7.9c-2.8-4.5-6.1-8.6-10-12.2c-0.6-0.6-1.3-1-1.7-1.8C18.7,46.1,18.7,45.8,18.7,45.6z"/>
</g>
</svg>